<mxfile host="app.diagrams.net" agent="Mozilla/5.0 (X11; Linux x86_64) AppleWebKit/537.36 (KHTML, like Gecko) Chrome/129.0.0.0 Safari/537.36 Edg/129.0.0.0" version="24.7.16">
  <diagram name="Página-1" id="QQbFhCyVGFn1hZzZStdD">
    <mxGraphModel dx="2256" dy="1556" grid="1" gridSize="10" guides="1" tooltips="1" connect="1" arrows="1" fold="1" page="1" pageScale="1" pageWidth="827" pageHeight="1169" math="0" shadow="0">
      <root>
        <mxCell id="0" />
        <mxCell id="1" parent="0" />
        <mxCell id="lU2g8GxYdGwtx_MwnQwR-36" value="" style="rounded=1;whiteSpace=wrap;html=1;" parent="1" vertex="1">
          <mxGeometry x="2560" y="690" width="220" height="170" as="geometry" />
        </mxCell>
        <mxCell id="lU2g8GxYdGwtx_MwnQwR-41" style="edgeStyle=orthogonalEdgeStyle;rounded=0;orthogonalLoop=1;jettySize=auto;html=1;exitX=1;exitY=0.5;exitDx=0;exitDy=0;entryX=0;entryY=0.5;entryDx=0;entryDy=0;" parent="1" source="lU2g8GxYdGwtx_MwnQwR-34" target="lU2g8GxYdGwtx_MwnQwR-37" edge="1">
          <mxGeometry relative="1" as="geometry" />
        </mxCell>
        <mxCell id="lU2g8GxYdGwtx_MwnQwR-34" value="Artefato do&lt;div&gt;Modelo&lt;/div&gt;&lt;div&gt;(pickle)&lt;/div&gt;" style="rounded=1;whiteSpace=wrap;html=1;fillColor=#f8cecc;strokeColor=#b85450;" parent="1" vertex="1">
          <mxGeometry x="2375" y="740" width="120" height="60" as="geometry" />
        </mxCell>
        <mxCell id="lU2g8GxYdGwtx_MwnQwR-25" value="" style="rounded=1;whiteSpace=wrap;html=1;" parent="1" vertex="1">
          <mxGeometry x="2350" y="562" width="170" height="130" as="geometry" />
        </mxCell>
        <mxCell id="lU2g8GxYdGwtx_MwnQwR-18" value="" style="rounded=1;whiteSpace=wrap;html=1;" parent="1" vertex="1">
          <mxGeometry x="2110" y="562" width="170" height="130" as="geometry" />
        </mxCell>
        <mxCell id="lU2g8GxYdGwtx_MwnQwR-19" value="Container: api-database" style="text;html=1;align=center;verticalAlign=middle;whiteSpace=wrap;rounded=0;" parent="1" vertex="1">
          <mxGeometry x="2120" y="662" width="150" height="30" as="geometry" />
        </mxCell>
        <mxCell id="lU2g8GxYdGwtx_MwnQwR-20" value="" style="shape=image;html=1;verticalAlign=top;verticalLabelPosition=bottom;labelBackgroundColor=#ffffff;imageAspect=0;aspect=fixed;image=https://cdn1.iconfinder.com/data/icons/unicons-line-vol-3/24/docker-128.png" parent="1" vertex="1">
          <mxGeometry x="2090" y="530" width="50" height="50" as="geometry" />
        </mxCell>
        <mxCell id="lU2g8GxYdGwtx_MwnQwR-15" value="" style="rounded=1;whiteSpace=wrap;html=1;" parent="1" vertex="1">
          <mxGeometry x="2110" y="730" width="170" height="130" as="geometry" />
        </mxCell>
        <mxCell id="lU2g8GxYdGwtx_MwnQwR-12" style="edgeStyle=orthogonalEdgeStyle;rounded=0;orthogonalLoop=1;jettySize=auto;html=1;exitX=1;exitY=0.5;exitDx=0;exitDy=0;" parent="1" source="lU2g8GxYdGwtx_MwnQwR-9" target="lU2g8GxYdGwtx_MwnQwR-3" edge="1">
          <mxGeometry relative="1" as="geometry" />
        </mxCell>
        <mxCell id="lU2g8GxYdGwtx_MwnQwR-9" value="CSV - Cópia Local&lt;div&gt;Database Original&lt;/div&gt;" style="rounded=1;whiteSpace=wrap;html=1;fillColor=#d5e8d4;strokeColor=#82b366;" parent="1" vertex="1">
          <mxGeometry x="1960" y="770" width="120" height="60" as="geometry" />
        </mxCell>
        <mxCell id="lU2g8GxYdGwtx_MwnQwR-32" style="edgeStyle=orthogonalEdgeStyle;rounded=0;orthogonalLoop=1;jettySize=auto;html=1;exitX=1;exitY=0.5;exitDx=0;exitDy=0;" parent="1" source="lU2g8GxYdGwtx_MwnQwR-2" target="lU2g8GxYdGwtx_MwnQwR-28" edge="1">
          <mxGeometry relative="1" as="geometry" />
        </mxCell>
        <mxCell id="lU2g8GxYdGwtx_MwnQwR-2" value="Database&lt;div&gt;PostgreSQL&lt;/div&gt;" style="rounded=1;whiteSpace=wrap;html=1;fillColor=#dae8fc;strokeColor=#6c8ebf;" parent="1" vertex="1">
          <mxGeometry x="2140" y="610" width="120" height="60" as="geometry" />
        </mxCell>
        <UserObject label="" id="8idVusI056MpJdviH8Ap-2">
          <mxCell style="rounded=1;whiteSpace=wrap;html=1;arcSize=7;" parent="1" vertex="1">
            <mxGeometry x="180" y="60" width="960" height="1280" as="geometry" />
          </mxCell>
        </UserObject>
        <mxCell id="8idVusI056MpJdviH8Ap-3" value="" style="shape=image;verticalLabelPosition=bottom;labelBackgroundColor=default;verticalAlign=top;aspect=fixed;imageAspect=0;image=https://cdn-icons-png.flaticon.com/512/5969/5969124.png;" parent="1" vertex="1">
          <mxGeometry x="1070" y="10" width="162" height="162" as="geometry" />
        </mxCell>
        <mxCell id="8idVusI056MpJdviH8Ap-4" value="" style="shape=image;verticalLabelPosition=bottom;labelBackgroundColor=default;verticalAlign=top;aspect=fixed;imageAspect=0;image=data:image/png,UklGRoJJAABXRUJQVlA4IHZJAADwnAGdASpjAyEDPpFIn0ulpCMhojKpiLASCWdu7op02IgrfFXU3jR4D+Dz2Mw8JX0udy9OlmwnSBP0L7AH91/rX6PesT7KP6X/2vUB/Hv+x6wH/F/ar3g/8v1B//J1P3oN/wr/mda9+7/pVf//s+OlP6qf47++ftD4Jf6X+0/5TzF8l/uv94/c/zx/Al2P5ofy/8V/wv8H7Z/53vh+V/+96gv5L/RP9N9uvDigB/Uf7p/3f8R6qX23mr/C/6z/x+4FwhPs3sDf0f/N+jroEfWv+H7Cf7C/sX2tfS9FoZS9EMQNpv2X+Y6kfjfsv8x1I/G/Zf5jqR+N+y/zHUj7Yxw+DKB8GUD4MoHwZQPgygfBlA+DKB8GUD4MoHwZQPgygfBlA+DKB8GUD4MoHwZQPgygfD7sfvnY/fOx++dj987H752P3zsfvnY/fOx++vM8n3zo/vdOHaiv5Qhy5IWSVt04dqK/lCHLkhZJW3Th2or+UIcuSFklbdGyy5Ox++eycn3zsRr/gGhCtDlyQskrbpw7UV/KEOXJCyStunDtRX8oQ5ckLJK26cO1Fcnk2SeIbYn+zDbE+9WBdmqWUspZSyllLKWUspZSnmuTNqVNYRqNUanCx7k++dpeUQ2xO3j/8mcGUD4MoHwKks6UbkeOYMEHEFvG8Lmo4+623tBjueRkgsjrWEtqLMk4HwYgJVMoHwb4+TODJnHA8M+DKB8GUD2wzr7IFMLEZ2FTo9ibURpGWSI1NSl4e36nUAVD2qw7kGNsT8JitiffMS4X3Y/fOx++dj12hxoMexYx3lYebbx0gjl8fKO76KIvRBfJZx02LPWmOHt/OVacoH447H7501jn3zsfvnY/fOlCACCSAkiGMx9zKbnr/jovUCyDjL+YSNR3U9QiEjHD2/nKtOUD8cdj986ayi2J987H752P1Wxo31qj/j+fHXNC/b9/srS9BRuHH6RAnKtrQg9qHKD4M7L15w9CLpGfA6C7YSgfD7sfvnYmQ0L5M4MoHwZQOSM+/A/wcmh4Sv8pCc05QOcQfZwZQTR52P3zEuDHD4MoHwL9kdAEmxSc91Rnt8nlQfbgN8KGi43/mc6x5Oo9iP3zsfvVgqETsfwmK2J98xLq75ygfBhKHD6f/836m3oh/mT6e5DtSuhwQfrlrjBe60W5PEs7P8Vlgr6oIUq70GYkWOgzYbYn3zEurvnKB+OOx++dNY7mx++dj0goT61YW28we+9mBJkE4+IYcVN7SL340daaG24MJnaMdl7xrsurF5S7STE++Yl1d85QPxx2P3zprHPvnY/emJWxnC+v2fDURoFDowZOzBN9z2QdPfC8xaxMx1Jnv0rYn3zEurvnKB+OOx++dNZRbE++dh3jum3hxpXBskmmHr185sfvnRXirj8ihZtj2msImdCoe1WpkeNJiffXmeT7501jubHqj9Zkz/6DLerXjUCmBUVALXpqcmD9EkVf7Yn3y9ZnZx5t4HFiPPHFzsfvVgqETsfwmK2J98xLgxv2V8EJDiC1Wjm51j58WUmrfcOrv//0L6vf2RJW39AQtTKB8GTBdQKNR6e+yPrsdVsT71YKhE7H8JitiffMS6u+WzLb9qdMyoYE1s9OMVAOu7MjCbE2MMbjl/QNBHVawhIWQm8avs8llEf4LY+TIbYnbx/+TODLgyZwZQATAosGeB5QJK2teMDt6Mv5GocJBQPBKgP/Fojp//rbpiCrzCtgs71czqtYQkK0HGr3Vvg5Mcp020IUcmcGTOOB4Z8GXBkzgygAl/BhVDGpb/X2akEXBLQc5Hp+rKXfh9M7E76MppJc+yq9/zn3qIHPen3+g7W7gkSetCUyQQvq4elozz6VyuE6/00OVEcDpsj8tMT75iXV3zlA/HHY/fOmsotifV5RQJPt6uqY51KX/rQlbuu7QQaAJ2Yl4QJI4Jfd9a+KbuuAUPjSLxfCtA9gk5hsbkdYG/BBs1zlwmA8tPkV3JcSLWPq1g7uzD2q1hZEZ8GUAEwKLNKrn7DVCYIrXbbNrd0XQj1grsqtd1deMiQBcLoABXTBXo9b7kW4FtpSyTqiDchnOjUGwNkdKGkBhsZgNAWE3BiVthEsxMALcO63f/5dWpkeNJiffXmeT7501jn3y/O3B3ZXX2SNJfxl86V5J706S1rmiOkHhIJpGiqF2WhEPxhkaQCjkgG0BPeUjlKHbS5eAG5P4Uhims2gOB1k9Jjq0WKBExLq75ygfjjsfvnTWUWxOwdkJFpQOdZr04kK8uJpNunFKURWfpxNmA8PXpKygOKrdPqZzPsJxgUmcMRQc7YyWd/kyfsaS5oRdcE1jHOsF2ZR/OmsotiffPZOT752JkNC+SE7GuqfAJZkiGTRfMTixf/9OlFU5ulYAV04WqYAOo77NaDi4DeGWP/uPYKwl3y3frsQge4rjsToCtcKs4I4NoevuYX8/LyMcHTf/T+C2CZOIPs4MoJo87H75iXBjhwnZ/Qvoz/woROKAJWMp/3xNnFn3dAnnxqP38G7iP5MsUyyMlPqjZwOnTLCPCXh7VHKAOLZ8Il90PlVzfoqq2Evz5JRLPC6LszBH4JEJNjdDj7f+kKuyCyOs3eSw4Ac6ayi2J989k5PvnYmRMDG/SgAFxkFr2eH22B+juL5eQMcIxtA79cu9VQW2mRo9ndUJ8Tl8LdG3frEqFHaBxCfmladMxOsDox8lnG1Aiu3kxo8IMkAQeknOU8Pn1DTNs56ZjPW7vFgjI1ehExLq75ygfjjsfvnTWO5serF/nbl15vhnyhe7bcVCk5jcnsG/Fb9GTxxDYBJF4wr93Xl6lHcKO0TqSPmMMu6WpgNXo68WeF/6i0DQwhx2aIDI+NdKGOzDgGnSFni////chb+wPN6cn3qwVCJ2P4TFbE++YlwY38YnDRx/xSUP+KXhSvrd7EGnVcH7DTmwQ3oGlgVzEXWUPrOs8a05++H3a5IftIVEXEwec8NtgWsGc6sDzxOXXwGiTnsHukG7uvyS2PmacQEqmUD4N8fJnBkzjgeF6g+aZOW/GmWxjX25dLpqZ30gIcFMKsn7PTjzLqfPAxjEewntvhNiRizxYVSGxxLgTWvrv0c+DVrpQsmvZA7Xo0JqxM4MoHt/OVacoH447H7501jubEYgM+88HYN1i4vNmjZ+4GJkuLrnUq09ktKTB3Tgio09TlxTR6QKL47eneQH1/IrF3wKCabkxYGgXRiqnrxmj9aQPgygc4g+zgygmjzsfvmJcGOHCLsntb6DMbU0Rx5MIM8+nHFsD7nqPoynGFYrrqNVS4Q2P9/zSjr3/4nylGyjD8vVQeCjgum94WTJ4vwnOV63CQExw+DKACZ7w+DKImM05QOcQfZwZQPgyge0r0E9jdCG0013bOV35AwvwtH8D5LGDQojtiDGacoHt/OVacoH447H7501jubH752P3zsetZM5wLVWLW414g9hDFPN/3iZJFLshyffOx+9WCoROx/CYrYn3zEuDHD4MoHwZQPhNlvNqmY2V7pwlA+DKACZ7w+DKImM05QOcQfZwZQPgygfBlA+DKB8GUDnEH2cGUE0edj98uy8GctyID4SIQrQ5ckLJK26cO1FfyhDlyQskrbpw7UV/KEOXJCyStb3+RKsUxw+DfHyZwZMf5V5Fmu7Tq2kZwWzW+lcq7EMSCs1iGeXr6tYv9lnsZ4dvluWQ8mYCParWFkRnwZQAS/o9mSNl/UdzhzNtz46mFX7c08phe8UjbcfZyh9WInpjNOUE0edj98xLgxw5RYlqYqMajrWJAf0isMoioo+er6Nial7aNjkwM7ulDfXJOKNwBh9crYSSFgKc9BNQQXftQXy4iOxpv6NOQvTp550WLb2nNNV8+a/CEI9f+N3lQL87AGfiRrtjlsxuIczKe8K7VQbhEJiZpcsECTpYwtS2/yNAwxYJDJm39QxOUD4fdj987EyGTOBnKDv3C+0r46C7S8lehqAsq9WbDqp2hHPiIxtKH9pZZu1/3yMQPgH6klunqcY64EG++MTmwy8PBxUuqsun8KiN5HDA3rGRaK0g6YQb/rZVKxNXT4C3A0KBCGkl73qRUiEXYZ2Xaz2Hk3Iw2mXusYynoenoVudX1M2JacQFlfJnBlwZM4MoAJnvD4MoIrxRieKzBnzfjYhN41irYnbzEEROx/2YbYn3nS5OebUV/KEOXJCyStunDtRX8oQ5ckLJK26cO1FfyhDlyQskrbpw7S1FwOTFMcPg3x8mcGUD4MoHwZQPgygfBlA+DKB8GUD4MoHw+7H752P3zsfvnY/fOx++dj987H752P3zsfvrzPJ987H752P3zsfvnY/fOx++dj987H752P4TFbE++dj987H752P3zsfvnY/fOx++dj987H/ZhtiffOx++dj987H752P3zsfvnY/fOx++dkUoAA/v+fsvpDeGroJiQrQJTdLg6baQURjuEyCAAABcd5Rqa5GpwCAAAAHBAypwAAADGUAAABlIp5JeeSR+CGX94Bmi6iw5/Qy6WiW7+AeFDv8gqh0EP7oy0S8L+6MtEvC/ujLRLwv7oy0S8L+6MtEvC/ujLRLwv7oy0S8L+6MtEvC/ujLRLwv7oy0SuQUMDt4NQulACVunrdwqipudMPMzZIPiogBIfl4Qvl4QssRWHMJLMvMH4pdPmAZY8vdUUwZ90wDLHl7qimDPumAc848qquBOj8fzvldniFDK2iUy3g5mS8jZUIgAhkAO9/3/G8rZC5vxUY9hK5hjHmZFk+2g+mOqzmZACG0FtE6DFD0LdKUqUSyl7iG0WbosWj9gOz5lclBvweC9KUOkpiSaoAcXCiE6JaKW/VIbzAzGvg64/nzoK7hDTWqswTMoKlwnF1iOW1x7fzUQDwUxG1+c0AA25WmFBrMY2ZEGofKEOaHyznOhcJSHk/WnQQu0rOWVTaWyKnvmLlMh/qSq7/mkmqMmCsiVGtmkeD+ogZbZ2Meh0dNVAXlZz2WWLqcvAKmGaNuc4QT+BSlb1wV3A04l2vNQz9QLlfqvEJFtUFKP1wzveXg8so6NJ2IrvdD6lXtNMragwbQusRAKDPNPXex3QekUFdNAt8FFimDoovYF/3UCPWK6na1UOy2/dKoDRjj3D2ySSt0qtlJxh+sqaim4LJIHfHlgelmeJ1HUAn8V8rHKLKRqlOQbiCWwDTAUR2UltggCA+Xs8LaeZgRjBggXgDCQZ2ErGV/5Sakeo+fOBpJNGY5g/jKOxk1FOeWGY8Ax4LeuY6ShaM2LnHJTXb/Yu75aotx+AINnsM90GDb6e0L3Pu6PZjAf/qAjyIXs+cWTDLjMLAcTk1e/VnKoEv8ZWEeuMMch6xFgml+oJKmefnjaSvcH/zNaUPpO0DlLSIPjmRFWufh9WpbQkLWTNKdFGfR12gQm5LLVcTd1ZTdrVumf2qPTTzfbdIP0RmWeBoUvD1/qtM3ofnkGB0JvRbV8LZ37tdWWteT7YuswX0dSrhfINJXeG664OV5SiCiVXv9GYtsDKQrCs81lYB33OagUJAObiNYi1O58bzRDPbL0CgCJ6w0ROwzxn2M4wptKgEkSraEktkWrzUWXCDkKVYNxqRMkUw1pV3IZGLidl114YqO11BtNbxPFsfQXmAxzB9Etzip73E8bzlelCiLgZz5HCMhFLYEZMoCcYmOEX/ZnC5cKE9fz7RkgtzvEnrA6ojI07EzsgQAiuvXdAwI7yqtM/ubvfa5kW2CyiQYhQbZs71pdaOFLeMSCLyrtJJWkhuzsUhadzYOOCPZeqeUHjHmdyz48Erm+ZfVOMqn3weSXpHfg+SWHGJWOosg3Ota3Ug1sH/UqmTriqyMrtDtfDtX5OsW9qgLpXE/hho5JewQCj9LuyJNIethUCAS1TiASM9ScRAh2cYy39DNgqJb4q5vhOstcE7/noDlepQOIx1q2HPjZJQ2rJgSvFwaDFCosBuXtXaL8GuPekKSr2v52JJcZQGFG4kAC0OyktsEAKiDYyc5bBn3fZo2mj+rV9lwwuR9tjsOcQEkofozy/fgOiHrIPD0PoTaaBa3MviyqkmTYncH/6m2nIMjxi/VEZTiCaHHLsOs/dWNSo/yzsfyT1/6nqy/KIwwv//tJzXuvjPFSrdw879XWOn3Oemk9AS530l5u46aoAQNudOFPmInXN46evnP5SMPIVOLHpaA2FEu/qBCjHQEEQoL9PkcFII12gZSMg/or2zFDCEGz34arDZCpG207Kysz3CnbtEJqUHyAWbjReCCMYk+u4R2fTHKgW2nZa/pBe620K6ooSx3hBTCFKENbc54ewG+WW4xfde7bo88IORmLN/mfRijr9lVym+gDeUeg8AADPhb/JQCLJ57q7vmNPb8U05t9qEc+F54Z04TtRiyCGsA+lTSDgLQsnPwIi2V+XdkofW25ERTUkrbVbyPEYo/Vp7SCzTSDf0BJGuDxc4seTtqQulWNRUqkfMJH33VCopy6jRcF7Er9P1JJx2EPK5UgRdPU2ZSuE9lsGzH2uxhO/X55SLJTFKcvhcJgBRl8BGB+61/svFiG2xuIoy3uswPVl35RKO3QZ8z1Usr9en/G2HoCnfwk2NN4YPUAHybtaZipKsXoQOwfvulY1+ggbxLOdl7e7+vEixiM6qCROKJk2Q0I1Kj3E5ZM3I4WHjw9MjiOUn6op5YKETFQiByWeEOkVDn5VFOOY7och3MZXxv8pZDexO1WDpQbFLLiCt9iOwV2iO3Vk8tD8g/HmynQF0hHqoQzsaGU+aCE7dJdOdZ1PPQ5fp+TgQsXGVqmsIL6HXLqIZHZSW2E5AIQEPHcSj2hFo81qqUj5oCh/qd2hjwtX6EwiwE61zBwcAlSlrMvlxn5HwHRVT7sCiu2npDBsIkDaxHLsElE4HZWgIbsw0KJyvKcut6oFE0P05l9DrbzvvW7k1aRO/UP2xAQuAB7TgAeysfZ7hAGKCqVi0unS3ngG7DhzOkx5+Qb05Z0kARra+VxOycGp6xjWjzDjUKGjxDhIU2WMgocgBxKtRuMLjpnnpBYZFR+KSHMJiOK3AsaZit89umUQ1ItyBhrb/eDfG4KKv4ASV1E77So3L3WbKp6A6miC+F5NitcA+Pt9DH0ge6Ivp0Et0wcr660W9DNrMr+ltuT6JvNcCY02aFHqbmnxcWpo1PY01ZH5xbTcah+xXow7iJi5kfw0f7kjxljd1hyjcQvjCkXt3iykv836ySdBJZCRD8fRPtvCNG+fIDr4bZ/uQN68jLHBNg++igu/l4ktNMkr2DuGN7uKfU063/oPgJeY4Vum2q53hIQymQWLMDSMAas6FwVzcogaX1z0VcvVu3WGq3vMq99QUfdNg4JQIm/4G3us01kPKxI9xgFQ8zR/+4KgEuRHd/Uo5Y5OeXT+asqvKeADecAUBpU3LtlNCA0CiD5WfOTHuKJb4aCc4lNQXcJWhFJH+qe047x9z00r3pXkHPSI0Bu5Od5hh+HXAbrMAlIm1Mmq84RqGwvKXYScFXgVbUC1ZjxdG4bM9Kr6GQGpBT9Sao4CWl6jueu6LJyepnXhIgqgBzIIq57rD6T6fqJd7WXczAanIWM9XMN6MY0DHNjLpJ07mt9p4dk4wxCFrQgVxv+d30wwGzRALrt/yffM/GVRY6WNSMNthIfVcJjx7g47VKxLKhRFxTP4K9lLsynt5raLCokw2Mulx0U71ZrMXDN7es2dhw0VlAH0rH2e4nIBgLZ5L27oG2jCG+zyzcXCvLD8kUvIjZxKzWrp91cR6+9Mfylt3HLPsrY/E2hoxXOtCHdUJudqdiW42tv7TJk81rCALL1mbM8kvoUDwXJuaYYaoxUt5+ptqm92Ljmfo7/ume7WVEr7fKDKbIMWTbUWm+qpS8KBj+Ei2PCThD7bkG9Sk7KDw+FQ10X3iwfHSFeyFZA1Nm9Gix8TSpmFmHcMQPnHfSScNa9xrb4WW0I1FgA9R0vW9LMNmPW+4vwJC7CgDYOw1Pf6faVOxfXhDVCY1aso1iDgVCnB/mEn/Zd00X1C+ciDSLFCZAPYaS8+sUj1tKnZxtNUgqkKjUjt7sRqBkikLVwew6sExJOBfKI2H+iKxzcyrjGGdA90mx+7eQEsRxZe+4AYFoxzHXXAuRTjSvcHFslxtUPlBnRUTubF2/WYub6lBysIlLSKFwtoLK+8KG9G3e+lkdZg8Y0BBTxn4MJw6sbo+QAs5u8uVYBQb2alsRqZRCwfjoSU3ZtWVhXQr9I460o4SLF/lV6IDcs2qTcu5WPs9wgqY5xG07yJLcpTixqlLMfIZ7Qmq0QaJpvsenqotOPZCKP0hY8zUl4m8m5Rhjw3WBuyHJOgwnGZIXGmUwNPqtJZOLYzZMAelgF27U70/OWrK+p2s22O3vtQttmiwBtTq6LdwNiyGU4JxZqxIAEnKP7mRsicVbjljQ+6t/bfTQkHEcWTMmVt4W7piyFWF8tqjHiNj/BpoeC5h85AYDnGPRdCt9vChOD9mZ3q6J3TJhfu4wGnISPXkkKlZwdCDd5hJEwe8Vf7wTG1mVxIs1fQqd2p5RtTUbCEB2iG7a8NOZuZCqcvgH0JL4Okw+ivknQcc3Mq62inbVXpqLdN5zvwMMz0IDWFo81kkjJolvCZF1RA+FqX6xMRTZ7rNB5ue9a97Ie2svuVE5CMSudOLTlB8NUpDqjqSbbHFuPIdJPlUCs6TtIrziyVJ2sBj1rjumanCjhdTjvd0/4/XDzlMFxagSN3slSbJj6uVMYtMmrwjVk4rJKrXJxUrZWzignVl+m95NsusxB+r6uhrlkAXJhj5ClgwoAdwU/hKq0Dhk3jL/6imzOCQF8W6TjW4qd539t+0M30E+z+OzexdMoZ6KOlCpe2+AncVkBanlOHDRUMsFdQGv3z56QMiEzeEX7jsejkGa8oIKqLrhlsKimixxUzE/FmJtdtz1Kx9nuEhbPc5x7HosqEMjPu/0xI/P+436o8qk1H+vd6sCPZ3fRN0rDUXKl4LP/Pzh9tc5NlPOesvGEAKWWfdmtlf0l5/1jPkEbvST5eVjLkb3nQg2FaFZidVk3fF1NwOWCNIoKx0h0/xZaZ8GuDaXqbB070aT7eipW+a0NFZ3yu4no0T+t5hgxvfMCz8PlRHkx7JNLkYYuhUBMSpQBtxiuvmyVklL9+SEzCa2lbFuvaz8wPmZksm388FGstTIGJE8iFqlF9mqAsW7TeqHzyU84DM3Ituw7pjhJ1Xkc1orijb4WGl9SrkICPOOqFiq+dXFwjAgV+O2ZKh1je/bVf4K1OeOQAZBb5V2wWi7m6z5qH/kXKJ+YgIqCSk3R26FkXVsW+430KVgPLftkbbIlN9FNEs1/lWzZIN+/yqhnoPm20muTU2Ktu5lVIGEX12IzP61vpf4M2w7iLxeYcB8gSUDgTnfL1SygcXMQ01Sn8d6Xxe6ELCrY1TMiek/W93FF6eVvZwcxaSD6ED/OnG813UeMmO5mYLXn/jnsCZgzXVoSse5UKcH+eCaApFVfVX/zlt/8RBPiU8RUbfprGq+4A7NcWLGSMXyJNTnyooz39sDZ1pmqaMZLQ/LrK/nm4Hqf7iIZZitZbN6uQ2NVGScF/fbxJUzYsybO+Wgj7tt7u8igTl8NfZpFzf22T88Pz1H4rgROXMGOilDFVoWMF9n6U0t5lvsvOoNxD1M+3Oj6sADXpn8i7Dl1zQ31vdZ/qBH7oU6TNx3Fmee4I5LPcnOWfsnZpFCOF+qzT5M/LDYBrV5NqyjzMj+s7oaY8A40j9Jq7KNd45ttf2JqGHE+7cOPjVDDTiutVwC0JvIE7LFSJ+Rqioqlffjkyk16BFuEt1phqbo7uXwnlvXlaydgXTafqKZp/y6M1+nk8RG8OX8CcTQ/9RRa+kisbgMv3J2U7L6SLcluxZWI4HHLftBdjW9MNFDXYmT+Zv9M7J8ZIq+FV+A3PjwswWuUh9dZ1gDKI2gSQLNEmxDESoPLR82t6sdQtUXkHoZU/0niQr7mbsyIaowRuz/OqaY6/K8ZatvBb8f3FDy49ISRjegKW8rS9EZG6oqhqXMJ3kiyoFUbsxg9dmrAEfjoD0F9I6IB6mPuj7Y71cuH3kDPmPEm9vHppB11wviVowDdWE4a2Azpb9QU8qUbRnQ6KEPaTIGG5H472PM/JUsdRHovt0/d5AFg5+lLiRD8eR1iySxrEMVMvhiLxOpNUM1xEigXcl9YwRt795lF/fjVLFkjXelJPzV4bb1IiwZUhlkQyRG3GuIDJ2vmjSZxSZVX2uP/icE+dbSpVp3lueLtItxNafsyYKUPGYaJkc47QEn7Ux/7Kihp5j1mD/SkntjLnwfCzKV42+OSk2jER+9PmPeSANJ6d07Jy9kFFfi8OY6uH6Odbni5cnmRjiPLP+zklnaiW1ZQ08F8AjSqC34iOwpWZ3dD0P2ZJjhfUpe/PCIJRWKHg6Z8Zj8gcj1UXTaCDrSCo96U2d5lNOi+B4U5f5K3vN2NVgA2SwNZqw5Es97vjCmwMvDopXsnYU6F3YsOZsmPlYAnk0hp0c4vER5UnUHZSW2CFC+lnf7WwJBMaS48YddJbIpi64K9GUMAC9pNYmda1VNDvOoGtBaPgSJc4qv1KRsujuKeLtZQc5Eocj26DOBfbluOLz1WITB07FUIb8SkmIZI1VjFqeVget3MFgD0FThMF3Wc4yj0S1VJSlmVuwnOg+NK2v2V3sKp0A9+t2Jzv0ivEkFXpoICX40zrNsXmP7hNKjRIVsNE3yVMtM4CYjqNUKWYOAAfQ7fSbmfPz+/sp/PZlPTDywmNFqECF4pZe+anEe/fazgiocyAaQFEYFYV36pVJr5YsA9cbgOFRgC9r3x13n+vzBMThoOEeyBJBQw8TiOWdMOMtgFErhlRBNK7LsiypiOyXXbz87GLFVZXysHYK4V0dKkJvCmZ6/ZSFG/Fnxe6g6NON6l1VeAUMZZ+M5FtkE7LJby4r0AHqzO29betFKa+blW94ioQUqMc4a65jNet/7OW84kTEZeg7yUGSGje97jivWeFKke50jxfTXvLKSSTlxqoVEX5iovzHyqbMRT5qBf+s/1slqsLPkD8lLQJ4/lgnb7b5lhdKa86Xuu/TXg6n6GExSCPmAE2i92xiRToe9F8Yu8hEk2kP9jL48ozXMojgJ+FIgHIEQqAfGv22i9H9iXwnjncjgbkSIOyslM8Gh0sg0L2fcX4gGYvMkf0SCcA+oHBoEkkNbSicBtVsHw7N1OIVIU7I/V6tMsw+A5wMx5qDboqmMUfhun5LgQQDdelqAB4CCGfC3+TJCFzgod1ubOggiDff2PfhZZ7tx6ApDsPvZYEcWIB85yoi8M408MjJtg2N5Kx5gsGyLvwrvfIaOjWb3CjH4+xlAsIrSF6A8jSVf9oACk9+7CVCFrDYqDg3EALx/T/rF6DDIJaqNTV9OZletgqco8YmgZ8/nVlVCfOx5ZekOYqZp+GzxxqZm6LkI3RnHN+p5StL8vm/bHaQJCdDJSlWuEKVzGn9EsqDN2aSPGHN7Tba7WfFkEEoAO3vMf8b7nmDptTaXLKHSWTxtXVeXfnn+zUrv7FGUZUiR8mUHpI/lbQQvF5OThlzlyaJ+9SQySrQWNpniW9YqQzWjeN+Ih2kL668uOROl2lDYP91cBrH4HeNRFDZBz6gOdo2QVDp+biwx9ni/O/BeT99qLSALan/Rk7i3QE4PfOsNISLkUUqFyWmV1fgOt+2c0+2xYlPCgmgssvFbmza53wdHRo2U1Dp+8xc4uff9YM0katdLReOfnv9nl0bUiK7SpekJAWRrpG/A+uxGQCfsolyzrFXPT509ogRO8wukztoGq/CXxiNPilM1xcxd8FGCGLOdYBSWqXcihgrLckrQ3VEQTOKK+qNOct3Mc4U5tiPZgXLs3NaVFEVJS99R3G5D9vdO9G7N3H9cXeagfzUn4MU19YTmvOhO588xXxQWr3KQAOJI15FdZeqTIwb54a6B3pwrUnfcT9r6i9SJSqsfCSlVNW9jVXDYdoJjgQq8fQOrQ+QqI2QF7yN/cvSDPkPBcw+cgLK5X07ZmH442eb1YkkDKo/STCmtRonKCxPYSlwq96YT4a4AMge34lSS0s2Prj/sQqZ3UihP8el7JseJYCJ9NUwCYhNp/g1j9e4KMIErMlVe4YHAtvRyOw/yaOabQFNijwGKHdX9C6ZTtuQRqcmMrnWEUwmXaTvfLbnYAEjco+MD3w1HULmhvfHMvQOINRZueSoEuPxUZ25tzG3Z2Q5SHrIJZFOu5wksOTBqRTOEI92EPgh5C0lcdg7tb2lU7HSypwpyeRRuTm4xe6QddxzjJQGneygFgHHAnw7jm9Kp2Vg34CD7ewqZlpbt+x8+2iuxgdPXiz1XOghpXpD67/hpDuER5xNgUrp1qWIJid45eVhYzGOP3+CkKrroJhabOg28asNG6M4biVZ3W4yU09trL5OLz2JzB49zPzJP/GXmDH1ONG1fa2qNsW2B0RK8KPzkR38uEO7/WyhbNDOS0Z9wI9/vuRqf/zjhUf5PrOrqtYWm7vqc+mZsuOFOu1nDkXv9PEUMbgk+F60mddigOoZgvKepSmZfrbmNd1MuF7qp4nUc/BvqwTsLKf2+BN88AUhCmI1nhfsPoad71c08BNy+7ssMumI8FseeRufGd1wseIpoltktaqk9UGuNYhVp9GvcbRQxRkgx5aFdI/USJ0u9flW0Le1zOePm9bMetaUvwCDxJCqM0IBBNNxOwqEl3WkcVRtpy1R4Y9hdBnD2H2CG4spfqaBuNrj3R/As9rLAWi8MpJbHPsgWXgxrEf4dj9H71Q7yvksj3xfS7lAwtwoFkv+Izl4HK+RNs9jrzfYzD7RRWM76kLvj1WdeRWIy6KEMDfcyQVQtjLQYQ72Zmop7TOTYY7s5mjAMQy10jy8P3HsSDw085ptnD2NGA5dsv5XaUsGJAtNXRGs6Ufz+KcZ8Lf5KxLZC0jr8HM3jcwFefkYPEh45ObqCtIiyjB75P0hqT+7Dyp8mZgPHNZaSiO3jg93DPKgA1lLb8cTJL1pm95lzS1vbeeVmVRtC3sOowauySSjJjw9t5g6qzVsrWH9oT8g2Akvo/Kg6hS7zcOA21Z2cMqb1O/KCHGE0R+mqdavtNiOMx1PgcGz9m8VBi+1QCkTolzKOAibbasoLa1RfINFLgMiWoF6k2ZTegov9hCjVMhdUBMQbNAf/1Tpt0HAnDJzx5xFBFUYsH+1V7vXHA2lSwHyvYL4cAB6u2m9x1r2bOFjft8cNq8FF5xyKaPnUmalkj6M9JTy4dIqqqnwcQNTF/PQrHaVqiwp24ELWLrwYwLAeFzScA0CQAKp34DMkj2ozIwIcHUiPte8UuwST4W+oc7w04+lKsv/IswrKAVfbmYVrOIAaYRwLF4z4BTAG+P9mDR94UWgi2LyweGv8d2QB2JUEQezPNQq5kT4kcoo/OKQtBCrlYrsEVNZhXb5W9/uaNE3PeKFXFLZ1qUUnxxYVoQ9q6um+Rpsdnup5zi2HMcTvDlnHXnz2JIgtuXONujWq5C4MdjFqA4YJKQhl5fq7ONjEvwyC2JcgR9vNNvEoOyTvAwVWM47ofZGSu2AAUit7c1TEK6qzG87umOnrvYdtHHlpHM0QRPUDeMuSKhpc5iO35mYcskd5qnG/CtSHq+iFjmGakhOs9+YU4Z2Uv5WndP93koft9J6/3WvikcQ2tsVzc0AHZueEfjsacbc0gMTh4jzkesPa2W7KOHzoMAu/XcVQNXIZfmRhVTOazxFSa4N/uvuLy+Kh4LmHpRLUUM5g7LueDeLf8PTBnPpG4a13WrkyYGHtY6i7oe1DTt9c5Qou1v1nEAwnCOpjp4PYHEOtgdhwjmkhuTU85sCsrjTUi7flYPYIM9qHH1W+6h6zGEy640jIshkQau3GnWq5Tn/44sswHroAjKy73zNdBj1VkX8saMLTf9TWqNUd6NphGF0uW68Mso8Sqn/5ElvqrytFhClPi/sQ3LJ70zf2+p5XXp8TLzT8g2ZNXlZqQLKTajHnPlTdVleYTqA6ysRBx0FvXr3qQvvJ7xbY3LDmKDcKvma5HYyst+96z5Z0qPlPfaa4C9n8rcd60/kRp9YJ2Zg+W4A+1Vtx9F0o2RMsb8zXmg2UhfuVi/08sx3oK17H9CqDzrlBi1V7TdTIwGr/rSthQJOqFITr4433emXgzCgKfFmLwW6CBVrxnv0bshkjxeHJ5P7GczmBWgl6rEiF85FFD+8J/yXhyJdyqph6JA1llN/+MM9WXAhKX/POxFJXwFq0DUFu8BuM/rfKtQbUXV1YwZnOvEeFS+GZD3Fm7LLtO2YWdo8oqoCr+cbvFF4aYNSW2m4ABRmDaobbvuKqKL3byqXIXbZjiL5wVW3ECc2Mf/zhg55y0VDw67SAMKGKWNA75RZ4jmG+/JCdGXGctyfEw78OalCCTrCV1nqDxO2jisc8rApU2if6TXxd94UM0hdraB9J+v9Ul9wMMbY6vN3Gffw13iB9Km/Ln4/a/vtLk7SD7dPkgAejBXdWF+qewCQ5rrHUrH2e4nIGKFQJb3BBo1jHvgqk8aGxlxN5VtYgCResgDRiOIxcca3BEDWnCwmxKZJDhnUs4VrzgCRXc2DWxp/Kijqk+0GJDKr7D8L14ikdZJrICttwtilchqE0V8ER4EzXDu7Mkpfv9fH/omssGcVfV88sE9ywd2u70kdnD+9PY2uTV1Fdzid5ILPaZLN0MfLQAjXLjdckr6MyKxJssFtYZV6D++BZKRu5s6LhfOgQaGwFUN/6PzdQ44kZ9yydlXj9FAmx9khkEQMaCD879tfJ3AyOfOGTl/QxkNYKVCFG4jf2hnfTjvgSwIustSvYXuoLTQ/+DETeXfVuOTpcjjaB2ND+Pgcr7b/XgJa54OQzs+fMfp7usJHtcI5/mDjJC+GrgQNvTJzoPPJV79TGmGjrdSpV9ALQ8fRhhKyRih/z2yZrsGlxoRhsF72gKGkBfxP4harIuP4LUuHZm/C+Sxa5tjpdDKlmBgG4AAoC9W6l7TIJEToCCa1UUPONXxE+jY5Q0chtAa9uuZyiqq9XyKAwlR93U4bZbnpJt8ULJOSNsT+Z4cB94wvLAiXtccJcdtQs2ZmPMtcbt2FIhrE1J5r9YrD1pxzOwxMwY7bvJpczRPIZwl0sissIIEOs4glWxxLQvhVqtnAddiWzbwLxAA9Z2szJ9+gc5cFQE4lbM+4Kfoh+X13YSxn8P/1oNnQGYzalHurqIgvX5ytOw894fMixYKpUOpvcBV+s0wWl8ofl3/4BPp9MKmlLSvIOopP/Yoo1Wn69meDovOPY0YllMW/SDAKQaYhldTfKCif663HyuU/URU469T8H04edya7GphsHGbUnN6CZWqed9ZVnVDi1/Q1xEraMhdO/Qir2Ugef9EYTh7rbR7vsWI5eeLwFEvIJFL8DGrGPUP+YMf3DZ41wYMOezO9/1S5SlWH63OyktsEYH39jRusRQqRdIqBelqe6AKWTbJElokv0DXHKhSZiKJPR++Qrq+tNgquzjMRTxFdmbMZvk+912G31IvOCiLFKuh86sleUWi8UoHSdOfSrYsWX0mZKXPMdtLb6R5SS3vBGksRqB09LsG5tQnb4Bpde9ilL8hm31JNDmhSymd6fDxuEE+YN8Jzs6gBKu2qsZ8cyx57tsqORiY34lvzI3qlnsgJ3gaiO6vjnXG490GFhPGHKJVRqkA83hVGZ2sZxVef5O7DjteOf3Ijzg3id4ROreOklX9dS6JHPVA93A6v0gfzuPiU+96G6J0hHidTROFTSLgrpsTTIdxOtd7J0zY4tFGkYXyOBNjI+VyWk7Q+N2opkVTWmmGyr59uUxSJ7COby3IbGwAIi1MMg0ntOtoI4XJPPtLSqDqa3PMrwQorAc4mAI/ll+zbM8ARyggCZRJmwjCPSTfxp0lTgbSlja7FgPY97kVYM7TT8YLLOnmdOPO//und6l/0OthvqsPs8vIKaimMfbK0MSbsZQIxowNH+SsL9RQ4ID6kc+AWSBobUw9a0jGJAlGpHKxegdzhqF92EvAgWEZ/bxRjjbpDIGsueS0RGSh63jee66qzDW2fXTTJGiuTMZKAAf2bQUkp7cUpm4rtxmf8q67IKifspwWPogYEjcxY0VuqI8fvx0WsP2tfgB3REHleuDaBLx8Lqs+wC9jkq02UhyC85E7gs1i9P9SsEifOAyRUNgAlqS9OOi3HhXx90+ngbsePdG+HWHPXuZmnqwygh6S1fxJYLJhhiZw3lV81mKVxtkuN4AI9LN+2qm3vSg/UH3QM3uHrvRvH7VXQBZOEhxPFz6BYi+E9KoYqK9AXnoQdSpRK5nrqdx0qRbiKfDB9ZqmerJ4nfuaRlrvAhNtW3QeHCpj/42DiIj2Kg3e6IILxwrkQMSNffuDRLsxatv0koQWdeUaHzVLssFj9/UOpQA/EjLORh7+qGujooJw/xwgP/lP7pd8PC0euUp7oF3xsgY/YOb5A49de/hw3oAGpHs4tsZSGzwhiX9sBYkDcEuEt5mAzXBSVKsAwc84JZWvB3IPESha0N7aYVjUxMCk2hGAyGL1TkfOAGmiy4QcP1uVPvqeloqYT+/TCCRDiCq4Wl9m/GggtMaoyovQPc9PjFUhmH0jF+VX3hMg6/zQA34ffdKBodQ7TbSpS5E9lC+mtgOfDRvwK8JpJY+efdsRiqqaFXvijkk/200EMK366dQ4ZdI5Lvvf8m4umucko4t+zJ0vNiNiIk6vbBgjXOYj5rf0gAv0HXb1Q3kE3fuxYd2EdbRqbwhmjlgOH3y+p+bOq509TxsBwMehC1RtTh5AG9Dj9pqNIIMSkZYWDLkVX04iELZ9y352zoVWFYGJOG0IiUzPru37F7jw/IcKki9gD4wltj+x9htufbTm9jjzxmXm08yAvSx3Spb730znulen0SVJkYSawSrCg6NZi25FDekhVTlFbzVyAfjKB8GpjRZ6X4A9pZRceS78aMXY/+kEbnJBXiEr87rc946fTupU0CNKzaFm4XQtEMRBz9yeNXvsW8tMsk/FyvDLC9Vlu0bsMCyiHTGd3Y6eYJWQ4NCi1WEl5mz1G5XHVTTYh2dCPzlXDJAUJ/+gBF2iZnB3p0VIJlSX1iqFI7OMp3OyOSIXiGmLp9fzEBP/hZ1Zylh8SDEDwDS9izK3zTd5LXot+7qbk6vKxB3odctvKdJ3TWbj/ElnOphNx+WJ/rxI/d/25vJJU8ETFAy1w9SXRuecdq1iKXugFbZAXT0ctSIqYYmfMaq31+NBR9qg14OuDRz4dZwyG7RNDOWDmmO4wiawK6Z2doYGyILQ4I5MkI1Hf3ck0iHrVxYnOF6RpW/HMZQ6D86uG3KK9RM16Bd3sxSHgGYwngNmrsS9+1HBma41FsrUTD5jYyItMnM4h2RhVZvd/qOGzOBXffzDBuqNXRn1CHCrkwJQdZZAF0DB/BoYK3aAVleYEbMw076ISHPvu8jEcASavk8eGY0p5yDNfBxeCpP0Q+XpPI4r7/AnPnwLswguQr9zsKtVCtuL+NS7JsF1wwf0duHBJE/u64lya0E5gTg4N+OC8rBtF5AymQWLb1VhAjuroc1CBYuzV3gflcB9N+m0NZ1EhEhd2hcFjtAuTjAYdNp2CkUbN+xJqYGJimXX9EEd0hR375eG9tRvRol21olGzwZZsZ7+1lXvkbsbA4HOpFPCe6FSOX4eYfDBo7vjL3sBBn0yHfxWH/okXORyH4i11kKDb/69O8xto0e6Bied+YsiJixBgR5ZdpIHV5GOUDDUY3mD8Xk+VO2XimQqydF+X9C80JqofBKHVXkQp+JFGeuEJsTNwNKZMkhfrQqgs+2bSwbAXmibyjqC7f8PWISJ87AhHyCD/015Qu7BsOqNJ5bNVn3CbYSDpGbrrb99p6kbNnO2l0CKmRCcuNaLWJuT98ByTaCBeDaa0L4BntwGcO2TINGNxCnp5j0BUU0dDQ6nxiKoszQfrKMK96vaTxIf4hAFAnnmQp7Gz8kNG1N7EjFnth2FxjGCeJs8ZCFdueZWg7lYLrjH/jzu982DgV+7ONvOxa+TUnkMEhDHam4cCfxpF2aZLhyh4HRjaFWJj9ZH5NT+kPhzX09rOTTgdxhNtWZSFq5Rwl0LXzPu0o3EkqRIJZ4djP3rrgHEKP7iLiUtYmGZFGSTSNIT3qckBx+90TrJ/BUafkAp0zgrz7gqdBN4oIYOWaZcMtMAwlaCjCqEiS4rPAeTSn0TJMP87Svo+dlTLIarPpAb+N2ChsDx3+TqZmmHqawBPCfcuTjgVWgPtkchoRYSYKjjT3LjVk7WC2B4IN9m0O8sgzK17+kAZIBuAAlAD+QFycMuXsRNyG8apZthkI3ZE7fl8lY0IfAU9iJbe8uMJQVJgjlQ/hGHKdIfePerVgPsoV5BYlek+h76mbDS6l+58/WDCFX9xo6X9IXG76dIRps9/093AeCZ+1rKv3OX62SdKqCAvgCrB6OBy5Onai3fL9yebPMLcRSfBYR+JMij5CHoR98YpnOSFf+sUVJf07IibM+Fv8lZLhd/7xWz3SsESVfETT4kB++4YP2ZmLlTLvip/WLtK+IqNKEsw0+5L+bwhAJJCwUsDulQ42yPH5kqju5ILioIyrdNg9Zgrnb/dvMW4G/9wurH6k28QyglP5jKzhmxCPsex4GE6kaCDG1ex0LH1uucbUh0oz38mlhczE+ZrQEgSCqcHWNNHubTNcsufwmoEq7WgD0JLFNpSAlKQF+WSQikSRpslZzzdd3J0T+lvqYdobZiwV/iPANyzCsSIcgcEVeg5JTidlKoWm0Z/mgR+vuO/UAMYL9IPPGXnWkLyXCTmQKb8RJfAy4x94yD9eJ+fCnpL1fmD898NUt/tsTfzefMLx6RWS5einjMlhNDtmj5SmhAVn6g32GzKWqWuawvsaKuAcHngdUecn/S+vSMLI7g5b0vPOo8wWfnCXVUiGHdFEzU2xd8CrD9kRuRAFGPu84TcMwoUYpXbud5IebLybcPOKQweYr9JoIKrpFlEOGc7N/AJ502D8C0vo4Uk30GrP0lO9goUVKzSfhcFGqDxEFdbcRmc0Vk2kXo4+oQekbeA8r5uYGjkZK+i3xXMkmaKSNgmt1HVc7fr0rMJc0/91CAWaJ6ykOoLa0FUmA5sZKtz8vu08ndYWoBHHrBy6RAd7MDavOqW7cBptIHzg8d67bMEQmY++44dqcrAFTq+zqu1K6nAhA9C0WrrgE/fTQgRU6a9mAMs9/6PG00Y+RHdbpzWLvipPvxTfWx9beSeyRXqUclEmUKpERzNJQZyb06eHDOiW+qlO/hGSv8mT4CEs73GgAuaJcdjNiipJ9T4yLgtQ6oNNHoQ+8DuGC5TBdJlpMpkFiznI/y9YzQifLs1wPIsZjzoaHIFU+9SLJ3JolgZgbsHTz23DujHfTmFYvvybtNhOf/zPZW13w1HYEcwJ49TuKh2jYpbAot8Gh9pL9KgMZ19ApGs5Oz+qnN1wTbV+13hXRvaMJ6yT2wQKAMxG9JxS+ci1TmbprryOkPYu+T35tRKNeAVfmqCQbRWVAejFUO73LGRjbjCI3WGqLoijQj07ubSnXAzIbhVp2cwHthCvR3E8CI9J+80+TK0eQVQW1Li8zaupWQjvovq9uMM6AxewCQWzN099AsxwZRW82Da13skKj2rtJWt0dWiSRVj1RLQh/ywEYj1RbKD7nMqiA4AmJD5lUeQjIxjAImYeEx7/uTQgvhbjca2loNQeFNMG/qUpHCaC0WN9NBGx8R9hbSRPNhCVVxkczDXIb5BaCLc48TvepXKUZhQsxiwpY/+VoEBM3FbuOn1xG4/wVi79TrqDXyE9s22Lq0ldeC6QVRceZlTLOlf8SvJUhd538X1BF1Hnu1b36xlOfVh9exsb6BfcWm/wjh4B9DXspiM70eQR0jOUmmcz50wc2up4md4zZ84ZXjvoOSkw+h0zBJpiNndadEqWaRGQKCAqRGAID4BXapR6u9d+vQXelkQUz6JRCjYSWxe2ABL2PrQPxLyvoEosdmSwQg7CIUZmCR9syyZvVQBHqzgcz2nVtoFXfAdLO2Ndaq/Qb2u5e6ToJRgHlwMJUz4W/yt9eb5fGhDkbStwC5+W09Ph5uGEDinKmEoif9ONEsOjp1Qh6ifu4UmzhoVevGqg5VdJ/T2GKPPUfj2tuXuitDsmOvnKdzmMGkyuKg73ESrl/OEF36arA6CqQVXBBilgOE+fEn/5aAijSBkDH9lJ+NlY+5zm7Y55559pAEf2msnFHX2SmRKG3YwBxhSerm+dAR4a36iEbuJIXbfDPfrzmNItT2RqDZcYDbWyAWSRm7XqsZSGcRHO2xeo84XRKHpYJv9DWdyrCmSXSEMS0AhSebtlO8T3om1OPBUIVbcps4sFjecolbX3d/0pnjEKHnO57Dr5NbTXv3+xMkHPFtKDHzGzXObkUJ2S37M5D0M+tRUHwSoMIiwWfA6beK3Ts37vEx2nnMQ1NvDEC8xld4QR87LO7Mdaa7LYqOyRAcHoYnsCcnJO5x0zqozhNQ7+Xtzk8z/bu/OJFow+cQybI7Mbi3Nw0M10dhsO+A3GaX+kC/MyLsenfmsvF2lV6BTB+khyKhXA0Y4Pr4ptGhFD05laluX0GC8bXoNm8FvyoF4g5IcB85Vm0b9UB+lPqIuXO0qePgmMR+oz/82zh5+w/8Ihc+edyYdJS0+3cyW04MfZ1y3vVy9Ppt2sdhWOkDd6alXEDMD8hUFw60BrpkZd1Wi8s5G0ew7Fe7pyKjT6ZQUVdtnaUYuKcYIPVrAqtdpZ02blgFqBBaPEa4J5TkjEYZlZAIq8nLx3LJVIBCGUyCxZjSNuG9p8BQxTyz8E4oIQquk5m89Rf+oOCScM8iVJLS/SgoZCssMHfS2qB/L6OFi9mt8Nk+Mvykm3Ec8xGZSO4RwxX4zuAuw40WihuvQ+s5bSUWBQOcL8wRBcAcbpUUpdT+DLT1NwPOLrJ6qJSpql4UktlUzfgezwdcnP1GksTEMb31hQr42uTniuuHxLVQa/9wIXT9UqxWedbeFRFMlXCn7ETHoGIXJ4NNeIjneEb5UkrbHbNJscA2jDiGC7T8oq/O4z7Pu4OzgxWGA6J60H8yTXyKXsUpsCq6umqUjEAGOx6E5V385JLsQy3dSyLV+kz/zDvB+U0y4TtdFI9FP+B2wjRpGpcqUJXVs4B79hOW2+gWn+CVUuo8mtkAIWjllbACTv9HK4N71GiIMFZsOwwrd+9mA1yj1UMFzPVYYgMeX8WBavuhbPvbONPdA3VS2UdSZewBcjaGGnFyc+bG70VXhYRPPouqO5a1sfWjmhUpSI8TqbyqznZLbS0kD89ms/I+658epshYLModZSnN95XSh2jzhHwQNFwxpYL2qiJM4rFYEBcxuv5UjyWZkfghH9cwF7cG4y5Fh+h/sud9E2gayLEEJgTRxOlDmn/Ujv6KoYkl1I35wDikloAbdRnU53mbsUtHj28+0DiDk7W4TT8zO8G1D8nzzRhOZoZIFQmFVEcAZKLLhBw4ACSiscb9Q4ZyTGO8eF0PPOLuUpOBOzMQmStN5LuziUUt+XE9juHxHKHmC2+xR6mbIuA9utPjneRqIFdourGaLZwbxBxJT2WZox/xALPsW7YmPSlCrf2yPUsE/8xobeCusTHaqVBi4AMvflcPD1DtvGFj+5qRhGK+LCHeVouJwlz7BrHs9+sfZZ0qCGt1lmPovCDtuS/bnYsSQ16DBF/c6Tel/PVhlE9QP2NK9gZmsz9gbIyfB3QbHksayuyjEOkKvEC2ImhWcbzutTyoV+MlHAxUMJkkxEjSsyEhhTtFVTWv5hfq8AqRDuMJB6elKGQi87oK96xH2BeIeC5h85AIHglJJtZkuXasrtTNmMrZSTHx1zX5EoBvvDF6DDw+0JERW9qy9fmwv+FUTpYhbNWvDHuLockG5RxNbDhns+la5ECq+XWtdhP2G9hm3lNdtySjJsCBvtq3e8Y4w3IghJvxsDMHRqwAzZz6jN4kDAmjv1639Ao1x6ajmKdsYZFjTH1fMU0GyvF4xqYTHhDKwhjKTgbBLPNooYepBR0PHWdO+L1elsKFDcC9NMF6haVFptWcf2UXi6Ql4sCjJ0s48xLxDo5ue27w7ZUD4UUYqttNFtUjZsLHOIko3UQJ9v0rQC+dX0AvkWXCDhwFxDyPBWAFaR9xYl1GwzJbiDAHuZRnWpZ1NCY4GJIWpoTZosJs/yQAIXg7lQpwf5gCm8iAM+GQcLu96lecW5bl9rBGaqL4h7OxtbRh3Kx5VmGX93kHnHhkDDbHyvV40naB7xe6k4zOYF0WW92Uwg06xabWnCiKhPYRCev3Su56URT0oinpRFPSiKelEU9J/o2mWLissXFZYuKyxcVli4rLFxWUqMyq299y6eubsMUaDk6FSIuhnuAErdXQk0+mO25JQ+4tljWiwMTTaDTTbCQP+QV4W5tXGaUoFaQI49+fMFZTna2+OIn4R4Kh4s3lTppjPEC1Isv9u5/JmOsJB4gWpFl/t3P5Mx1hIPEC1Isv9u5/JmOsScZdqC4ZCHZRBfynCKm7UHVUdqYx5tUyhLo8nJbJBilRobL2u9JsK5dZ8dSATT/O7hbF8T/0J9tivp8jPbhmRzUaHm1XEHAiOcdviSbiW56z1cZgXipXfVcMjECNBXTSFPQTySj8YkAAALkGAljkStdHWUG3mcFsZ5FUCmKn4IIaLz64h5sLuvgaWGmuhKcDBJtSv693swY45L+LnwX0Hh6MSS4nwTkjZ7w3r7CkvElkkXt7uFDna+MkmRb4FHKed1k4nm2kci8QwIZ33xL+Cq1ZQM7FWVw3Xz2gS24QihgSHx5Z3d1WP3AqCrRvW9xovXV83Yr/WzE+wZxYFuNyWObP8CJf20acXXcACKSZUCP+Q622CsPveBCN7+C7R1xmch2FaFnnEcZFB6txfJ9jdlC2DwRLVvsW3cdLHYzj6PSGnH098wjp7IB4d9EdEGxpK3swBrvH86tr3NHvSp6HH/Mxxw7ETESqK8U0t+s5ZNSK3c3+rKPVi6i8Mn1D9Xbw7HdWrVNNky1KxQ1zJfoFTMwTYwkwN1YYNIQF7nHL8kBbarph6ay+5KVactnvB8Zc9tJjCOlWFAcqJ3N+LXMYOCIg4+2te2L5h5w6hLCVBq4UL6qR0egeELDmZ2CT0Jqafn+KSBd14/6t0uHbkJ8EW335vIfnM39ukW/821OyXH8PceZkz0srKRystiyFauX7+nphVJx15tyrp7IdT7NMIGCpzejaC282+FG2OI9sDG7nuOBoK0FAg+vHX87yvkYhaLbZqzQuPRnJmeP8xmQBG4eUSBZQavASKnIuk0mPRFcguKuO6SVZLtIjR6kbK8QE+RcEic+Q1zoXXZY29Ohj8jtIb55DJywrNUsSAA9G8WWBDB2YsCUnl5tDSb5GfvvNWpTeUkwnDPFJYwPLK5mctd5LYtMshqmt0A05ZbTxK/Q34g/X+DnZzTq7Ja1fOKW2j2JT0HjlchvMOKW/Wh4uA/NFc80BhBCjqAYIcIXl6/6CPsD81etv8PpuYbAUEa6gpGkIKOfX6SrI3tLVj/vr+0qf1rJ7KDJXrra8ENtqz0BiAAEU7WQXBOK2KSpO2mTkuH95bupYrUPGPluraJ0/tgYNLpnXQoW+LtACd1Pv/FY1XaNEhwtZdtfiqb7SXHyhdqEdV4QEjHL4EDIEu1bsAd01tQM4lpGYeoLOvxQ393MgH3+hZJs0GGsMhY4/M6jzkkzbdPCG8ZzVz4GP5aIcf9EdeO1hajsl9OAvY023nIkn04uxoqHyDAP3VpVfsOamlOkdCGj78SEU9uHT3oUH5qf+uOPWks8W+15g1qbMvW/8DLJ819Bku7oQVzCJttJYwt3Upz6eCp4pE7Iu1H9L+59Vg5kIuflCkLux4lqSAMCNvW6XUBKSqx/37Zc6+Mi801gZxuRL4yk/HIdDcH1W4biWR8JBDL11NlGPa436/VqbjSJ9fiF5UdWHQ4QLkelDNOeG0G7RvtJVB7pEx0n6zM9TBfSxZ1Or6alFwM/2pinIEh9QE2ID+1yFRpoWAGiLKWgZ3ZImmg59EVSm0b5jwB1BRB5zpPHsmbRJKB7enfOEmoWPlJj3PFDaY3ZiMDwnpTIO01UJDvtaXRHvi6oM3EbOrZjYu9EBqeNxwmkkWAbZbZ+doiLI/yOddWqdewZV+DJl6eK2rqHx+DbzOdnQADYdPaIZpEufgYHpJ08MLGZBKEGbInaK1/RWzJqTmNhA0adMmSGHnTsLvKy2RgXRodjFPXUVlJL+lryoalDMgJnnkm9LU81aC8cpd/ZHsQ8hczlMPDM1THvXU9JFJ/k8GsRkdkm0lsRc45W7c/93TQdGz9zlt4cRjCM3TH1CsiuzZstyx6WUJphZgc31VCf1YV63nFYtU5EN87CiavAkwoZ8VUMTu6ORBrJI1ThLEy1fb1SxrNZsgGbMS4Y9EqlK5zNkl1UZbkxL/taGbnU+YDw73REdwXejcq3b0YKW73i8rr7D0B0lWwHEan689XFJspPds0/TjIyKxbyq6H+8DqRS+FcbAEvBO9cNP4/sWa/nqwIQFjOd217GSSHtqJ3/WZNTGxEx5nz3fzHLb3z4Q9Bb6u65ZXPSQWEZruN4gNFAX6jFJHe7/NB9oy9sR5PhTWvTIlAEKMUD1h35MfRBfNvlOLsM6K8dzHWV2JGO5Po4qM0nLum8ghg8/eTnYhcSR8SzIa4Q50uITUbNppe2ulSZG+J9FM6p/PDKaROnrY7NmG0bwgpeKm1PUEvymAFdKg9rI4kMJQ92d3NxQfoxHDum9l3JANGNUXGl9tPcQbcHgJD7XJ720uuwY8JUqyWi/zmSfkoeZ0vuCVIIwAsAgABfUNc6AlqmPW+nh81j5rRn20KPEL8ZsCPfJkDxG3dhUVRKejoQXuLkhzlOL3mibI8X+eWV4T6fzrHcQlaAAB/3ZL1jAkto5o1WPZZOnpoIzvNN1ve6Gw9lAAAAqKgAAAVBwAAAPpQAAAHsoAAAFRUAAAA==;clipPath=inset(12.45% 22.33% 23.65% 23.67%);" parent="1" vertex="1">
          <mxGeometry x="220" y="81.7" width="267.54" height="292.3" as="geometry" />
        </mxCell>
        <mxCell id="8idVusI056MpJdviH8Ap-5" value="&lt;font data-font-src=&quot;https://fonts.googleapis.com/css?family=Roboto+Slab&quot; face=&quot;Roboto Slab&quot; style=&quot;font-size: 56px;&quot; color=&quot;#004c99&quot;&gt;Docker Compose&lt;/font&gt;" style="text;html=1;align=center;verticalAlign=middle;whiteSpace=wrap;rounded=0;fontSize=42;fontFamily=Robot Slab;fontSource=https%3A%2F%2Ffonts.googleapis.com%2Fcss%3Ffamily%3DRobot%2BSlab;fontStyle=1" parent="1" vertex="1">
          <mxGeometry x="360" y="130" width="810" height="30" as="geometry" />
        </mxCell>
        <mxCell id="8idVusI056MpJdviH8Ap-6" value="" style="rounded=1;whiteSpace=wrap;html=1;fillColor=#dae8fc;strokeColor=#6c8ebf;" parent="1" vertex="1">
          <mxGeometry x="540" y="240" width="450" height="230" as="geometry" />
        </mxCell>
        <mxCell id="8idVusI056MpJdviH8Ap-27" style="edgeStyle=orthogonalEdgeStyle;rounded=0;orthogonalLoop=1;jettySize=auto;html=1;exitX=0;exitY=0.5;exitDx=0;exitDy=0;entryX=0;entryY=0.25;entryDx=0;entryDy=0;" parent="1" source="8idVusI056MpJdviH8Ap-8" target="8idVusI056MpJdviH8Ap-9" edge="1">
          <mxGeometry relative="1" as="geometry" />
        </mxCell>
        <mxCell id="8idVusI056MpJdviH8Ap-8" value="" style="rounded=1;whiteSpace=wrap;html=1;fillColor=#dae8fc;strokeColor=#6c8ebf;" parent="1" vertex="1">
          <mxGeometry x="540" y="510" width="450" height="230" as="geometry" />
        </mxCell>
        <mxCell id="8idVusI056MpJdviH8Ap-9" value="" style="rounded=1;whiteSpace=wrap;html=1;fillColor=#dae8fc;strokeColor=#6c8ebf;" parent="1" vertex="1">
          <mxGeometry x="540" y="780" width="450" height="230" as="geometry" />
        </mxCell>
        <mxCell id="8idVusI056MpJdviH8Ap-11" value="&lt;font color=&quot;#004c99&quot; style=&quot;font-size: 37px;&quot; face=&quot;Roboto Slab&quot; data-font-src=&quot;https://fonts.googleapis.com/css?family=Roboto+Slab&quot;&gt;Container app-ui&lt;/font&gt;" style="text;html=1;align=center;verticalAlign=middle;whiteSpace=wrap;rounded=0;fontSize=37;fontFamily=Robot Slab;fontSource=https%3A%2F%2Ffonts.googleapis.com%2Fcss%3Ffamily%3DRobot%2BSlab;fontStyle=1" parent="1" vertex="1">
          <mxGeometry x="535" y="290" width="460" height="30" as="geometry" />
        </mxCell>
        <mxCell id="8idVusI056MpJdviH8Ap-12" value="&lt;font color=&quot;#004c99&quot; style=&quot;font-size: 37px;&quot; face=&quot;Roboto Slab&quot; data-font-src=&quot;https://fonts.googleapis.com/css?family=Roboto+Slab&quot;&gt;Container api-data&lt;/font&gt;" style="text;html=1;align=center;verticalAlign=middle;whiteSpace=wrap;rounded=0;fontSize=37;fontFamily=Robot Slab;fontSource=https%3A%2F%2Ffonts.googleapis.com%2Fcss%3Ffamily%3DRobot%2BSlab;fontStyle=1" parent="1" vertex="1">
          <mxGeometry x="530" y="545" width="460" height="30" as="geometry" />
        </mxCell>
        <mxCell id="8idVusI056MpJdviH8Ap-28" style="edgeStyle=orthogonalEdgeStyle;rounded=0;orthogonalLoop=1;jettySize=auto;html=1;exitX=0;exitY=0.5;exitDx=0;exitDy=0;entryX=0;entryY=0.75;entryDx=0;entryDy=0;" parent="1" source="8idVusI056MpJdviH8Ap-13" target="8idVusI056MpJdviH8Ap-9" edge="1">
          <mxGeometry relative="1" as="geometry" />
        </mxCell>
        <mxCell id="8idVusI056MpJdviH8Ap-13" value="" style="rounded=1;whiteSpace=wrap;html=1;fillColor=#dae8fc;strokeColor=#6c8ebf;" parent="1" vertex="1">
          <mxGeometry x="545" y="1050" width="450" height="230" as="geometry" />
        </mxCell>
        <mxCell id="8idVusI056MpJdviH8Ap-14" value="&lt;font color=&quot;#004c99&quot; style=&quot;font-size: 35px;&quot; face=&quot;Roboto Slab&quot; data-font-src=&quot;https://fonts.googleapis.com/css?family=Roboto+Slab&quot;&gt;Container app-database&lt;/font&gt;" style="text;html=1;align=center;verticalAlign=middle;whiteSpace=wrap;rounded=0;fontSize=35;fontFamily=Robot Slab;fontSource=https%3A%2F%2Ffonts.googleapis.com%2Fcss%3Ffamily%3DRobot%2BSlab;fontStyle=1" parent="1" vertex="1">
          <mxGeometry x="560" y="820" width="420" height="30" as="geometry" />
        </mxCell>
        <mxCell id="8idVusI056MpJdviH8Ap-15" value="&lt;font color=&quot;#004c99&quot; style=&quot;font-size: 35px;&quot; face=&quot;Roboto Slab&quot; data-font-src=&quot;https://fonts.googleapis.com/css?family=Roboto+Slab&quot;&gt;Container jupyter&lt;/font&gt;" style="text;html=1;align=center;verticalAlign=middle;whiteSpace=wrap;rounded=0;fontSize=35;fontFamily=Robot Slab;fontSource=https%3A%2F%2Ffonts.googleapis.com%2Fcss%3Ffamily%3DRobot%2BSlab;fontStyle=1" parent="1" vertex="1">
          <mxGeometry x="550" y="1090" width="420" height="30" as="geometry" />
        </mxCell>
        <mxCell id="8idVusI056MpJdviH8Ap-17" value="" style="shape=image;verticalLabelPosition=bottom;labelBackgroundColor=default;verticalAlign=top;aspect=fixed;imageAspect=0;image=https://streamlit.io/images/brand/streamlit-logo-secondary-colormark-lighttext.png;clipPath=inset(15.91% 33.33% 53.98% 33.33%);" parent="1" vertex="1">
          <mxGeometry x="910" y="210" width="132.09" height="70" as="geometry" />
        </mxCell>
        <mxCell id="8idVusI056MpJdviH8Ap-18" value="Roda aplicação web com modelo em produção, usando o streamlit" style="text;html=1;align=center;verticalAlign=middle;whiteSpace=wrap;rounded=0;fontSize=30;" parent="1" vertex="1">
          <mxGeometry x="586" y="374" width="350" height="30" as="geometry" />
        </mxCell>
        <mxCell id="8idVusI056MpJdviH8Ap-19" value="" style="shape=image;verticalLabelPosition=bottom;labelBackgroundColor=default;verticalAlign=top;aspect=fixed;imageAspect=0;image=https://static-00.iconduck.com/assets.00/programming-language-flask-icon-2048x1826-wf5k5ugs.png;" parent="1" vertex="1">
          <mxGeometry x="950" y="495" width="100.94" height="90" as="geometry" />
        </mxCell>
        <mxCell id="8idVusI056MpJdviH8Ap-20" value="Roda aplicação web com api para salvar os dados no banco, usando fastAPI" style="text;html=1;align=center;verticalAlign=middle;whiteSpace=wrap;rounded=0;fontSize=30;" parent="1" vertex="1">
          <mxGeometry x="585" y="640" width="350" height="30" as="geometry" />
        </mxCell>
        <mxCell id="8idVusI056MpJdviH8Ap-21" value="" style="shape=image;verticalLabelPosition=bottom;labelBackgroundColor=default;verticalAlign=top;aspect=fixed;imageAspect=0;image=data:image/png,iVBORw0KGgoAAAANSUhEUgAAAhwAAAItCAYAAABy2KN0AAAABGdBTUEAALGPC/xhBQAAACBjSFJNAAB6JgAAgIQAAPoAAACA6AAAdTAAAOpgAAA6mAAAF3CculE8AAAABmJLR0QA/wD/AP+gvaeTAAAAB3RJTUUH6AYQEhEKRTQsYAAAgABJREFUeNrsnXd4HNXVh9/dVe9dsnqxJVmyZLl34wrG3WA6hN5DzwchAQIBQkgIvYXejSnuDffe5W7Lkm313nvX7vfHCkKxsTV3Vtvu+zx6RBzNmTt378785txTNEgkEonEWtECwUAQ4A/4An6/+vEGPAFHwAdwAtwBN8D5V/Z8AM3P/rcBqO3+73qgC2gG2rp/GoAaoPocvyuAfKBJflQSjZwCiUQisVgxEQpEAzHdv/sAYd2/Q7vFhoMVXEsdUAgUAEXd/13YLUYyu38b5EcuBYdEIpFITCcqIoGE7p9EoF+3uIjs9kbYA81AVrf4yARO/uy/pXdECg6JRCKR9ABfYBCQ1v2TCsQDrnJqzokBOAWkA/u7fx/AuJUjkYJDIpFI7J6IblEx6Ge/o+W0qIIeozckvftnD7AX6JRTIwWHRCKxz3uLz6/+rQ2j69zWcAdGAmOB0cAQjAGckt6jEdgObOr+OYAxwFUiBYdEIrFwtBgDE6OAcP6XBRHws99+gAfG7Adf/pf9cD5+zHJo6H4rrel+ONQD7Rj37FuAVqDyZz8VQHn374ru/98chABjugXGmG7vhYNcMhZFHbDtZwLkEDIoVQoOiSp4dD8Qgn92w/fufmj8/CHg2X1jdMCYDvdjMNaP6W7tP/u3OoyuyzaMKW5V3T8dcrptBgeM2Q/9MQYrJgJxGLcDwruFhKW/1f5chFQCeUA2kNP9U9y9jkUIAKYAF3eLjH5y6VgdRcByYEm3AGmXUyIFh+R/6Lpv+nHdvwP5X759wM8ERiC9G3TW0C08Krt/V//s949pb/ndP43yY7QY3LvfxIdidPmnYQxYtPUsiLZuEZLzKyGSgzEOoOEcQmwkcEn3z5Bu8S6xDeqBNd3iYzX/qzMikYLD5vEGBvzsp2+3yIiygYdBbbcAyev+/eN/Z3X/1MuP32REARd1/4zo9l7o5LT8AkO3CDkMHAVKgKnd3gxvOT12QQewBVgMLOx+eZJIwWETBAPDgOHdb00DMOba2yslGPPtfxQgGd2/c5EBXz0ltPttfEK3yIiSUyKR9Ig2YCXwCUYPiNw+loLDatACKcBEYFT3W6Z8CFwY7cDx7jfPQz/7XSun5hfraygwE5iBcbtEfp8lEnUoB77qFh+H5XRIwWGJ9Acmd4uMi5CpcWqT+ysRshdjMJg9iYxxwFXAZRg9ZhKJxLQcBj4FvsAYnCyRgsMsOAHjgVndb5qxckp6nUKMhX92d/9Ox7ZqPWgw1na4CpiPMVVVIpH0Pq3douM14JicDik4egPXboExH+OeuZecEouiEzjSLUB2YQwIK7DC6wgBbgRuwZhNIpGogqenJw4ODuh0Ory8jLcvd3d3nJz+F6Pe0NBAZ+cvC3c2NTXR3NxMQ4PdVxU3ABuAVzFmuejlqpKCQ010GCPXrwXmYaxnIbEesoGtwObu3zkWOk4tcClwO8a4DFlMSnJOAgICCAoKIjAwkNDQ0J/+OygoCB8fH3x8fPD29v7Fj6urOhn09fX1NDc309zcTG1tLU1NTZSVlVFaWkpFRQXl5eW/+O/CwkJaWlps8WPI7PZ4fIZsMicFhyCJwB3dQkPul9sOBd3iYxOw3gI8IB7AzcD9GNOiJRL69OlDQkICUVFRREdHExUVRWRkJFFRUURERODs7GxV11NSUkJ2djbZ2dnk5OT89N/Z2dkUFxdjMFh1IdAa4H3gZaBMrl4pOC4Up24vxl0YAz/lHNk+GcC67p/N9F7BsshukXEbsu6D3RIaGkpSUhLJyckkJSURGxtLamoqQUFBdjMHDQ0NZGVlceLECdLT0zl+/DiHDh2isrLS2i6lCXgL+BeypocUHL9DSPfN/1aMVTwl9kkHxtiPH4BVGDNi1CYGeBxjjIaTnHL7ERbDhw8nNTWVpKQkEhMTSUhIwMXFRU7OOcjJyeHo0aOkp6ezfft29uzZQ1OTVexc1GOM8XgZY5sIiRQcgDGz5AGM++aucjokv6K8W3wsx1gMSCRiLgp4GLgTYy8biY3i6enJwIEDGTJkyE8/SUlJcmIE6erqIjMzk+3bt7Njxw62bNlCXl6eJQ+5AXgbeEEKD/sWHEOBxzDWM5B9EiQXQgvGLZclGEshX2hOfjDwN4xbJ462NCHe3t64uLjg7u6Ol5cXLi4ueHh4nPVvm5ubaWtro7W1lZaWFtrb22lqaqK+vp6uLustLKvRaBgwYADjx49n+PDhDBs2jISEBLRaeVvpDU6fPs3mzZtZvXo169evp77eIjsmVAD/BN7pvo9IwWEnJAHPA3Pt9UP38fGhs7OTxkbZW03kZQtjxsv33eKj+Cx/4w48AvwfxsBQq8DR0ZGIiAhiYmKIiYkhMjKSkJCQn7IgAgICCAkJ+SmlUpXXwIYGamtrf/qpqamhpKSE0tJSSktLKS4upry8nPz8fEpKSsweYBgbG8uUKVMYO3YskyZNIiwsTH4jLMQDsnv3bpYvX8769es5cOCApQWjFnbfE76RgsO2iQSeBv6AlTaxcnZ2JjQ0lLCwMMLDwwkJCcHPz+83P1qtFg8PDxwdHXF2dsbNze0XOfe/eW1vaaG1tfWnG/+P+fc1NTU0NDRQXV39uz+lpaWUldl1YLYeY9zH990/BRizTp7Dggt1ubu7079/f1JSUkhOTiYlJYX4+HgiIiLQ6Sz3K9LW1kZubi45OTk//Zw8eZKMjAxycnJM4i0JDQ1l+vTpTJo0iYkTJxISEiKf7lZAbm4uq1evZtmyZaxfv/43tUXMyAbgPowB61Jw2BC+wJPAPVjBvrmXlxfJycnEx8cTFxf3009MTIxFR623trZSWFhIYWEhBQUFFBQU/PTf+fn55ObmWqqrU20M3d4Oi3rldXBwYMCAAYwaNYoRI0YwcuRI+vXrZ3Nu/7a2NjIzMzl58iRHjx7lwIEDHDhwgNLS0h7bSk5OZubMmcyaNYvRo0ej0ciQN2umpqaGFStW8Nlnn7FhwwZL8Hx0YKzh8XfEYsOk4LCQa7sBY3qSRdbQiI6OZvjw4aSlpZGSksKAAQOIjo622Q+kpKSErKysn35OnTrFyZMnycnJob29Xd4RVUSn0zF48GCmTJnC5MmTGTlyJO7u7nY7H8XFxRw8eJD9+/eza9cudu3a9RsBrNVqGTt2LFdffTVz586lTx9ZRd5WycvLY8GCBSxYsIAjR46Y/dYI/Bn4vPuFRQoOKyMFY2TwWEsZkIuLCyNHjmTs2LGMGDGCYcOGERwsa4kBdHZ2kpuby7Fjxzh8+DBHjhzh0KFD5OTkWHsxoF4lMDCQOXPmMG3aNCZOnIifn5+clHOg1+s5duwYO3bs4MCBA/Tv358rr7yS8PBwOTl2xrFjx/jyyy/56KOPKC8vN+dQNmPcZrHZPi22JjjcgWe7PzSzloXW6XQMGzaMSZMmMWnSJEaPHq1aWWF7oaGhgSNHjvwkQH78kd6Q/xEVFcXcuXOZN28eY8eOtejYC4nEkmlra+O7777jzTffZPfu3WZ7/8KYzfJ3jFsuUnBYKKMxthA2W2loNzc3Jk+e/NO+r3TJmuDb2NlJVlbWT3n46enpnDhxwq48Id7e3syZM4cbbriByZMny9gCiURlDhw4wFtvvcWCBQvM1QPmAMYEh+NScFgWjsBfgScwQ/aJh4cH8+bN4+qrr2by5MlW19/AFqiqqmLPnj3s2bOHLVu2sHfvXptrFKXVarn00ku58cYbmTVrlqxOKZH0AtXV1Xz00Ue88847ZGdn9/bpWzFmVv4bG+lIa+2CYyDGLn2pvapwHB255JJLuPbaa5kzZw5ubm7ym2lBtLW1sW/fPrZs2cK2bdvYsWOH1dYc8fb25qqrruKhhx4iMTFRfrgSiRno6uri66+/5rnnnuPkyZO9ffrNwE1AnrXPozULjruBV+jFVNfIyEhuv/12br31VrldYkV0dnZy8OBBNm7cyPr169m+fftPdUcslf79+/Pwww9z7bXXSkEr6TGNLe3UN7fS2NJOY0vbz3630dJmrEXR0NKGwWCgo1NPa/u5wwVcnR1x0GlxdnTAxckBD1dnXJ0dcXVywM3ZCQ9XJ/y93fD1cMPJ0bZjiPR6PQsXLuS5557jxIkTvXnqeuBB4GMpOHoXN+BdjCmvpp8gjYZp06Zx9913M336dBmUZwO0tLSwfft21q9fz/r16zl06BB6vWV4LAcOHMgjjzzCtddeK9ea5Dc0t3VQWlVPcVUDpdUNlNc2UlnXRE1DC1UNzVTWNVHb0EJ7p3lKxbu5OBHg7Yavhyu+nm4E+bjTx9+LsABvwgO8CAv0xt3F+vsV6vV6vv32W5599lmOH+/VMIulwB0YezxJwWFi+gHf0QtbKI6OjlxzzTX83//9HwMGDJB3OhumsrKStWvXsnLlSn744Qeqqnq/q/SoUaN46qmnmDZtmvxA7JyOzi4KymvJKa0hr6yGM8VV5JXVUlJVT11Tq9Vfn4+HK2EBRhHSN8y/+yeAUH8vq7sWvV7P999/z7PPPsvRo0d767TFwDUYWytIwWEiZmOM1/A2qUJ3c+O2227jkUceITIyUt797IwfezGsXLmS1atXc+jQIZOer3///jz//PPMmzdPTr6d0dLWQU5pDbml1WSXVJNXWsOZkiqKKurp0uvtbj48XJ3oGxZA3zB/4sMDSYoKIj48EK3W8h9Ter2ejz/+mL/+9a+91eahE2OyxL+xomJh1iI4HgBexoRdXR0dHbn55pt5+umnZXyG5Cfy8/NZsmQJy5cvZ/Pmzar1YggNDeWZZ57hpptuwsHBQU60HVDb2EJ6VhGHTheTkV/O8dwyOjq75MT8Dq7OjiREBDIwrg9pfUNJiwvF081yMwGbmpp46aWXeOGFF2hra+uNU67AmD5bIwWHOuP7W/ePaU6g0TB//nyef/55+vXrJ7/hknNSWVnJ6tWr+fbbb1mzZg0dHT2vy+Po6Mg999zD3//+d1W7rUqsg47OLtaln+KTH9LJLq6SE9JDdFot8eEBDI4PY0xyNIP6heLoYHmxTllZWTzyyCOsWLGiN053BpiDFdTssGTB4Qx8AlxtqhMMHz6ct956i6FDh8pvsqRHVFVVsXTpUhYtWsT69esv6G1m6tSpvP7661ab3trc2k5lfTO1DS3UNrVQXd9CXVMrre0dtHd20dDcRltHF20dZ/cCaTUaPFyNAYM/vqV6ubng6eZs/HE1/vZydybQ2wMXJ9v1/OgNBrYfzeXztekcPF0sv1AKcXN2ZHj/SMYMiGJMcjRBvh4WNb41a9bw0EMP9UYqbSPGRIolUnD0HD9gGTDGJMb9/PjHP/7B7bffbjPdMts6OqlraqW+qY3mtnZa2zrRGww0thgfhI0t7egNBlrbO+joNO4POzrofrqpuzo74qjT/vQw0KDB090ZbzcXvNxdfnpQSH5LXV0dy5Yt48svv2T9+vW/aY8eEBDAG2+8wdVXX23x11Jd38zp4ipyS6sprKijuKqB4so6iirraWrt3ZLybs6OBPp44OfpSpCvB6H+Xt0ZD16EBngR4utpkW+3PeVYTimf/JDOlsNnkK2DxIgPD2DMgGimDo0nPjzAIsbU0dHBW2+9xVNPPUVDg0mbwuoxxnW8iIXGdVii4PAH1gNpql+sRsONN97Iv/71LwIDA63mS9TY0k5BRa3xAVBZT3ltI+U1xnS4sppG6ppaz/lWqRZarQZvdxe83FzwcnPGy90FHw9Xgn09CPLxINjPgxA/T4J9PPByt98qmCUlJXz99dd88cUXHDhwgPnz5/PWW28RFBRkeWOtbuBodglHs0s5VVTJ6aIqahutp0KrTqslLNCL2D7+RIf4EtvHj5g+fvQN9bdKIXIsp5Q3l+xkf2ahVA4qENvHj2nDE7hkWDxhAd5mH09eXh533XUXa9asMfWpvgBuBSyu6ZSlCQ5fYB0wRG3DoaGhfPjhhxaddtjY0k5WYQXZxdWcKqrkTHEVuaU1VvUQAHBxciDEz5MgXw/CA7yJDPIhMtiX6GBfQgO8cNDZhlfpfNTX11tUnEZeWQ17MgrYn1nAkexSKuuabHLeHXRa4kL9SYgIJDEyiOToYBIiAq1m3e06kcdbS3ZxMr8ciRovmjAgOoRpwxOYOqQffl7mLaT3+eef89BDD5k6/X4TcBlQKwVHL4uNq6++mrfeesui2nXrDQZOFVZyJLuE47llHMspJa+sxuZdqjqtlrAALyKDfYgK9iUq2Jf48ADiQv1xdXaUd0cVaW3vZNeJPLYdyWFPRgFlNQ12OxcuTg4kRQUzMK4PqXF9GNQ3zKK3CQ0GWJeexbvLdpNfXisXs0potRrGp8Zy5UWpDEuMwFx9D8vKyrjttttMHVR6ApiOBZVEtxTBEYhxG0XVgl6+vr68++67XHnllRZxkTml1ew7WcC+k4Wknyqi3gaK+Kh2I9BoCA/yJj48kPjwAPqFBxAfHkCwr6ecnB7Q3NrO5sPZbD50hp3H82ht75STcg7hmxQVxLDECIYlRjAwto9FluXu7NKzdMdx3l+512Y9UuYiMsiHOWOSmTc22WzbwJ9//jn33HOPKXs9FXeLjsNScBjxwticZpCaRtPS0vj++++JjY01683iwKkith3JYeuRHIoq6+S3vIf4eLgyICaY5OgQkqODGRATgpeb7Mj7c/R6A7sz8lm15ySbD52RIkOhB2R4YiRjU6IZmxJNkI9lZTu0tHXw0ep9fLH+oKzdoTJuzo5cOiKRKyekEhfq3+vnP3XqFDfccAN79uwx1SnqgJnAdnsXHI4YC5dcrKbRG2+8kXfeeQdXV9fev/kbDBw8VcSqPZlsOnia+uY2+Y1Wc8FqICLIhwHRIQyICSYtLpS+4QFoNRq7m4uK2iYWbTvKku3HqZBvv6qusYSIICamxTFlSF+ign0tZmy5pTX8c8EmGVhqIkb0j+T2GcNJ6xvaq+ft6OjgL3/5C//5z38wmGZfvRm4HFhj1u+Wmc/9MXCjWgadnJx47bXXuOuuu3r9YvLLa1my/Thr9mVSXtMov7m9iKebM2lxoQzqF8agfqEkRQWh09puYOqRMyV8vekwGw+eprNLLxeAiekb5s+Uwf24ZHg8EYE+FjGm1XszefW7bVTVN8sPyASk9Q3ljhkjGN4/olfPu2LFCm688Uaqq6tNYb4duB741h4Fx4vAo2oZ8/HxYdGiRUycOLHXLqCzS8/WI9l8t/Uo+04WyBx6C8HV2ZHU2D4MTQhnRGIEiZFBVtGP4XzsPJ7Hx6v3yUJRZvR8DOobxpwxSUwe3M/shckaW9p5Z9kuvt1yBL1e3nxMweD4MO6YMYKhCeG9ds68vDyuuuoqU22xdAG3YOxLZjeC4z7gdbWMRUREsGrVql7r6trc1sGirUf5asMhymulN8PS8XJ3YWh8OCP6RzCifyThgd5WNf6tR3J4f8UeMmSapMXg7uLEJcPimTMmmeToYLOO5WR+Of9csJljOaXygzERg/qGctfskQyJ7x3h0dbWxr333suHH35oCvN64GZziA5zCI7JwA+AKiHhAwcOZOXKlYSFhZl84LWNLXy96TDfbD4iM0ysmNAAL8YkRzMuJYYhCWE4O1pmCe0jZ0p4ffEODkmPhkUTF+rPnDHJTB+RgI+Hq1nGoNcb+GL9Ad5dtpt2GVRqMsanxvDIleN7rZDYe++9x3333Ud7u+o1vLq6Rcfntiw4IoB0jGmwwowdO5aVK1eavLhSc1sHX60/yOfrDvR6eWeJaXFxcmBoQjhjB8QwNiWaED/zp+EWVdbxynfb2XzojPyArAgnRx0zRvTn+qmDzBZoerqoiqc+/oGswkr5gZjwc75+ymBunja0V2oHbdu2jfnz51NerrqHswtjDOWXtig4nIGtwHC1xMbq1avx8DBd+lpnl55F247ywap9VMvgLLugf2QQkwb3ZdKguF5/aLR1dPLpD+l88sN+2jvkW6q1otVoGJsSzdUT03o96PDH+9ZHq/fxwaq9MrbDhAR6u3P7zBHMHZts8iy5nJwcZsyYQUZGhilEx3XAQlsTHO8Cd6phaNy4caxatcqkYuPg6WJeXLCJ00WyhbS9Ehfqz6RBcVw6IpHIIB+Tnmv3iXz+8dVGiivr5cTbEKlxffjD1MGMHxjb66nbR86U8NQnaymskPV/TElKTAj/d/UEkqJM2y+purqayy67jC1btqhtuh2YC6w29Vz1Vmm9m4FnrUFsVDe08OLXm3n5261U17fIb5MdU9PQQktbB/PHp5gszqOxpZ0Xv97Mq99vo0HWbLE5ymoaWbv/FD/sz8LZ0YF+vVgzJtjPk9ljkqlrauVkgQw4NhXltY0s3WGshTMkIdxkjQNdXV259tprycvL48iRI2rrgHnAFqDA2gVHPMZW88KbXWlpaaxbtw5PT9Pss288eJr731jGkewS+S2SEB8RyDsPzjNZ2eM9Gfn88fUlHMgqkpNt49Q1tbL1SA5r92fh5+VGbB//Xunj4eigY1xqDPHhAew8nicDSk2EAcjIL+eH/VnE9vEzWSacTqdj7ty5NDc3s3PnTlWXCsZmb2uAMmsVHA7dYiNG1FB0dDQbN24kICBA9UE2NLfx/BcbeXvpLlkWWmJcbyG+vPPgPHw81c86MBgMfLBqH899voHGFhmEbG/CY8OB02w8eBpfD1die6mUdnSIH5cMT+DwmRIqamVVWlPR0NzGqj0nKaqsZ2T/SJN4OzQaDVOnTsXV1ZX169eradql29OxCKixRsHxOPAHUSP+/v5s3LiRmJgY1Qd4JLuEu19ZLFMPJT8RFuDNB3+aj78J2ljXNLRw1yuLWL03ExnOZ7/UNLSw/sBpDp0uJibEj8Be6N3i6erM9BGJVNQ2yiwWE3OqsJK1+0+RFBVsssy3sWPHEhISwurVq9Ush+4BTAO+AlSPKTCl4BgMfCF6DldXV1avXs2gQYNUH+A3mw/z1w9/oL5Z1tSQGPH1dOXdhy+jjwluEnsy8rnj5UUyiE/yE0WV9SzZcZzTRVUkRgXibeKupQ46LRPS4gj0cWdPRj5dMovF5N4OrVbDwL6haEywhzZ06FDi4+NZunQper1qbQ4CgFHAAoxZLBYvOFwwRryGiBr6+OOPmTFjhqqDa23v5JlP1/HpD+kybUzyv0Xr5MDr980hPjxQdduLth3jiQ9/oLW9Q0605DfklFbz/dajtLR3MKhvGDqdaXsB9Y8MYmxKDHsyCmSwsgnRGwzsyyzk0OliRiVH4WaCuh0pKSkkJSWxePFiNUVHFBALLLYGwfEsxgAUIe677z4ee+wxVQdW19TK/W8uZcexXPltkPyEVqPh33fNZFiiunUTOjq7eObT9Xy0ep+pukBKbOjhdPhMCT/szyIy2JcIE6diB3i7M2Nkf7IKKqXXzcQUV9WzancG8RGBJgkoTUpKIikpiSVLlqgpOlIwxmFutGTBkYixRruQ7ZEjR7JgwQJ0OvWGWFhRx10vL5L7l5LfcO/c0cwek6SqzfrmNh56azlbj2TLCZb0aN2s3pvJyfxyUuNC8XR1Ntm5nB0dmDYsgbqmNo7nlsnJNyEt7Z2s2ZeJk4MDaX1DTSI6+vfvr7boGAdkAscsVXB8DiSIGAgODmbDhg34+qpX6fFoTil3vbxINluT/IapQ/rxyJUXqZqmWFrdwJ0vf09Gnqx/IFFGXlktS7cfR6fTkRwdbLKOxxqNhjEDovFwdWKP7HptUgwG2HuygLyyGsYMiMZB5a2zpKQk4uLiWLJkiVoeVQ0wA2P/M+HMCrUFx5UYM1OEFv/ixYtJS0tTbVBHsku47/WlNLTIvUrJL+kXFsDL98xSNX2tuLKeu15ZTEF5rZxgiRAdXXr2ZOSz+fAZUmP74O/tbrJzpcT2ITk6hK1HcuiQ9TpMypniKnYdz2PsgGjcXZ3U/RxTUggMDGTVqlVqmXQELsHYc0Wox4eagsMDY80NoU5qDzzwAPfcc4/qYkM2XZP8Gi93F955cJ6q6a/ZJdXc+fL3lNY0yAmWqEZ1QwvLd2fgoNORGtvHJBkPABFBPoxNiWb70Vx5zzQxlXVN/LA/iyEJ4QSqLCSHDRuGo6MjGzeqFn7hg7EP2pcY29ubXXA8C1wqYiAxMZFvv/0WR0d1InmP5pRKsSE5+8LXann5npn0V7H/wamiSu78z/dUN8iS+BL16dIb2HuygPRTRQyJD8fTzTSxHf5ebkwd0o99mQVUyaaVJqW5rYMf9mYSHxGoer+m8ePH09jYyK5du9QyGd3t7dhgbsERhbHmhuKGEw4ODixbtozo6GhVBlRQUcs9ry6mXqZ8Sc7CQ/PHMm14gmr2souruPvVxdQ2ypouEtNSUtXAsp0n8PdyIyEi0CTncHd14tLhCRzNKaW4SjYUNCUdXXrW7s/C38td1RcggKlTp5KZmcmxY8fUMjkKYzyHon4MagmOV4ChIgaeeOIJrr/+elUGU1nXxJ3/WSRL+ErOyriUGP7vqotUs5dXVsOdryyiRno2JL31kOrsYsvhbE7mVzCifwQuTurXd3B00HHx0HiyCivJl/FIJsVggG1Hc2jr6GRE/0jV7Go0GmbPns3OnTvJyclRw6QWGAN8CPS4D4gagiMBeK97IMoMJCSolgLb3NrOPa8tIbe0Rq5iyW/w9XTl9fvmqFaAp6K2ibtekdlPEvOQV1bDmn1ZpMSGEOyrfnVcnU7LxUPjKalukOUEeoHDZ0qoa2plVHKUanE6Op2OWbNmsXTpUqqqqtQwGQg4AT1u5KKG4HgbY4EQxXz++eckJiaqohKf+OgH9mcWypUrOSt/v/likqODVbHVJMWtxAJoam1nxa6TODnoTFLfQaPRcNHAOOqbW2Wtjl7geG4ZZTWNjEuJUU10uLq6Mn36dBYsWEBzsypxOSOBtUCPHraigmMQ8BrGXF1FXH755fz1r39VZVI/XrOPbzYfkStWclbmjEnmpkuGqmKrs0vPA28u41hOqZxYidkxGAw/1XcYlRylepdSjQZGJ0fT2t7BkewSOeEmJrOggryyWiakxaJVSXT4+voyZswYvvjiC7q6hNOetcBYeri1IroqPwTiRVTX0qVL8fHxEZ7MfZmF/P2z9bJojeSshAV485+7Z6h2I/7Xws1sOHBaTqzEojhTXMWWw9kMS4zAx8NVddExMikSrUbD/izpRe6NzzJfZdERERFBeHg4S5cuVcNcAMa6HNt7Q3AMAl4SGe3TTz/N7Nmzha+6oraJe15bTEubbIwlOYsU12p45Z5ZqvWmWLz9GP9dvkdOrMQiqWlsYcXuk0QG+RDbx091+4Pjw3DQadknt657RXQUV9Zz0cBY1bZXBg0aRGlpKenp6WqYG4gxrOKCHr4iguPfQKrSg/v06cOCBQuEa24YDPD4h6s5JQOaJOfg5mnDmDWqvyq2jpwp4fEP1sguwxKLpqOziw0HTuHooGOQCeI6BvULo0uv5+CpYjnZJuZUUSUVdU2MS4lVrf3CxRdfzJYtW8jPzxc15QbUADtNKTjCgfdFBMu//vUvRo8eLTxx3209wtcbD8tVKTkrEYE+vHDbpaq0+66sa+Le15bIdt4Sq2HfyQJKquoZMyAanVbdvh3DEiJo6+jk8BkZ02FqTuZX0NDSyujkaFXs6XQ6LrnkEj7++GNaW4VrBw0E3uICYjmUCoYnMXaRU0R0dDQfffSRcBpsUWUdj/53FR1derkiJWfl2VsuJkYFt3J7Rxd/fF1mpEisj6zCSvZnFnLRwFjV63WM6B9Jc5sMJO0NjuWU4aDTMqhfmCr2PD09CQoKUiOewwOoAM67z6zkie+JsSOsi9LRvf766wwePFjoCg0GeOSdFRRU1MmVKDkrkwb15dbpw1Sx9a+FW9hyWLaZl1gnZTWNbD2Sw5gB0Xi5uahqe0T/SMprG8ksqJATbWL2ZRYS6ONO/0h1KpIOGjSIvXv3cvq0cAD8j7Ecv+vlUOJjuxVjIxdFJCcnc+211wpP1Oq9Jzl4Wu4fSs6Om7Mjj1w5ThVb24/msmjbUTmpEqsmt7SGm178RnVvhEYDf71+EtNHJMpJ7gVe+GoTW4/kqGbvgw8+wNfXV9RMH+C8D/aeejg0GLvFKR7dK6+8wsCBA4WurKm1nUfeWUGzzEqRnIO754xmzIBoYTu1jS3c98ZSudYkNkFreyc/7Muif1QQEYE+qtk1FgeLJauwkrwyue1oSoxl0HMZkxyFvwpdZj09PdFqtaxbt07UlDfwye/9QU89HBOBWKWjCQsL44orrhCeoHeX7aayTvZJkZyd2D5+XDs5TbW3CdkxU2JrouPht1eoXkdGq9Xw/K3TSIkJkZNsYppb23nwreWU1TSo84J2990EBASImhkHRKopOG4VGc3999+Pk5OT0BVll1TLaqKS3+WxaybgoEJWyrKdJ2RxL4lN0tHZxV8+WMPK3Rmq2nVxcuA/d88kLMBbTrKJKa9t5KG3V9Da3ilsy8PDgwcffFBYcwLXqCU4vIG5Skfi6enJHXfcITwx7y7bRZdeZqVIzs6EtDiGxIcL2ymurOc/32yVEyqxWbr0ep7+dB1fbTikql0/LzfeemAufp6ucpJNTFZBBX/7ZK0qFbbvu+8+NWI5/qCW4LgWY5EPRdx6663CJcwz8svZdOiMXGWSsy9mrYZ7Zo8UtmMwwDOfraeptV1OqsSmMRjg5W+38tHqfaraDQ/05j/3zMLFyUFOsonZcOA0n68Trxrq5eXFvffeK2omCWPGirDguEX5g0DLfffdJzwhby/ZJXulSM7JpcMTiQ31F7azZl8m6bJXhMSOeHvpLj5YuVdVmykxIfzjtmlotRo5wSbmzSU72ZMhXDWUm266SY0S6teKCo5UQHGbzYkTJxIbGyt0BQdPF7PrRJ5cWZKz4uig446Zw4XtNLW28/r32+WESuyOd5fv5pM1+1W1OT41lvvnjZGTa2L0egNPf7KOesEqyHFxcYwYMUL43U9UcFwjcvZbbrlFeEI/XrNPrirJObls3ABVAtXeXrqLCpkBJbHjN+XP1x1Q1eb1Uwcze3SSnFwTU1HXxOuLxF+WrrvuOlETA4AgEcExT+mZvb29mTt3rtDo88pq2H08X64oyVlxdXbklkvFK4qeLqriuy2ywJfEvnl90Xa+36ru9+DP10xkgEyXNTnLdp4QroNy1VVXiTZV1WAsoaFIcAwAEhSr2+uvx83NTWgCPlt7AL0M3pCcg2snp+HvJbbG9AYD//hyo8yAktg9BgP8c8Emlmw/rppNJ0cdL901gyAfDznBJkSvN/DRarFtscDAQCZNmiQ6lElKBcdlIme9+eabhUZd3dDC6r0n5UqSnBU3FyeumzJY2M6KXRmyAZVE8jPR8Y+vNrLxoHp1aAK83Xnxzuk4OejkBJuQNXszKakWKwg2depUswmOy5WeMSkpiSFDhgiN+rstR2jv6JKrSHJ2NTxuAF5uzkI22ju6+O/yPXIyJZJfvS3/9cMf2HuyQDWbKTEhPHHDZDm5JqRLr2f1HrGX9IkTJ4oOoy8Q1VPBEYcxQ0UR8+fPF1vwBgPLd56QK0hyVhx0Wq6eOFDYzsLNh1UrESyR2BIdnV08+t+VnCqqVM3m9BGJXDZugJxcE7JKUHCkpaWpUep8bE8FxzyRs82bJ3Q4ezMKhF1DEttl2vAEQvw8hWw0trSrngookdgSjS3tPPDGMlVF+Z+uvIhElVqsS35LbmkNJ/PLFR+v1WoZP3686DBSeio4pik9U0xMDGlpaUKjXSa9G5JzoNHADVPFYzc+X5dOXVOrnFCJ5Hcor23k/jeW0SBY5+FHnBx1vHD7NNxdnOTkmogth7OFjldhW2VATwSHK6C4Yovodkp9UyubD8sy5pKzM3ZADHGCVUVrGlpYsPGwnEyJ5AI4U1zFn95dSXunOjF1EYE+Mp7DhOzPFKuWLBp/SQ89HOMAF6VnEq29sXb/KRksKjknN1ws7t34YNVemmW/FInkgknPKuQfX25Uzd7UIf2Yf1GKnFgTcCy3jJa2DsXHDxgwQLTMeQTgc6GCY4rSswQHBzNypFgTLTXTsSS2RVJ0MIP7hQnZqKpvZvH2Y3IyJZIesmJXBt9sPqKavYfnjychIlBOrMp0dHZx6Eyx4uM9PT2JiooSGYKGX22rmERwTJkyBa1Wq3iUdU2tpGcVyRUjOSvzx4u/ES3YeEh60CQShfznm63sy1SnwaGTo44X75iOm7OjnFiVOZpdKnR8amqq6BBSLkRwBPI7LWYvRHCIsOVwtqz4KDkrHq5OTB3ST8hGc2u76qWbJRJ7okuv57H3VlFYUaeKvfBAb/4om7ypzumiKqHjBwwQTl+OvxDBMZmeta7/5cGTxQKBNh2UwaKSszN9RH9cBd+Evt92TLVoe4nEXqlvauWht5bTpFIc1BUXpTJmQLScWDUFR7FY/ZTk5GRhLXkhgmOcUuuJiYlEREQof/ts62DPSdmoTXJ2RAsGdXR2sWDjITmREokK5JRW88yn61Gj1ZVGA09cPxlvdxc5sSpRWFFHW0en4uMjIyN7RXAMV2pdtAb7/sxCubcuOSupcX3oGyaWCrt6byblNY1yMiUSldh48DRfb1JHxAf6uMtUWRXR6w3klFQrVwvh4aJDiDif4HBBoJy56HbKXundkJyDywW9GwYDfLn+oJxIiURlXl+0g+O5ZarYmpgWx/QRiXJSVaK4SnmF2LCwMKEEECAEcPg9wTEYUFz+bdSoUWKCI6NArhDJb/Byc2aKYLDowVNFnCmukpMpkahMR2cXj7+/mnqVYqP+76qLCPB2lxOrAiIeXUdHR4KDg0VOrwP6/J7gULydEhcXR1CQ8vr4FbVN5JRWyxUi+Q1Th8bj7OggZOP7bTIzRSIx3Zt0PX/7eK0q8Ryebs48evVFclLVEBy1YlvIam6rnE1wjFBqdcSIEUKj2pORr8pildge04YnCB1f19TKpkMy+0kiMSXbjuawYKM625aTBvVl0qA4OamCiDbdCwsLEx1C4O8JDsUlQocNGyY0qv1ZhXJ1SH5DiJ8naXGhQjaW7zwhg5Elkl7g9UU7hDqV/pxHr56Ap5uznFQBKmqbhI739vYWHYLXuQRHABCt1KpoOfMj2SVydUh+w7ThCYiU9DcYYJEsYy6R9AqdXXqe/GitUDrmTw8kb3ceuGysnFQBRLthe3l5mUxwKK7y4ejoyMCBiouT0tDcRkF5rVwdkt9wybB4oePTswrJL5NrSyLpLXJKq3lz8U5VbM0Zk8zQhHA5qQoRLcxmkYIjNTUVV1dXxSM6nlsm4zckv6FvmD/9wgKEbCzZcVxOpETSy3y96ZAqWYcaDfz5mok4OujkpJpBcHh6eooOwfNcgqO/UospKWINtY7mlMqVIfkN04aJBYu2tHWw5XC2nEiJpJcxGODpT9dRL+jSB4gO8eWaSWlyUhUKDpGXeRUEh/e5BIdiD0dSUpLQiI7nSsEh+S0XDxXbTtl06AwtbR1yIiUSM1Be28i/Fm5RxdZtM4YT5OMhJ7WH6PUGWtqV3wNNGTSqWDWICo4TeeVyZUh+Qb+wAEIDxPYP1+zNlBMpkZiRNXszVfEyujk78uB8GUCqhFaBly5nZ+EsIfezCY4AQHFJMZGucrWNLVTXN8tVIfkFF6XFCh1f09DCHlm5ViIxO//8apMqHZovHhovA0gVoBfYU9GIpAj+Smf8XHAodlG4ubkJdZWT5aYlZ2N8qpjgWJeeRZdeLydSIjEzFXVNvLVUnayVR6+6CJ1Yfw8pOHqiFsTnWnM2waE4Oi8pKUloUNklspy55JcE+XjQPzJIyMbqPXI7RSKxFBZtPcbB08XCdmJD/Zk3LllOaA8wWKCHQ7GLon///kKjyZGCQ/Irxg+MESr2VVbTwDEZiCyRWNRb9vNfbFCl4u8dM0bg5uIkJ/WC515ALYh7OM4qOKIVK85YMdf3mWIpOCS/5KKBYmtqy+EcWddFIrEwcktr+OSH/cJ2/LzcuPHiIXJCLxCD3qxbKmcVHFFKrYnEbwDklMgYDsn/cHNxYki8WGCYrL0hkVgmn/6QTlFlnbCd66YMkmmyvYCpYjgilFqLilKsVWhubae6oUV+qpKfGNIvDCeBqoKNLe0cOFUkJ1IisUDaOjr5zzfbhO24ODlw1+yRckIvAGcnB+WfV5twdtFvPBw6QPErpYjgKKlukKtB8guG948QOn7n8Vw6OmVnWInEUtl6JJvtR3OF7cwc1Z+4UH85oecTHI7KBUdLi7BDoO3XgiMMUDQijUZDeLhy93epFBySXzGiv9gW3eZDcjtFIrF0Xvpmi3AAqVaj4c5ZI+RkngcXAQ9Hc7NwjayWXwsOxS6K4OBgXFxcFI+kpEoKDsn/CPR2JybET/HxHZ1d7DyeKydSIrFwCivq+GL9AWE7E9P6khARKCf0XKJMq8FBpzwOQwUPR/OvBUeYUksi2ykApTVScEj+x/D+kULpsEezS2lsaZcTKZFYAZ+s2U+VYJVpjQbunCVjOc6Fi8B2ikqCo/XXgkOxPAwNDRUTHHJLRfIzRgjGb+w5mS8nUSKxEprbOnh/5R5hO+NTYxgQEyIn9GyCw8nsguM3Ho4ApZYCAgKERiIFh+TnDE8UExx7Ze8UicSqWLztOLmlNcJ27pgpYznOhoerWPM1FWI41BMcgYFie2eyaZvkRyKDfAjwdld8fENzm+w6LJFYGV16PW8s3iFsZ3RyFElRQXJCf4W3u4vQ8TU1wmKwRTXBIerhqG2UNTgkRlLj+ggdn55VKJu1SSRWyJbD2ar0Wblp2lA5mb8WHB5igqOqSrgw5288HIrdFCKCo0uvp6GlTa4ICQBpcWLxQLIVvURivby1RLyb7IS0OGL7+MnJ/LngcHcVOr66Wrj1SNWvBYdZPBx1ja2y34XkJ0Q9HPsypeCQSKyVQ6eL2ZMhFvSt1Wi4fupgOZm/EBxm93BYhuCQ2ymSn38pROpv1DS0kFdWIydSIrFi3l22W9jGpcMTCPb1lJPZjY+H5QkOxXd6f3/lZWVrm1rlapAAMDCuj1D9jUNniqW3TCKxco7mlAqXPHd00HHlhFQ5md14uZk9aLT654LDCVCcN+Pl5aVccDRKwSExkhortp1y5EyJnESJxAb473JxL8e8scnC9SdshUAf5Zl/TU1NatThqPy54HATseTmpvzw5lZZEVJiJFmwaM8hFSLcJRKJ+cnIL2fXiTyxt3p3F2aM7C8nEwj08VB8bEVFhejp9UCtKoJDo9Hg6qo8Ara1vVOuBgkaDSQK9EJo6+jkZEGFnEiJxEb4eM1+YRvXTR4ktE1rKwT7KhccBQXCgfi13aJDXHC4urqiEfhEW9s75GqQEB7gg6eb8mp4J/LKZTt6icSGOJBVJLxNGhnsw/DESLueRwedFl9P5U6BoqIi0SH84k1QSHCIbKcYBYf0cEigv2B1wKPZpXISJRIb45MfxL0cl40bYNdzGOjtjlbAKVBYWCg6hMJfCw7F8kdUcLR1SMEhgcRIMcFxMl+WM5dIbI1tR3PIKRUrOnXRwFj8vNzsdg6DBLZTQBUPR/GvBYfiEFbp4ZCogWj/gwzZP0UisTkMBvh642EhGw46LbNG2W/wqEjAqEqCo+DXgkMohkMKDoko8QIBo40t7RRW1spJlEhskJW7M6gXrNc0d2yy3QaPhvp7CR2vwpZK0a8Fh+KqII6OjkIjaZeBfnZPkK8HXgIBoxn55bLgl0Rio7S2d7J4+3EhGxGBPsJ9mqyV8EBvMbUg7uH4jeBQrP00grLRIJ8Udk9cH3+h42X8hkRi23y75Qh6vdiz4tIRiVJw9NQh0N5uWYJDIhEWHGFigiNT1t+QSGya0uoGdhzPFbIxZXBfHB10djd3EUE+io/Nycmhq0t4F+I3MRyK0ciqKhJBRFtJnymqkpMokdg4i7eJbat4ubswZkC0Xc2Zk4OOYIGg0TNnzogOoZ2z1OGQSMxG31DlHo4uvV52iJVI7IAdx3Ipr20UsjFpUJxdzVlogBdarXKnwOnTp0WHkMPPqoz+KDjM5qaQMRz2jVajIVrAw5FfXisDjyUSO6BLr2fFrgwhG6OTo4QewNaGaMCoCh6O3xiQWyoSsxHg446bs/JMJ7mdIpHYD6v2nBQ63sfDlRTBJpHWRESgj7kFx+mzCQ6pGiTmUeABYgo8u6RaTqJEYifkltaQIZiVNjYlxm7mKzZUMD7OBB4OBxFrolsi0kNi3/QRLEqTIwWHRGIxOOi0+Hm5EeLriZ+XG74errg6O+Lm4oibsyMermevt6PXG2hqbae9s4vW9g5a2jppbGmjrqmVuqZWahtbqGlooam1ndV7TtJfoBXCuJQY3lqy0z4Eh0DJAb1eT05OjkkEh2LV0NoqVgHOxclBfkvtmLAAMcFRVFknJ1Ei6WX8vNxICA8kpo8f0SG+xPTxIzLIBz9PN5NW9Gzv7KKxpV3IRt8wf/r4eVJS3WAHgkO5hyM7O5u2tjaTCA7FVltaWoRG4+Sok99eO0a4Cl5lvZxEicTExIT4MSwxgpTYEFJjQwgT3ApV/Lxw0OHn6SpsZ0xKNN9tOWrTn1mQrweeAhWcjx8/LjoEPcYsld8IDsWqQdTD4ewoPRz2jEid/8aWduoEeyyoiUYDIb6eRAb7EhXsQ4C3O4E+Hvh7uhHk64GrswNuzk7odFrcnB1x0Glpbe+kvbOLptZ2urr0VNY1UVLdQGn3T2FFHRl5ZdQ3t8nFIuk1dFotQxLCGJcSw7iUGOEXA0tjUN8wmxccohWcjx07JjqEgrM5M4QEh6iHQwoO+0bkTcmc2ylODjriIwJJjg4mOTqYvqH+RAb79niL0MXJARcnh596yYQHepP2q78xGCC/vIbjuWUcyyll+7FciqVnR2ICokN8uXhoPLNHJxHi52mz15kcHWzzn6VowKgKHo7Ms/2jA6D4NVEKDonIZx/g7a74+OKq3nvours4MahfKEPiwxncL4yEiEAcdL1TM0+jgahgX6KCfZk+IpFHMfaP2XjwDBsOnJaFzyTC62tcSgw3XjKUgXF97OZFx8vdRbgLrUV7OELFPBwqCI5j5xIccktF0uuE+nsJBZgVVZjOw6HRQP+oYMalxDAmOYrEyCCLKhiUGBlEYmQQ98wZxZHsEr5Yd5DNh86gl4X0JBeIVqNh6tB+3DxtGH0F+xlZo8gKD/DihBQcZ6Wzs5PMzEzRIRxXXXB0dHTQ2dmJg4My4eDsJING7ZWwQNEMFXU9HFqthpH9I5k0qC9jU6KFvC+9SWpsH/51Zx8KKmr5av0hlu86QWt7p1xgknOSFB3Mn64cT2psH7udgxA/L07k2WanaZ1WS7+wAMXHnz59Wo0MFfUFBxi3VTw9le33uTg5ym+/3Xo4BDNUqtTxcMSG+jNjRCIzR/XH38vNauczItCHx66ZwC2XDuPNJTtZuTtDLjLJL/DxcOXhK8Zx6fBE7L0Ekpe7s81eW1yon1AGqArbKQYg41yCQ8iv1NTUpFhweLu5yLuAvXo4BGtwiAROBvt6MmlQHLNG9Sc+ItCm5jXQx51nbprKlCF9+ffXW3o11kViuYxKiuJvN06xGs+dqWlsbrfZaxO9px09KpzBUwDUn0twCHk4qqqqCAlRVp/ex0MKDntF5ManNxh6/CB1ctBxybB45oxJZmBcqM2/4Y1LiWFofDivfr+d77celQvOTtFptTxw+ViumZSGLOz8P9o6bHfbUaQSK0B6erroEM6ZU/uj4GgHnJRYrqysVDwqbyk47BZfgQI+1fXNtHdcWJdYP09XZo1O4qqJAwny8bCrOXZ1duTxayeSGBnIv77eQofsrGtXeLg68c/bpzMyKVJOxq8oq7HdSqOJgoLjwIEDokM4/nuCwwBUAYoiiEQEh6+Hq1z5doqfp/J4ier65vP+TXxEIPPHpzBjZKLdZ0PNGzuAuD7+/N9/V1J1AXMnsX5C/Dx57Y+zhdMjbRVb/R5oNRr6hSsPGC0rK6O4uNikggNzCQ43Fyc8XJ2E6+NLrFBwCARoVjecfRfQWFMgluumpDEkPlxO8s9IjevDZ49fxd2vLia/rFZOiA0T5OPBfx++zGwlyK0BXS/V0eltooJ9cXNWnoyhwnYKwMFzCqIfdYOIIhJV4hL7QqvV4OOufDutuuG3byfD+0fw6Z+v5uV7ZkqxcQ6CfT1598HLhErKSyxcyHu68vaD86TYOA8OWtsUHAmRYgGjhw4dEh1CK+fIUFFFcBQUFAjfBCX2hY+7i1AhrZ9vqaT1DeW9hy/n7QfmkRQVJCf3fG+/vh689eBcq04BlpwdV2dH3rh/LtEhvlYx3ua2DrPFFelsVHCkxoYIHa+Ch+MI0HFOodf9u0Kp9fz8fKHRSQ+H/eHrKfawq25oITW2D3fNHsnwxAg5oT0kItCHtx6Yxx0vf2/T5Z3tjSeun0yCGdK8u/R6iirqOVNSRUF5HRW1jZTXNlJZ10RNYwstrR00t3XQ1HrurXMPVyd0Wi0ers64Ojvg4+Ha/eOCt7sL/l5uhPh5EuTjQZCvp3DXWAcb3VJJESzmpkLA6MHfnffu34Xm8nBIwWF/iN4sLhkWz/2XjZETKUDfMH+evnEqj7yzHFkR3fq5bsogLhkW3yvnKq9pZH9WIcdySjmSXcqZ4iphT8WPcXwX2gH66kkD+dOVFyk+nyW1KlALZ0cHoQqj1dXV5OXliQ7jwIUIDsVuClEPh2gBKIkVCg5Bd36CFRXrqm9qpbKuicr6ZuqbWuno0tPS9j+Po5ebMzqdliAfD0L8PHt1q2N8agyXj0+x+Vbdtk6/sAD+OHe0Sc+RXVLND/sy2XY0l6yCCrNfs5ODWFsMWyz/nxwdLOS52bNnDwbxt48LEhyK3RRNTU1UV1fj56esHW50sK+8Y9gZvp62lw5dUFFLRl45p4uqyCurIa+shvzy2guuF/LTjdRRR7+wAJKjQxgQE8yopCiTzteDl48jPbOInNJquTCtEK1Ww5M3TMbRQf2+VO2dXazafZLF249xPLfMoq7bzdlJ6Pjf296xVgbEiMVv7Nq1S3QIHfxO0S9VBAdAdna2YsEREeSDRoN069oRHq7W3cego7OLY7ll7M8s5PCZYk7kllHf3KaK7faOLo7nlnE8t4xvNhsfKIP7hTF1SD+mj0jE1Vnd/kMuTg48f+sl3PTiN7TLwmBWx7WTB5EUHayqzc4uPd9tOcpna9Mpr220yOt2cxETHM02KDhEA0Z3794tOoQTnKdVys9jOPT8L2ulR2RmZjJ06FBFI3R1diTIx9OmK79J1H07MZcHY9uRHLYfy+XImZJec8nq9Qb2ZxayP7OQt5fuYv5FKVw3ZTBebuqJtviIQK6bMoiP1+yXi9OK8HJ34bbpw1W1uScjn38v3EJuaY1FX7u7i3Lh3dmlt0lxLRIwqtfr2bt3r+gQzhtx+qPgaAfKUFj8KzMzU2iUUcE+UnDYleCwji7BZ4qrWL03k00Hz5BXZv4bcF1TKx+u2sfibcd4cL66XT//cPEQFm07dsFBexLzc9MlQ/FwVUe8t3d08dqi7Xyz+bBVeJtFPBy26N0I9fcSiv/KyMigrk64A/d5XSQ/r/l82nyCw5e9JwvkHcReBIeL5QqO8tpG1u7LYtWek2QVVlrkGKsbWnjq47WsTz/Ns7dcjLuL+EPH082Zm6YN5bXvt8sFagX4e7lx1cRU1dbTI28v52hOqaIHf99QfyKDfQjy8SDA2w0HnQ4nBx1dej11TW1U1DZypqSKjLxyGlTaehRZ801tHTa3HtL6hgodv3PnTjWGcd4gkJ8LjkxgnJKzZGVlCQsOifRwmIvm1nY2HDzD6j0n2Z9ZiN5KAoq2Hsnm5he/4ZV7Z6lSWfKqCQP5euNh6W20Ai4fn6JKj6CK2ibu+M/3FFTUXtDfOznqGJUUxaikKIYlhhMZ5HvBXrYuvZ4Dp4pZuOkwWw6fEfKkBAi8zduih2NwvzAx14R4/EYDxhiOHgkORWRlZaHX69EqrN4WGewj7yB25eGwjBiOwoo6Fm46zLKdJ6w2aj27pJo7X17EB3+aL1zTxslRxx0zh/Ps5xvkIrVgHHRa5o0dIGynobmNe19bfEFiIzrEl+umDGLK4H54Kowf0mm1DEsIZ1hCODuO5fLYe6sUx0IFC6x1W2zcNjheTHCokKGyBzhvYMzPFYJiN0VzczNFRUWKRypTY6WHozfZl1nIw2+v4LKnPmPBxkNWnyJXWt3APa8tPmdTu55w6fBEvAT63EhMz0UDYwn0cReyoTcYeOKjH8gu+f10aD9PV/5+88V887frmTd2gGKx8WvGDIjmsWsmKhbGXm7K12iFhWbeKCXA253IIOUv7TU1NcJhEVzAdopqHg4wxnFERCgrMx3i74mTo67HNQsk1omrGQRHR2cXq/dmsmDDIU4V9X5shq+nKwPjQokL9SMswBsvN+efsnW6DHpqGloorzGWhD5TXM2posoelR3PL6vlyY9+4M375woFkjo56pg+IoGvNx6WC9VCUaOi6IINh9hxLPf335r7hfGvO6fj4+Fqsut4+dutPY7rCPLxEFrj5bVNtuXdENxO2bZtG3q9XnQYF7Qn83PBkY2xcIeip0FmZiZTpkxRNFKtRkNEoA9niqvk3cQO6M2ywnqDgY0HTvPmkp0UVtT16nVqNDB1SDxXTEhlYGyfHl93fnktezMK2Hk8j90n8s6byrcnI58FGw9y7eRBQuOeO2aAFBwWipuzI6OTo4VsFFfV886y338hTYoO5vX75uDi5GCya3Fy0KFVoByCfD2EzmtrHo4hgtspW7duFR2CAeOWSo8ERweQAyiSz2oEjkrBYR/oNKZvnKQ3GFi7L4v3Vu4hv6y216/Rz9OV/9wzixSB6n+RQT5EBvkw/6IU6pta+WF/Fl+uP/i7wunNxTsZmxIj5GLtG+ZPcnSwxVWXlMDoAdHCIuDdZbvPGzvx56snmFRsANQ0tFDf3PM07EBvse0km/NwCAqOLVu2iA4hC7igh/ev7/yKt1XUqMUhsQ8cHEwrODYfOsM1z37FEx/9YBaxMT41lncfvlxIbPwaL3cXrrgolUXP/IGnb5x6znLn7Z1dvLtMOOKcOWOS5UK1QES7IxdU1LJm7+/fq91dnFSvXno2VuzOUJSpIpqRVW5DWVi+nq5EB/spPr6hoYFDhw6JDmPPhf6hBQkOGThqL7ibqNJofnkt97+xlD+9u9Ks3rKZo/oT28fPJLa1Wg0zR/Xnm6euZ3Ry1Fn/Zl16Fhn55ULnmZAWp1pRMYmKb7OC+/Xfbj5y3rRvJ0edyYt/Nba08+X6g4qOjRDw3tmah2NwvzCh7+mOHTvo7BSumnzBezLas7hGlN3s8/NpaVEeJR8X5i/vJnaCo6O6jaZa2jp4c8lOrvr7l+w8nmf26xNNT73QN5v/3D2TSYPifvP/GQzw0ap9Qvb9PF3pFx4oF6sF4eflJvRi1qXXs3rv+V8MaxpaOJJdYtJreWPxDirrlD34IwKVezjaOjqptqG02BH9I4WOV2E7BeCCjajm4dDr9Zw+fVq54Aj1R6fVyruKHeCgYtDo1iPZzH/6Cz5Zs58OC+mP0FuFhRwddPztxqn4naUI0rajOcL1Bkb2j5CL1YJIjAgUeptNzyqi5gJTp99YvMNkBfBW7TnJ91uPKj5exMNRWFFnNYX9LkxwiH1HVRAcJRirlPeu4AA4efKk4mOdHHREhchtFXtApxMXlm0dnbzw1SYefnuFxVXGdHLU9dq53F2cuGXasN/8e2eXnpW7M4RsD0+MlIvVgugr6AXuiffv0OliPli5V/VrSM8q5LkvlBeWc3N2xM9TeZXRgvJam1kPEYE+QvEszc3NpKeniw5jc0/++Nd3/jJA8Sdy5MgRoZHHhwfIu4od0NUllvN9uqiKG15YKPSWZEqOZpf26vnO9b1ZuuOEkN1B/UJ7VTxJfp+4UDHBcSCrsEd//96KPXyx7oBq499yOJv731gmVG8pPMhHyMtT0Mup8Sb1biSJeTd27NhBe7uwN7ZHObVne9VUHMdx+LBY7r4UHPZBs0DzpIraJm56cSHZFpxCvXj7sV7tuBlwjjTBvLIaoSwdZ0cHBgq0vJao/0arlI7OLkXNCF/9fjvPfbFBSCR06fV8uGofj/53FW0dnYJzIJahUmhLgkMwfmPdunVqDENYcCjeVhEVHP2k4LALKuuUxxZU1DUq7r/QW+SW1rB0x/FeO9+JvHPXy9idkS9ku39UsFywFoJIwau8slo6FXoWl2w/znXPL2DnsZ4HZGcVVHDbv7/jnWW76BKvZimczWgrWyparYYh8eFCNtauXSs6jHKgR/u2ZxMciu+U+fn5VFUpf/OMl1HxdoGSYj8/4ubsZBXX+PriHb3WJOr3Mg/2CAqOxEj5nbSIB4xGc05P1oUJjhqh8+eUVnP/m0u54z/fs2rPyd8V/R2dXezNKOD+N5dy3T8WKGp7f04Ph2BKrK14OAZEh+Al0NemrKxMOASi27vRI1/u2UrJCbkpjh49yoQJExQd6+/lhp+Xm02lLUl+i0izNA9X6xAc9U2t/N9/V/Lug5eZNA5i29Gc3+2JkZ5VSJderzgDLDEiSC5YC8DbwwUHgWDrcpXKeR84VcSBU0W88NUm+ob60y88gABvd9o6OtHrDWQVVnL4TLHJvJBRAoKjvbOL0mrbKPo1MklsO2X9+vUYxPd9e1wT/WyC45DICA4fPqxYcAD0CwtgT32+vMPYsuBoEREczlZznUfOlPD3z9fz95suNkn/mOKqep7/YuPv/k1jSzvZJdX0C1O2XRkR5IOHqxONLe1y4ZoRdxcxoa205sW5aGnr4GhOqareiwshUqAidUF5rc2kxI60jPiNHqcbnU0yl2LMVlEsOERIiJBxHLaOyMPLxclB6E2vt1mzN5PHP1h93sZrPaWitol7X11yQQ+Sk/kVis+j0citTlsQHLYgGL3cnIU61+bbSPyGl7sLAwTbJmzYsEF0GMX0MH7jXIIDQPHmjnjgqLy52b7gaBM6XvTm29tsOHCa+99YSoVKJZWP5ZRy44sLKai4sBtoZoFYmXMZx2F+3JwdhY5varV+wSEav2GOvkqmYOyAaCGP6bFjxygsLBQdxlp6GL/xe4JDsWo4fvw4HR3K0x5laqwdCA7Bm5+nm7PVXfP+zEKuevZL1u5X3lW5vaOLj9fs547/fE95zYXvyYt4OAASIqTgMDcawS25zi691c+BaIaKrXg4xqZECx2v0naKIiMOaguOtrY2srKySE5W1m0yOsQXJ0edUN63xMIFh6CHw83KPBw/Ut/Uyl8+WMPXGw9z07QhjEuJvaAiRq3tnaxLP8X7K/ZQXFXf4/NmFVSgNxjQKqyYlCADR82PQU6BuIejxurnQKfVCsdvqJAOawA2WoTgAOO2ilLBodNqiQnxI7OgQn7DbJTm1g6h490F3cvm5kh2CQ+/vYLIIB9GJUcxJD6clJgQnJ0c8HR1prOri+ySak4VVnLwdDHr008JucSb2zooKK9V/IYY28cPFycHi69/YtN6QzDYUWsDrX8jRQWHDXg4Bsb1wcvdRfHxLS0tavRPOYwx1lM1wZEBtAKKruzw4cNce+21iq8mPjxACg4bRnQ/2Vo9HGe7AeaX17Jw02GTn+tkfoViwaHVaugbFsCxXs5IkPxSNIrg5e5s9XMgkqHS3Nrea3VxTInodsr69euFurp3o9hFcq4Yjk4URKD+yKFDh4SuRgaO2rqHQ0xwuNuI4OhNRANHZRyHealvahU63svNxernQKS0e56txG8MEBMcK1euVGMY69UWHCCwrSIqOGTgqG3TJPi25ubiKCexh8jAUeumTlBweLtbt+Dw83ITKvpnCxkqIX6exAo28FuzZo3oMFqB7RYlOMrLyykrU1zKg/jwAGxgy1FyLsHRIj0cvS84yoUayiVGysBRc9Lc1kGHQC0Xaxcc4YJN22yhh8r41Bih448cOUJeXp7oMLYCivdkTCI4QKweh5e7C+EBPvIuY6uCQ26p9Dr1zW2UVNcrPj4u1M8mAg+t/TMUuada9du9r6fQ8bYQMDpxUF+h41XaThEyYpGCAyA5RnaptNm3NUHB4eIkt1SUILKt4uzoQIifp5xEM1LXqDzYL9Tfy6qvPdDHXeh4a/dweLm7MLhfqCUIjlWmEhzVgOJyZKJxHEmyLbbN0tohll7p4qSTk6gA0cBRkSwBiTi1jcrjOCKDfKzaQxUs6OEoq2m06s/+otQYxQ0YAaqrq9m9e7fwLQQ4bSrBAQKN3Pbv3y90ZQOipeCwVfR6g1DlQ2dHBzmJCsgpESt8FBnkKyfRjBRWKm+t7uSos2oPVZCAh0OvN1h9SuyEtDih49esWUNXl3AxzRWiBs4nOBTvi5w6dYqqqirFA0uMDLKqJl2SntEm4OVwkoJDEfnlooLDR06iGckTrJQpWhrcrILD10PxsZV1TXTprbe0u4uTAyMEq4suWbJEjaGstljBYTAYSE9PF1LkfcNkeqzNCg6BqpXSw6FUcIi1544KkYLDvIKjVkxwWPHnF+SjXHCU11r3dsro5GhcnJTf89ra2tRIh60HtplacBwSMb53716hwSXLbRWbRSSOw0UKDkW0d3QJ7WVHyS0V8wqOUjEPR0yIn1Vet1ajIcBb+ZZKuUpdms3FxEFi2ylr166loaFBdBjrAOGWw+cTHKcBxfsi+/btk4JDcnbVLSA4nGXQqFkeWiH+njg5yrk3F4WVdUJbA0lWej91d3US2l4vt+KAUQedljGC1UUXL16sxlBWqGHkfJ+iAVC8LyIaFSsDR237bVux4JAeDsWIxHFoNRrCBcpLS8To6OyipEr5m2p8eACuVtj40EOw7k51g/UGjA5LiMDLTXkfnK6uLlasENYKemCNGtdzIbJR8b5IeXm5UGWz6D5+ssiTjSIUw+EkBYdywVErdHy0TI01K9kl1YqP1Wm19LfCirEermKN5xoECqaZm6lD+wkdv3XrVioqhBuh7kNhd9heFRwgFseh1WjoHyVLKtsiIjEcTg7Sra+UvFIxwREZLOM4zMnxXLH7/oCYECsUHGIvnY0t1ik4HHRaJgyMFbKh0nbKIrWu6UIExx4haSTjOCRnwSCQLaFBlthWLDhkaqxVczRbTHCkxFqj4BDzcDS2tFvlZz0yKVKoJL3BYGDp0qVqDGWpWtd0IYKjHFC8LyIzVSRno0uvXHBotVJwKKW0qkEofkYKDvNyPLdMKLU5NbaP1TXGtFcPx8VD44WOT09PJz8/X3jJYaww2muCA4x7OIrYv38/nZ3K3edScNgoAp1LZQ8x5egNBgorahUfHyz7qZiVptZ2souVx3H4e7kR28ffqq7ZHj0cTg46xqeKbacsWqTKTsgSNa/rQgWHYjdFU1MTGRkZym9wvp4EersjsS26DMrT+zRScQghEjjq7+UmBZ+ZOZpTInT8qOQoq7ped0EPR1Ob9QmOUclRwp6db7/9Vo2hfG9VggPEt1WSpJfD5hDwCss26YKIVF50ctDh5eYiJ9GMHMspEzp+pGCZbHO87YvQ3NphdZ+x6HbK/v37OX36tOgw8hAs/qlUcOwHFO+LyMBRyW8Fh0AMhxQcQlTWidUlCJAeR7Ny6HSx0PGD+4XZVS0bkZgXswgsRx1jU6KFbCxcuFCNoSxGaPNbueBoAhTvi+zZI5TowoDoECTyJvATUm8ICg6xUs+BPlJwmJO8shpKq5UXAHNy1DG4X5g9vd1Y1XDHDogRqj9lMBj47rvv1BjKErWvrSf1YhXvixw9epSmJuU3uaToYPlWa3P3AOnhMBcVgr0lpIfD/Ow6kSd0/KjkSLuZK4OVjffSEQlCx+/Zs4fc3Fzh2wSw3SoFR1dXFwcPHlQ8SA9XJyJlhUObQq+XgsNciHo4pOAwP7tPiKU7TkiLs5rgX3sKEvdycxbunaLSdsoioEvt6+sVwQHigaMpMXJbxaYEh0jhLyk4xARHvaDg8JKCw9zsPVkg1Mgt1N+LhAhZxdnSmDo0XihI1mAwqJUOu9AU19cTwXEUYyyHIkQDRwfGhcrVaEM4CnypRG60EqhtbKGjU/nLi4zhMD8NzW0czxXLVpkk2Pa8txD9vltTgOyMEYlCx2/fvl2NYl9lwFZzC44uQPG+iKiHIzWuj7zL2JLg0CkXHO2dXXICBTAYoKpeeaaK3FKxDES3VaYM6WcV1yma1urmYh0dcsMDvUmJFXvOqVh7wyQ3WW0P/16xasjOzhbqWhcT4idUV15iWYi4DTs7pYdDFJE4jgBvNzmBFsD2Y7lCx0cG+dA3zPKrjjYLFu5yd7aOjuPTRyQKxdV0dnaqJTi+NtU19lRwCO2L7Ny5U/GxGg2kxso4DlvBwUGr+Fjp4TCv4PD1cJUTaAGcyC2juLJeyMakQX0tX3AIezisQ3BMGyaWnbJ27VpKS4W7yJcAOyxFcAjti+zYIXYdMo7DdhCJ4ejokoJDlOqGFsXHujg7yvLmFsLmw2eEjr9kWLzFX2NTq6CHwwq2VFJj+whnYn7++edqDOUbwGQu5J4KjmyM3WPNJDhkHIetILKl0tEhBYf4W6Pym7hWo8HFyVFOogWw/oBY+eqoYF8GWHgGYLOg4BBt/tYbTBcMFq2vr2fZsmVqDGWhKa9TiV9b8bZKeno6ra2tigebHB0s9GYssRxEPke5paLCTbxNzE3t6iwFhyVwNLuEspoGIRszRiZa9DWKejj8vCw75sjJQcfFQ8UCeBctWkRzc7PoUAqA3ZYmOHYpPVlbWxvp6emKB+vs6EBCRKC8y9gATnJLxay0tgvui0vBYREYDLDlcLaQjUsEaz+YGpHtPwA/T8uOOZqQFiecEPHZZ5+pMZRvMXFhViWCQ6jcqdxWkQA4CgSNdkgPhzCiHg4pOCyHDQfE4ji83F2Em4WZkpqGFqFCgX6elu3hmD06Sej4oqIitm5VpWzGF6a+ViV3/b2AYh+XDByVGAWH8mI87TKGQ1xwtMotFVvh4Oki4f44M0f1t9jr69LraWhus0nBEeTrwfDECDGV8MUXdIl7fU8gUGfLlIKjBTik9IQ7d+4Uatw1qG+ojJC3BcGhE/BwdMk6HMKCQ9DD4W4lqYb2gF5vYPXeTCEbo5OjLXrrQaRQnZ+X5V7X3DHJaLViD7Qvv/xSjaF83hvXq/Sur9hNUVlZSVZWluIB+3q6EhXsK+8yVoxGI/bAau/olJMoLDjEAvGkh8OyWLE7Q+h4B52W2WOSLfb6ahqUCw5/C+39o9VohD1LBw4c4OjRo8KaFfiyV665twUHiG+rDO4XJu8wVoy7i5OQqq8XcK9KjLTILRWbIru4ipP55UI2Lhs7wGI7MYt4OPy93XAQ8KiaiqGJ4YT6ewnZ+Pjjj9UYyhaMGSoWKziEAke3bxc6XAoOK8fLTSwiu0EKDmGaZNCozbFy90mh40MDvBiZFGmR1yYSo6LVaAi0wP4/c0aLeZTa2tr4+mtVqpB/3lvXrFRwlGEsAqaIbdu2iQmOeCk4rBlPN7FCPFJwiNMpGGSmkYFUFseafZl0CsY3XTZugEVeW1lNo9DxQb4eFnU9Hq5OTEiLFbKxaNEiKisrRYfSCizqresW8TMp3hc5ffo0xcXFyhePjwdhAd7yDmOleAkKjrqmVjmJgug0Yi5m0ZbhEvWpaWhh5/E8IRvjU2MJ8fO0uGsrrxUTHMG+lnVN00ck4uzoIGRDpe2UJUCdTQsOQDhveIj0clgtnnJLxeyIRsbr9QY5iRbI0h3HhdfFHAsMHi2rFqumGuJnWR6Oy8alCB1fUFDAxo0b1RjKF7153SKCY6fIiUUFxyAZx2G1eLmLeTjqm6WHQ/iLL7glIlKISWI6th3NoVTw4Xz5+BScHC2r8miZoIcjyMdyPBxpfUPpG+YvZOOjjz5So/ZGObDWWgTHcaBa6cFbtmwRGvgQKTisV3DIGA7zCw7p4bBJ9HoDy3aeELLh5+nKxUMtq4tsZV2T0DaeJXk4Lh8v5t0wGAxqlTL/AujozWsXERx6BLJVMjIyKC9XnsYVGuBlkXuNkvMjuqUi02JV+OILeji6pOCwWBZtOyYcPHr9lMEWVWBRrzcIZapYyrPCx8OVyYP6CtlYv3492dnZagzno16/7wger3hfxGAwCKfHDuory5xbI6IejsYWKTiEv/jCHg4ZNGqpVNY1se1ojpCNvmH+DO4XblHXJZKpYimCY/boJOHtqo8+UkUn7MG4S2EfggNU2FaJD0difYikxTa3tgu/vUlApxX76ssYDstm0dZjwjaunZxmUdckEpvi4+Fq9mJ1Wo1GOO24qqqKJUuWqDGcj8wyB4LHHwQUrwLRwNGhCVJw2JvgaJDeDVUQdZfLGA7LZk9GPoUVYtmO41JjCA+0nPIDosGwwWauxTGif6TwfH7yySe0tgoHzbcA31ij4OhEIFvlyJEj1NbWKj55eKC3cGlYSe8j0ttAxm+og2jzNellsmz0BgPfbD4i/EZuSV6OshrR1FjzbqtcPl7Mu2EwGHjvvffUGMo3QK055kCNAvOK3RR6vV44jkN6OayPAIEywzUNLXICVcBTxtHYPEt2HKexRaxJ3+zRyfhaSBfZ0mrrFRyB3u6MTYkRsrFhwwahxqc/4yNzzYMagkMoEGPz5s1ScNgRjg46fD2U38Aq65rkJKqAt7vYQ0RWe7V8mlvbWb5LLEXWxcmBqyYMtAnBYc5qo5ePTxFuIPfuu++qMZRsYJu55kENwbEPUNzKb9OmTUInH54YIe8sVkSAl5tQ/IBIapzk54JDtLy89HBYAws2HhKOt7lyQqpFNOuzVg+Hk4NOOFi0pKSEZcuWqTGcDwCzBWCpITjagd1KDz506JBQA5oAb3eiQ3zlncVaBIdg10bp4VAH8fLy0sNhDRRX1rP1iFjNBi93F+aONX9Tt/rmNppalW8RmSto9JJh8fh5uQnZeP/99+noEK7R1QV8Zs7PUKuSHcUuGr1eL5weOyxBejnsRXBU1TfLSVQBkVoonV16mts65CRaCQs2Hha2cf2UQTg6mL/cuUhPFXN5OK4Q3JLq6upSq/bGCqDIFgSHkGIQ3VYZlijjOKwF0S+9aNdIyf/eWpUi4zesi/SsQjILKoRsBPl6cOnwBLNfS2m1QPEvX89er546qG8oSVFBQjZWrlxJXl6eGsN519yfn1qCYxfG3F5FiHa9GxofLlyqWdI79PEXExxyS0UdvAUEh+xlY318tjZd2MYtlw4TLhgnLDgEUmOdHHV4CW4l9pSrJooH3KoYLLrW3OtQrdXT2i06FJGRkUFRkXJPj5e7C/3CA+RdxSoEh/K6KXqDgfIa6eFQgyCB/Wzp4bA+1qWfoqCiVshGeKA3M0YmmldwCAaOim7p9oRgX08mDooTsnHmzBl++OEHNYbzHsb+ZzYhOACE9kXEt1VkHIc1IFKorbKuifbOLjmJgjg66Aj2US44ahtlLRRrQ6838OX6g8J2bp85wqyxHKIezt4UHFdclCLsEXrjjTfU6FvUDnxsCetQTcEhtC8i02PtAxEPR3FlvZxANT4DP0+h5m1F8nOwSpbtPCH8wO7j52nWWI7KeusQHM6ODswTTIVtaGjgk08+UWM43wHllrAG1RQcewHFd6L169cLnXxIfBjOjg7yrmLBeLg6CWVHFFfJB50ahAWI9XMorqqTk2iFtHd0CZc7B/N6OSrrxLLUArzdemWcl45IEIqTAvj000+pq1Plu/aupaxBNQVHJwLpsfn5+WRnK88Xd3Z0YGDfPvKuYtFv1mJ9b0T3byVGQgPEPoeiCin8rJVvNh8WLnfex8+T6SPME8sh6qER6eN0oWg0cO2kNCEbBoOBN998U43hZADbLWX9qR1yLLQvIpqtMrJ/pLyjWDDBfmKFd6SHQx1EPRxF8nOwWhpb2vlui7iX49ZLhwmX6lZCbUMLXQIxDf5epvdwjB0QQ2yov5CNVatWkZmZqcZw3saMlUVNLTiEFIPotooUHBYuOAR7GUjBoZbgUO7hMBiguFJuqVgzn687QHOrmJcjNMCLmaP69/rY9QYD1fXKg5a9BEv6Xwg3XDxY2Mbrr7+uxlCagS8tae2pLTgOA1UigkMkIrdfeGCvRiFLeio4xDwcZdUyJVYNYgRaAVTVN9Ha3ikn0Yqpa2pVJZbj1unDzRLLIZKW7W3iOhxJ0cEM7hcmZCMrK4t169apoi2BGlsWHHpgs+KbWVUV6enKC9RoNDJbxZIRrTJaViNjOERxcXIgOsRP8fEyQ8U2UMPL0cfPk5kje9/LUS/Qx8fTxB6OGy8eImzj1VdfxWBQZRfkLUtbd6bYhBPaVlm7VqwY2sgkua1iqfh6Km+JXtfUKt+sVaBfWIBgSqzcTrEF6ppaWaiKl2NYr3s56i3UwxEa4MXENLFCX7W1tXz++edqDGcdcNQeBMcGswqO/pHIKueWiYer8rcL2ZZeHRIiA4WOzyqslJNoI3yhgpcjxM+T2aOTeldwCJTW93BzNlkbjOunDBYS82DsCtvYqMrW8RuWuOZMITgygXylB+/cuZP6euVuWz8vN/qFyTLnlik4nBQf29Ai+3eoQf9IsUZSGXnlchJtBLW8HHfOGombi1OvjVvEw6HVaITuQ+fCy92FWYJBtB0dHbzxhio64Qyw0l4EBxjdOYro7Oxk8+bNQieX2yqWibvATalRCg5VSIhQ7uEwGOBUYYWcRBtCDS+Hn6crV6vQpOyCBYdg80AXZ0fVx3T1xIG4Ctr98ssvKSgoUGM4b2ABfVOsQnCAGtsqUfJOYmOCo0mwWJEEnBx0QvUBiqvqhG/2EsuirqmVrzcdFrZz0yVD8BOI0eoJbR1isVyOOnVjTlycHLjiolQhGwaDgZdfflmN4TQAn1jqejOV4FgLKO6yJSo4BvUL7VUXn+TCECkUJANGxRkQE4KTQIBfZoH0btgiX64/SJOgl8PNxYkbLxnaK+Pt6BR7eXdSOch13tgBQgHxAGvWrOHoUVViPD8GLDay21SCowZQnN966tQpoTLnjg46hiWEyzuJhaFBeUCVwXKK5VktQwW/EyfzpeCwReqaWlmogpfjygmpwmXzL0xwiHWMdnRQ77HnoNNy3ZRBwnb+/e9/qzEcA8bKohaLKWvTCrkpRAufjBkQLe8klqc4lH+TpN4QRrRGzcl8GTBqq3yhgpfD0UHH7TNGmHys7cKCQz0Px6xRScL1hdLT04W7pXezGmPShhQcPT5YcFtl7IBomR5raUjRYDZcnR1Jjg5WfLzeYOB4bpmcSBulvqmVBRsOCduZMSJRuI/I+eiwEMGh1WpUKWP+0ksvqTU1r1r6OjOl4NiFYLv6jo4OxScP8vWgb6hMj7Uk9AJuCmdHnZxAAdLiQoVutFkFFUIlpSWWz2frDlDd0CJkQ6vV8Me5oyxacKgVw3HJ0Hgig3yEbOTm5vLdd9+pMZwjwHpLX2OmFBydCJQ5r6+vZ8eOHUIDGJsSLe8iFoRI+p27DAIWYpjgdsr+zEI5iXbw/fxkzX5hO+NTYxkY18d0Dy3B4lqdevGMUY0GbpomHiT7yiuv0NmpSkD8i1iBD9nU/YWF9kVWrVoldHIZx2FZNLUpFxwy60iMiwbGCB2/N7NATqId8N2WI5RUi/csum/eGJONUdRD0dHRJTyGCQPjiBPcOqqqquKjjz5SY0oKgW+tYX3ZtOBIje2Dt7sLEgsRHAK1NDzdnOUEKiS2jx9Rwco7xHZ26Tl0qlhOpB3Q3tnFu8t2C9tJ6xvKBMG+IudCNAZDNOgU4GaVvBsqlTF/BeiwhvVlasFxClCc33r8+HFyc3OVX5xWw4j+suqoxQgOgS0Vfy83OYFK38YEb/wncstobuuQE2knrN5zkiwVaq7cP2+MUO2dc+EkGM8lGgMyKimKJIEAbDCGDLz1lirNXOuBD61lbWl74Rw/iBws6uWQcRyWg0hAWoCXOzqtVk6iAiYOEhMce0/K7RR7Qm8w8I4KXo7IYB8uG5eivuAQ3VIRLBx2y/Rhwtfw5ptvUltbq8Z0vI0FF/oyh+AQUgyrV68WOvno5CiTdQeU9IzyGuXuQ61Wg7+39HL0lCBfDxIjxBq27TiWKyfSzth2NIf0LPFA4TtmDle9WZqDznxbKqOToxjUN1To/M3Nzbz22mtqTEUbFtoV1pyCYwOg+NV248aNtLQofzP28XAVqj8gUVFw1IrtV/YRLLBjj0wd0k+oHk1lXZOsv2GnvLF4p3DBPR8PV25SueS5aFxeh0BWyB0zxQubvffee5SXq1JE70vAqoKrekNwtCCQHtvc3CzcPXb8wFh597AAKmqbhI6P6eMnJ7GHzBgp1jJ786FsofopEuvlWE4p245mC9u5dvIgVV8WAgQ8nXqDQXEDwrEp0QyICRETOx0dvPLKK2pMgwF42drWVG9tigttq4jGcUxIk4LDEiipqhc6PlYKjh4RHxFIfLhY8bvNh8/IibRjXl+0gy7BuhVOjjrunqNeMTB/L3fFx9Y2ttLZpex61Cjb/vHHH5Ofn6/GNKwEjkvBce7JUX7wSqHDiQnxIzLYR949zExuWY3Y5ygFR4+YOTJR6PiG5jZZ8Mvev7OlNazcfVLYzrThCfSPDFJlTCKxXFX1yrysFw2MFd6a7+rqUrOM+T+tcT31luDIARSv2pycHE6eFFv0F6VKL4e5aWhuE9pWSYoKlv1xLhCdVsslwxKEbGw7mqP4bVBiO7yzdBctgmnRWo2Gh+aPU0dwCHg4quqae3yMRqNO7MaCBQs4deqUGlOwEdhhjWupN/MMhfZFli9fLiY4ZByHRZBTUq34WG93F8IDfOQkXgBjBkQL1y7ZcOC0nEgJFXVNfKVCY7fB8WGMTxWreKvTavERCBqtbui54JiY1peEiEChcXd1dfH888+r9ZE8b61ryWoEx9KlS4VOnhrXRxaPsgCyBQQHQEpsiJzEC2D+eLH6B7WNLew8nicnUgLApz/sp7KuSdjOA5ePFaqnExboJdRLpafXoNHAbTOGC1/3l19+Keyl72YPRg+HFBznYSsCBUp27dpFaWmp8gvVaGRvFQvgRJ5YimVqbB85iee7KQd4MzJZrMLumr1ZwhUZJbZDc1sH763YI2wnKtiXOWOSFB8f10ewf0l9zzwcUwb3Ew687uzs5LnnnlPro3jOmtdRbwqODow1ORSh1+tltooNcCynVOj40clRchLPw+XjU4SL3a3YnSEnUvILluw4zpniKmE7d80epbj7c2yoWOB4QXnthT8ctRrumCUeu/H555+rFbtxGMEEDHsSHABCZUNFt1VG9I/E1dlR3jnMSEFFLbWNygu5hQZ4ERHoIyfyHDg56Jg5Sqz2RnZxFSfzy+VkSn710mfgjcXisYp+nq5cP3WwomNFO7Se7oFgmjsmmZgQMYHT0dGhpnfjH1hBC3pLEhwrRSZs3bp1NDUp30d0dnSQzdzMjMEAx3LEtlVGSS/HOZk6NB4/T1chG9K7ITkX24/msjdDvLfOHy4eTJCvR68Kjpa2DkqrGi5MuDvquG26eOzGJ598QnZ2thpTnwl8b+3rp7cFRwmwV/GCaWlh3bp1QgOQ2Srm58CpIqHjRZuR2TLXTk4TeyPr7FKl7oLEdnn1+23C1WedHR24o4eFtBx0WiKDfBSfM6ek+oLHfc2kNEWC6BffpY4OXnjhBbWm/Z+A1QdVmaP9ptC+iOi2yriUaNl11MzszhCrtDckPowAb3c5kb9iWEK4cPrepkNnehxYJ7EvsgorWb1HXJTOHp3Uoy2LhIhAHAU6xV7odoqnmzM3XjxE+Po+/PBDcnJy1JjyXIx9U6weqxMcy5cvp1Og+Y6PhytDEsLkXcOMnCqsEEqx02o0TEyTXo5fc+2UQcI2vttyVE6k5Ly8tWQXre2dQja0Wg239qDV+6B+YvftC03Jv+mSoXgJNohrb2/nxRdfVGu6n8eYdCEFhwJOAFlKD66qqmLnzp1CA5gyuJ+8Y5gRgwH2CHo5Lh2eICfyZ0QF+wqnfWeXVAtvd0nsg/LaRr7eeEjYzsVD44kK9r0wwSHYFj77Ajwcgd7uXDVxoPB1vf/+++Tm5qox1bnAZ7aybsy1t7BM5GDRbZVJg+LktoqZ2XFMrKhUalwfYgUj1m2JayalCafCfr9VejckF85Ha/ZTLbj9ptVquOXS87evd9BpGRIfLvSScyGZV7fPHIGLk4PQNbW0tKgZu/EM0C4FhxhmjePw8XBlcL9QeccwI9uP5gi7ZOeNTZYTibHku2gqbHNrOytldoqkh2vmw9X7hO1cOjzxvM01U+P64OHqpPgceWU1VDf8fjp+ZJAPs0cnCV/Pyy+/TFGRKp7C08AXtrRmzCU4dgKKcyPPnDnDkSNHhAYwWW6rmPdm1dbBjmO5QjZmjEiUdVUwFvoSfStbuvMEjS3tcmFKesT3W4+S34NiWmd9CGk13HTJ73s5RieJpcIfPH1+AXDv3NE46MQeidXV1Wp2hP070GlL68VcgkOPYG+V7777TmgAkwbFCdXkl4izPl2s+p6Xu4sqbyTWjKODjisnpIp9GfUGFm46LBekpMd0dul5c/FOYTvTRyQS7Ov5O/frvmKC41Tx7/7/qbF9hM8B8MILL1BbW6vG1J4CFtjaejFnIIPQvsg333wjdHI/LzcG9ZXZKuZk29EcmlvF3qqvmzzIruNxLh4aL5wivPlwNoUVdXJBShSx6dBpjpwpEbLhoNMy/6KzNxxMiAg875bL72EwwN6T5y5WptHAI1eORzAEiqKiIt5++221pvVvtubdMLfgWAsozo3MzMzk2LFjQgOYPLivvFuYkdb2TtbsyxKyERrgxdSh9rs9ds0k8Yj6rzYclItRIvRAf2fZLmE7l49POesW6ZQhYt/vrPOk4V86PJHk6GBxhfC3v9HcrEoNmxPAQltcK+YUHC3AehEDotsqkwf3ldsqZmbJjuPCNu6YOUJ479UaGdwvjMTIILE7W145h04Xy4UoEWJfZqFwSrWXmzMzR/4y+Fmr0TB9hFgK/O/Fijk7OnD3nFHC15+Zmcmnn36q1nQ+gzHsQAoOtZ835hQc/l5upMXJbBVzciK3jMyCCiEbakWXWxtXT0oTtvHFugNyEUpUQY329TdNG4LTz6qJjkqO+t3Yjgth++8IjuunDqKPn6fwuP/yl78IFaT8GUeB72x1jZhbcCxFIMf4+PHjnDhxQmgAclvF/KhR/+G2GcOFMzWsiVB/LyYI9gUqq2lgw4HTcgFKVGF/ZiEHssS8HMG+nswe87+Xh7mCqe/lNY0czT57fImfpyt/UKGE+b59+1i8eLFa0/hXbNS7YQmCowbYJGJA1MsxZUg/ua1iZlbuPklNQ4uQjSAfD265dJjdzNnl41OE1+3CTYfp0uvlApSoxidr9wvbuHnaUJwcdYT6e3FRqpioXn/gFOfq13b3nFG4uzgJj/exxx7DYFCla/weYIUtrw9L2PgWUgxqbKsMS4iQdwoz0tbRyTebxdMyr586mIhAH5ufLwedllmihb7aOli8/bhcfBJV2XU8j5zSaiEbwb6eXD1xINdMThMW1evP4cHrFxbAnNHihQOXL1/Opk2b1Jq+PwMGW14fliA4FiOQ/nP06FEyMsQqJE6TfTnMzjebj9DSJtafyMlBx/9dfZHNz9VFA2Px83ITu1HuPEFDc5tceBJVMRjg643iLw+3XDqMOWPEBEFBRe05t1Memj9OWMx0dHTw6KOPqjV1K4DNtr4+LEFwVCG4rfL9998LDWDSoDicHR3k3cKM1DW1qvLGPTo5yuYDSOeNHSB0vN4gC31JTMfK3RnUNbUK2fBwdcZNsIrwsh0nzrqdMjEtjuH9xb3a7777LidPnlRjyvTAk/awNiwll9Cs2yruLk6MS42Rdwoz88mafTS3iXdhfviK8QT5etjkHIUGeAnfLHccyxUuRy2RnIvW9k6zC9ouvZ4Vu37r+XZ2dOCh+eOE7dfW1vL3v/9dreF+BRySgqP3WITAtsrhw4eFs1Vku3PzU93QwlfrxYtQebg68fQfpgp3T7VEZo7sL3xdC1RoKy6R/O4TdMNBs27Z7TiWR8VZin3deMkQQgO8hO0/99xzVFZWqjHUduBpe1kXliI4KoEtIga+/vproQGMTo7C291F3inMzBfrDwi7YwGG94/g5gtoe21NaDT8pjBST8kprWbf75R5lkjUoLGlna/N6OVYcJbquSF+nqqkwebk5PDmm2+qNdT/Amek4Oh9hPZFvvrqK6HUJEcHnSrNeyTiN6oPVu5VxdadM0cyJD7cZuZmUN8w4bezJduPYzDIdSbpnYe+OToQnyqqZH9W4W/+/ZErx6tSq+fRRx+lrU0V700j8Lw9rQlLEhyLgS6lB585c4Y9e8Qq3cltFcvgm81HOFUk7q7UajW8eMelhAV428S8zBRMhe3o7GLVnpNygUl6hfrmNj79YX+vn/fztQd+I6qHJ0YwMS1O2PauXbuEkxR+xitAmRQc5qEM2CZi4MsvvxR7g+wXRqi/l7xTmJkuvZ4XF2xW5U3cx8OVV+6dhYerk1XPibOjg7AHbsOB08IF1iSSHt2TNxykpLqh185XWt3AuvRTv/g3nVbLI1eOF7ZtMBj405/+pFaRr3LgJXtbD5bW8epbkYMXLlwoVM9eoxHvTChRh0Oni1m7P0sVW7F9/HjulmlW3cZ+4qA4YdG0bOcJubAkvUp7RxfvLN3Va+f7aPU+Ojp/6Si/ZnIacaH+wra/+uordu7cqdZQnwDqpeAwL98hkK1SUVHBunXrhAYwfUSivEtYCP9euIXqelXaPTM2JZq/3TjFajNXRINFy2saz7qvLZGYmjV7MzmRa/qdg+Kqepb/KhXWz8uN26YPF7bd2NjIY489ptZQjwIf2eNasDTBUY5gy/qvvvpKaAB9w/xJigqSdwkLoLaxhee/3KiavekjEvnTVdZXiTTQ253hiWK1N1bszkCvl9Gikt5HbzDwwlebTL7+Pl69/zfejYfnj1NlO/XZZ5+lqKhIraH+CYF4RSk41EUoEGPx4sU0NjYKDWCWHbY6t1S2HM7+zZ6sCFdOSOXRqydgTY6OS0ckCpdhlsGiEnOSkV/Odyp0hT4XOaXVv9kyHNE/UpW2FadPn+a1115Ta6irgLX2ug4sUXAsAZqUHtzU1MTy5cvFbvDDE2WpcwvixQWbKa9tVM3elRNS+fM1E61me2XmSLFtvqM5peSW1siFJDEr7yzbRZVKW6S/5pXvtv2i87GTg45HVeqrdP/996uVBtsJ/J89rwFLFByNwDIRA6LZKh6uTkxIi5V3CAuhtrGFJz78QdVW6pePT+GZmy/G0UFn0dfePzKIWMGAt5W7M+QikpidhuY2nvt8g+p2dx7LY+exvF/8220zhhMV7Cv+9rtkCatXr1ZrqO8Ddh25balh+0KKYe3atVRUVAgNQI3WxRL1OHCqiHeX7VbV5qXDE3jr/rl4WXCF2UsFg5jbO7tYuy9LLiCJRbDtaA5LdxxXzZ7BYODVRdt/8W+RwT5cP3WwsO3W1lYefvhhtYZaB/zN3j9/SxUcazGWO1dER0eHcPDo0MRw+vh5yjuEBfHpD+nsOJarqs3B8WF8/OgVRIf4Wt6XU6NhqmCa9rYjOdTLNvQSC+Klb7ZSUFGrii2NRsPFP/uOaDTw+LWTcFLBc/niiy+Sk5Oj1mX/A6iw98/eUv3JeiAGGKbUQFFREXfffbfQQm5obuPAqSJ5h7AQDN0P0PGpMfh5uqlm18fDlZmjkiiqrOdMcZXFXO+QhHCumjhQyMYbi3bIzrASi6KzS8/J/HJmjUpCo0Ic1aB+YWSXVJFTUs3s0UlcOzlN2GZBQQHXXnstHR0dalxyDnADdpqZYg2CA6AWuEXpweXl5cyaNYvQ0FDFAwgN8GLhpsPIZELLoaOziz0nCrh0RIIqfRF+xNFBx+TBffF2dyE9q0jVeBGl3HjJEJKighUfX13fzD8XbFarMqJEohplNY24uziRGtdHBS+HsflmemYhT/1hCq7OjsI2b7nlFo4cOaLW5d6OsfaGuXAAvIEAIBCIBeKAeCAS8AA0QGv3e53JsOTSizu7laFiPv74Y6EBhPp7MTg+TN4dLIyCiloe/e+q3+Tcq8FVEwfyxV+vJik62KzXqNNqmTxYrJT5mn2ZFiGcJJKz8fayXZwuUsej6O7ixOv3zcHX01XY1g8//MCiRYvUusz1wPe9NKWRwMXAAxi70G7BuI3TAVQDBcBpYD/GNiLrgE3dYqi0++9OAl8ADwJjAVc1B2jpeYHPA39RerCvry/FxcW4uCgPCly15yRPfbxW3h0skIuHxvPcrZeYJL21S6/n87UH+HD1PlraOnr92kYlRfHG/XOEbFz3/AIyCyrkQpFYLJFBPnz2+NUW0+uopaWFAQMGkJ2drYa5DmAgoHaamCeQAqQCad2/B3T/u9rUA4uAz7oFjNAbjKU3lxDKVqmpqWHx4sVCA5g8uC9ebs7yzmCBrN2fxbOfrTdJu3WdVstN04by/TM3MEOwrLgSJg4S62yZV1YjxYbE4skvr+Vvn6zFUnb9nn32WbXEBsDrgmJDgzGWcQ7wFMbWH6cxZrzsAN4B7gRGmUhsAHgBNwEbgVyMwa+KS3HrLHw9VgAzAMX7GvX19dxwww2KB+Cg01JV38LRnFJ5d7BAsgoraWxpY3RylEnsu7s4MTEtjpH9IymorKOkyvSdLzUaePyaibgLvPV9s/kI6Vky4Fli+eSV1eDl7kxKTIhZx3H8+HFuuukmurpU2aotBa4Azpci5gL0A0YC04BrgXuBJzF2k30EuBqYCCQBfphvZ8IbGAfc1a0d9mP04vRIQVk6dwNvKz1Yq9WSnZ1NVJTyB1J+eS2X/+0zZOyd5XLztKHcO3e0yc+z9UgOH67ay3ETNqPqHxnE53+5WsjG/Kc/l9VFJVaDg07Lfx++nIEqBJEqwWAwMGnSJDZv3qyWyf8Ca7oFRQDg/7PfQfwvgLOPlTyHz0YhcD9wwdsIOiu4qNMYg2AclS4kX19fLrpIeZlbb3cXjmSXUFhRJ+8MFsqh08U0NLcxKinKpH1SooJ9mTd2AEPjw6lpbKGwok71sO7Lxg1gSHy44uOzCiv5cNU+uSgkVoPeYGBPRgGXjkhUJcukp3zwwQe88cYbapoc2u2ZmA9MByYAwzHGXsQCIRi3QTRW/LF5AVdhzHhZwwV0ercGwdGK0ZWUotRAXl4e9913n1DOt7uLE2v3y4qNlsyxnFIq65oYOyBalfz+36OPvxfThicwc3QSnq7OFFfW09jSrorth+aPI8DbXfHxX288xKHTxXJBSKyKptZ2jmSXMH1EIjpt74UXVlZWctlll9Hc3Cw/BGUMxLjVsgJotnbBAcYgmT8oPbi2tpaLLrqImJgYxQOIDPJh+a4M1R4qEtNwMr+crMJKxqfG9EqfFE9XZ4bEh3P1pDRGJUXh5e5CVX0zDQqre/p5ufHg5eOEvDQvLdxCTWOLXAwSq6OsppHm1g6TxWSdjTvvvJPdu3fLyRcjCqM3Zw1QZe2CIw+4EfBRaqC9vZ358+crHoBGo6G1vZN9mYVyaVn6YimrQavVMCwhotfOqdFoCPbzZGRSJNdMSmPasATiwvxxdXakqbX9goXqmAHRQuXMCyvqeGeZvHlKrJdjOaWEB3rTLzzA5OfasmULjzzyiJx0dfAFLgdWnkt0WEsPdj3wKQLNbxYtWkRpaSkhIcojoeeOHcD7K/eapOCURD3GDIjm9hkjzDqGyGAfIoN9uGzcAADqm1o5WVBBdnE1xVXGbJey2kbqGltpaG6loaUNgwEG9xMrNLf1SI5cABKr5/kvNtI31J/4iECTnaO1tZXbb79dVuJVl1CMxc6GAyW/eTGzoguJBs4gUDvk2Wef5YknnhAaxBMf/cCavZlyWVkoA+P68NYD81Qte25N3P3KIumFk9gEkUE+fP6Xq3F3MU1RsMcff5x//vOfcqJNwx5gPPAL167Wii4gF2MZVsW89957dHZ2Cg3iiotS5VKyUPqG+fPKvbPtVmw0t7ZzUAaLSmyE/PJanv18g0lsp6en89JLL8lJNh0jgP/79T9qrewihJqjFBQUsHz5cuE36Phe2FuU9IywAG/evH+uXVeFPXSmhM4u2TtFYjusTz/Fom3HVLXZ3t7OLbfcIvzyKTkvT2HMYPkJa8sBdgWKEQgenTJlCuvWrRMaxIpdGTz96Tq5nCwEfy83Pvy/KwgP9LbreVi64zjltU1EBfvQx98LB93/3ic6Ors4U1xFVkElWYUVZOSX094hY5EklvudnjgojolpcQyJD//FWhblmWee4emnn5aT3DukY4zn0Fuj4ABj1dG7lR6s0WjIyMggISFB8QA6OruY88SnlNc2yuVkZjzdnPnvw5dLr1MPaW7rYOexXDYePMPWI9m0tsu3PYl50Wo0jEyOZN7YAYxLiVFVZPxIcXExsbGxtLW12cWcOjk5kZCQQFxcHK6urnh6euLp6YmLiwsGg4GysjKKioo4ePAgZWUmq558I8bmb1YpOFKBwyIGHnzwQV555RWhQXz6QzpvLN4h7xJmxNnRgTfunyOc2WHvNLa0s2rPSb7ZfFiWQ5eYRWhcPCyeO2eNICLQx+TnW79+Pffffz8ZGRk2M4cODg4kJCSQmppKSkoKiYmJJCcnExsbi4PDhcW05ebm8s033/D5559z7Jiq21g5GPvFdFlrWdVtwFilB/v4+FBYWIi7u/Jqjk2t7cx4/CNZCMxcNymthn/ePp1Jgl1VJf9DbzCw41gu7y7bLTvNSnqFcSkx3DN3FP3CetdDqdfr+f7773n55ZetruiXr68vAwcOZODAgaSmpjJw4ECSk5NxcXFR7RwLFy7kkUceoahItQaQ84HvrVVwXAN8JWLg/fff57bbbhMaxMvfbuOrDQflXaOX0WjgyRumMHt0kqp2v/rqKzw8PJg9e7bdC4/vthzhjcU7aWnrkAtOojpuLk78+ZoJTB+RaPaxnDlzhq+//pqlS5dy8OBBiwkmDQkJITY2lri4OBITE0lNTSU1NZXIyMheOX9jYyPXXXcdy5YtU8Pcd8AV1io4nIB8IFipgUGDBnHgwAGhQZRUNzD3iU/p0svMgN7kkSvHc82kNFVtfvTRR9x2220YDAZGjRrFk08+ybRp00zek8WSKaqs45nP1nNAtrmXqEhSVBDP3zatV7ZPekpTUxO7d+9m+/btHDlyhDNnznDmzBkaG9WN19NqtQQEBBAQEEBUVNRPwiI2Nvan/3ZzczP7fLS3t3P11VezePFiUVONQLA1302fB/4iYmDLli2MHz9eaBB//XANP+yTTd16i5umDeWPKrehX7ZsGZdffvlv3mxSUlJ45JFHuOaaa3BycrLL+dbrDby1dCef/pAuF59EmFmj+vOX6yb1Sp8jNSkrKyM7O5vKykrq6+t/+qmtraW+vh6NRoOHh8dPf+/i4oKrqysajYaAgAD8/f1/Ehg//re10NHRwaRJk9i+fbuoqfnWLDgigWwE+sHMnj2bpUuXCg0iq7CS657/Clkd1/RcMiye526Zpmr7+U2bNjF9+nRaW1vP+TdhYWHceuut3HTTTUINAK2ZbzYf4aVvtqDXy4UuUcaMkf35241T0Nqx19BaSU9PZ/jw4ejFvPnv66x4DuqAwYDiTcCsrCyuvPJKAgOV1+v393Lj4Kkiiqvq5ao0IUMTwnnxjumqpsodPnyYSy+99Lzu0oaGBrZs2cIbb7zBtm3b0Ol0xMTE4OxsP0XGkqODCfX3YuvhHKTkkCh5WXjmpovRaqXYsEZCQ0PJycnh8GGhBFE3nZUBriQmAAA+90lEQVTPQzVwg4iB9vZ2Zs2aJTQIP083Vsv+KiYjISKQt+6fi4uTo2o2s7KymDhxItXV1Rd8jMFgICcnh0WLFvHKK6+wZ88e2traiIyMtIj9VlMTHx6Ir6cbO47nykUpuWAmpMXxj9umodNq5WRYMX5+fnzyySciJgKsXW5qgEyMOb6KcHZ2Jjc3V6iLLMCN/1zI8dwyuSrVVtYBXnz86JX4e6n3QC8qKmLs2LHk5qrz4NTpdKSlpTFhwgQmTpzIuHHj8PLystnP5O2lu/ho9T65OCXnJSLQhy/+aroGbJLeo62tDV9fX1paWpTfK21gHhyBS5Qe3NXVhZubGxMnThQaRKC3B2v2SS+Hmni7u/Dfhy+jj796D++qqiomTZrEqVOnVLNpMBgoKSlh165dfPXVV/z73/9mwYIF7Ny5kzNnztDc3IxOp8PDwwOtDbzlDUkI50ReOQXltXKRSs6Jg07LG/fPIdTfS06GLXyeDg6sXbuWvLw8IQ+BteMLFGHss6IIPz8/8vLyfhFlrISbXvyGYzmlcmWqgLOjA+88OI/UuD6q2Wxubmbq1Kns3LnTbF/YsLAwoqOjCQkJwcfHBx8fH3x9fRkzZgxjx461ms+nvrmNa5/7itLqBrlYJWfluimDeGj+ODkRNsSsWbNYsWKFXXs4WoEIYKhSAy0tLYSGhjJ8+HChgQT5eMhYDhXQajW8cPuljExSr8BNR0cH8+bNY9OmTWa7Lr1eT11dHXl5eRw/fpz09HR27NjB+vXrSUtLY8SIEVYlCPuGBbBqz0m5YCW/IcDbnX/fOb1X0l+zi6vYl1lIbB9/ZAKMafnmm2/IzFT+jHOwkXl4GbgdUOyvfvnll7n77rvR6ZR/QUYPiCIlJoSj0sshxJ+uvIiJaeqVLNfr9dxwww2sWbPGIq937Nix3H333Vb3OQ1PjGDmyP4s35UhF63kF9xy6VDcTBS30d7ZRXpWIduO5LL9WA7FlcYMwTV7M3n82kkE+rjLD8BEiBZAsyU9uBiYK2Lg22+/Zf78+UKD2Hk8j/vfWCpXpkLumDmCO2aq+6b/wAMP8Prrr1vk9cbFxbF7927VCwF16fVk5JXT3NqBn5cbsX38TJKSWNvYwpwnPqWpVfYUkhgJ9HZn6XM34eSonnejs0vPtqM5rN2XxY7jeTSfY715uDrx4OXjmDMmWXo7TEBQUBAVFcr7LNnSRzIGECqFNmzYMPbu3Suu7v/1LUeyS+Tq7CFzxiTzxPWTVb1RPPXUUzz77LMWeb1eXl7s2bOHxET1+knoDQYWbzvGh6v2UV77v7cRX09XJqbFMXdMMknRwapex4er9vHOsl1yAUsAuGfOKG65dJgqtlrbO/lm82G+XH+QqvrmCz4urW8od8wcwfDECPmBqMSZM2fo27evkA2dDc1HATANCFdqoLi4mOHDh9OvXz+hgQT7esq97R4yNiWa5265RNW38Pfff5//+7//s8jr1Wg0LFy4UNVA0drGFv707kq+3nT4Nx6H1vZOMvLLWbz9OLsz8okJ8SPYz1OV8/aPDGLZzhOy0ZsErVbD0zdNVSUNdu/JAu5+ZTEbD57p8doqrW5g5e6T7D6Rj7+XOxFBPnbn8ahvbgNQrVji+++/z/r166Xg+Pk9F7hSxMCpU6e47bbbhJp2hQd6sycjn7KaRiTnJzk6mFfvnY2To3ohRcuWLeMPf/gDBgutOf/EE0+oGrdRWt3AnS8vuqBaMGU1jSzflYEBGNwvXPhG7Oigo629k/1ZhXIx2zmjk6OZPz5F2M63W47wxIc/0Ci4VVdW08iafZmsTz9FQ3MbQT4eeLm72NSc6w0GCsrr2JdZwJp9WXy14RBvLtlJc2s7I5OiVBFaer2eO++8k8rKSiGngK1pPh1wEhDy+6xYsYIZM2YIDeRIdgm3/vtb2WPlAsTZR/93BX4qFvbau3cvkyZNoqmpySKvefr06Sxfvly1mhyVdU3c/tL3FFTU9vhYtbaxquubmfmXj2nv7JKL2o554vrJzB2bLGRj1Z6T/O2TtSa7dyZHB3PJsHhGJkURE+JnVZ6PxpZ2ThdVcqqoklOFlWQWVJBdUv0LD5BOq+WRK8dz5YRU1c776aefctNNN4maWWGLTqZ7gLdEDAwePJj9+/cLtyb/8/urWZ9+CsnZ8fV05cP/u4LIIB/VbJ4+fZoxY8ZQXl5ukdfct29f9u7di6+vryr2mts6uO2l78gqUB7I9YeLB3P/ZeJbO09+9INMC7djNBpY9cKtQlkiRZV1XPX3L2lt7+yVMXu7uzAwrg9pfUNJiwslMTJI1WDXnmIwQEVtI4UVdRRW1lFYUUdRZR1FlfUUVtRR29hy3nvqC7ddytCEcNXG1NraSkJCAvn5+aKm/uFgg+v+E+AZQHHY/4EDB1ixYoVwj5X7541h65Fs2jvkW9+vcXFy4OV7ZqkqNkpKSpg6darFig0PDw8WLVqkmtjQ6w389YM1QmID4LO1B0iKCmbKELHYpUuGJUjBYcf0CwsQTkl9fdGOXhMbAHVNrWw9ksPWIzk/iaYgH0/CA71/8dPHzxN3VyfcXZzwcHHqccpvfXMbtQ0t1Da2UNvUavzd2EpNQzO1jS3UNLZQVFFPUWWdYi9hUlQQ/7pzBiEqxWb9yBtvvKGG2ADYbYuCoxl4G3hKxMjTTz/NzJkzhbwcoQFeXD0xjc/Wpsu70c/QabX8684ZpMSEqGazvr6eGTNmqNYfRW20Wi1ffPEFKSkpqtl89fttbDuao4qtF77axOB+YUJbW8P7R+Du4iRTZO2UAYLf57yyGjYdPGPWazAYoKymgbKaBtLPE5Pk5eaMu4vTb7ZGG1ra+HE/yAA0dAdvmgqNBq6ZlMYf545R3TuTkZHB3//+dzVM1QJrbbV931tAi4iBAwcOsGzZMuGB3DZ9mKqNx2yBP101ntHJUarZ6+jo4IorruDgwYMWe83/+Mc/mDNnjmr2vttylK82HFL1Te+tpWKprU4OOlU/V4l1kSyYbr1s5wn0VhT0Vt/cRkl1Q/eWx/9+6ptaqW9uo765zeRiI8jHg7fun8fDV4xXXWw0NjYyf/584WJf3SwG2mxVcJQD74saefLJJ9Hr9UI23FycVC9kZc3ceMkQrrhIvWAmg8HA7bffztq1ay33mm+8kccee0w1e7tO5PHvhVtUH+eKXRnkCzZkG9QvTC5yO6V/ZJDQ8ZsPZctJ7AEXD43n6yevZXh/09QaufPOOzlx4oRa5haAQClwK+BFUS/H0aNHWbpUvGrovLED6Bvmb/dfkClD+nHv3NGq2nzsscf49NNPLfaaJ0+ezH//+1/V7J0pruLP762mS1AIn40uvZ6Fmw4L2RgsBYddotFAhEA8Vkl1A3llNXIiL4A+fp68eu9s/nHbNJOl+L744ot89dVXapnLAjbauuAoBt4TNfLUU0/R1SUW9KnVanjg8rF2/SVJjevD32+6GK2KOWivv/46//73vy32mi+66CKWLl2Ks7OzKvbqmlp56K3lJo2RWLXnJB0Cqa1xoX5mjfKXmIdAbw9cnR2Vv9zJysznRafVcs2kNBb+7XrGpkSb7Dwff/wxjz/+uJom/wp02brgUMXLcezYMT744APhgYxKimJcSoxdflEiAn14+e6Zqj6IvvvuOx566CGLveb58+ezZs0a3N3VaSSl1xv4ywdrKK6qN+m4G5rbhAp4aTQaBvWVXg57IzTAS+j400VVchJ/h2EJ4Xz+l6t55MrxuAkIu/Px5Zdfctttt6lZMHEv8P1PL982/jmVAO+q4eWoq6sTHsxj10ww6WKxRLzcXXj1j7Pw8XBVzebWrVu54YYbhONrTIGLiwuvvvoq33zzDS4u6rk731q6kz0Z+b1yDQeyioSON+Xbl8Qy8fMU+34XVtTJSTwL0SG+vHzPLN556DLiwwNMeq6vv/6am266Se376p8xJuvYheD40cvRLGKgvLycF154QXggIX6e3DZjuN18WRwddPzrjulEBfuqZvP48ePMnTuX1tZWi7veOXPmcOzYMR544AHhonE/Z8OB072aWp2RL1bHJCrYRz4p7AzRF4oSE3vurE7Aebnx6NUTWPjUdYxPNb1n/PXXX+e6666js1PVGihrgE0//wd7EBxlwDuiRl555RXOnBHPEb9uyiDiIwJtftI1GnjyhsmqVrwrKipi+vTp1NRYTnCZTqfjyiuvJD09nSVLlhAXF6eq/eziKp75dF2vlsj/eZdZJbg6OyGxL7wFgxfrmlrlJAL+Xm48NH8cy567iSsnpKLTmvYRbTAYePzxx3nggQfU9mzogd8Egmjt5HP8FyDUWKO9vZ2//OUv4g8orZa/XjfJ5AvJ3Nw9exTTR6jXdr22tpZp06apVfFOmH79+vGPf/yD/Px8Fi5cyODBg1U/R31TK396dyXNvdyFta1D7C1Hr5cNhOwNFyexreJaOxccAd7uPHzFeJY9fxPXTRmEi5Ppa3K2trZy00038c9//tMU5t8DDv36Hx3s5PMsx1h9VKhX+bfffssDDzzA6NFiqZ3J0cH84eLBfLxmv01O9qxR/bnl0mHqPQDb2pg7dy7Hjh0z63WlpqYyb9485s6dS1pamknP1dml57H3VgnXxVCCk4PYbcEgOxbaHaIt0DvstOnfgJgQ5o9P4eKh8b2a3VVQUMDll1/Ovn37TGH+IHDWiH4HO/ps/42xsZvitAGDwcBDDz3E7t27hffo75g5gm1Hc2wuOjutbyiPXzdJNXs/FvbasmVLr19LQEAAkydP5uKLL2bq1KlERET02rn/9fVm9mWap917H3+xjIMO2TFWCg4FAtte8HJzZsqQflw+PoUEM2yvb9myhSuvvNJUPafqgCuAVnsXHBXAa4DQvsjevXv56quvuO6664QG4+ig4283TuXmF7+xmS9beKA3L901AycH9ZT6U089xeeff94r4+/bty+jRo1i1KhRjBkzhgEDBqjWQr4nfLXhEIu2mc+bkxQlVjFS7sfbH1qt2AuYrW/Debu7MCEtjsmD+zI8MUJYoCl9eXvllVd47LHH1A4O/ekUwM3AOYMdHezse/FP4FZAqOj/448/zpw5c/Dw8BAaTP/IIO6cNZK3luy0+on1dHPmlXvVTX/9+OOPee6550wyXhcXF4YOHcqoUaMYPXo0o0aNIjg42OzzuONYLq9+v82sYxCtF1Pb1ILEvtAJCg5nRx3Nbbbj5dBqNCREBDIsMYKRSZEMiQ8za9xecXExN998s6lbQLyMsWcKUnAYaQCeRLACaUFBAU8//TQvvfSS8IBuvGQI+04WsPdkgVW/3Tx78yXEhPipZnPz5s3cddddqtkLCgpi7NixjB07llGjRjF48GCcnCwrm+JAVhGPvbfKrG97g/qGCjfhqq6XgsPe8PMUa1AZ6ONh1aXNtVoNcX38SYkNYXhiBMMSI4Qzd9Tiu+++46677qKqyqTb96s4S1bKr9HY4XdDBxwAhDqI6XQ69u3bx6BBg4QHVF7byLXPLaC20Tpv1I9dM0HVhmwnTpxgzJgx1NbWKrYRGxvL2LFjGT9+PGPGjCExMdGi5/DImRL++PqSXs9I+TkuTg589vjVxPYRE47/XrhFuCeLxLp47Y+zGTMgWvHxjS1tfLn+IIu3H6eyrsmir1WjMcY5JUYEMSAmhAExwSRGBllcUcfa2loefPDB3ug1tQW4lAuo6u1gh9+NLuARYJ2Qka4u7rrrLnbt2iW8zx/k48Hfb76YB99cZlXtmQGumjhQVbFRWlrK9OnTFYmN5ORkrrjiCq666iqLFxg/Z09GPo/+d5VZxYZROE4UFhtgXwGAEiOimU0ers7cOWskt88YwYFTRezPKuRAVhHHcktp7zBPELKTo45Qfy8iAn2IDfUjto8fMX38iQnxFeob0xt8/fXXPPTQQ5SWlpr6VPuA2VxgCxEHO/1+rAdWADNFjOzdu5e3336bP/7xj8IDGp0cxV2zR/L20l1WM4mjk6N45Irxqtlrampi1qxZ5OXlXfAxI0eO5JprrmHevHm9mkWiFkt3HOcfX24ySffXnjBrVH9mjeqvii2ZpWJ/qBWeoNVqGJoQ/lPBwPaOLnJKq8kvr6WgvJa8slqKKuuob2qlrvunpwLXxckBHw9XfD1c8fV0xcfDFR8PFwK83Qnx8yTU34s+/l74e7lZ3eeQk5PDvffey+rVq3vjdMe6PRsXXCbWwY6/I38CLgGEpOqf//xnpk2bRt++fYUHdPO0YWQWVLDhwGmLn7yYED+ev3WacHT6j+j1eq6//nr27z9/bRKdTse8efN4+OGHGTVqlFUuvraOTl79bjvfbjli9rH0jwzisWsmqmZPejjsD9HCX7/nZUiICPzd9NHm1nZqm1p/Uf+lrb2Tts4uvNyc0Wg0eLg646DV4OZim1Vw29vbefXVV3nmmWdobm7ujVMe7X5+9igwxJ4FRybGkuf3i76V33777WzYsEF4a0Wjgaf+MIX8slpOFVVa7MT5erry2h9n4+nmrJrNhx56iCVLlvz+zcfJiTvvvJMHH3yQ2NhYq114p4oq+euHP5BdbP4aLIHe7vznnpmqVjaUgsP+8DOjN8DNxclmhcT5MBgMfP/99/z5z39WpfXGBbIVmAPU9vRArZ1/T/4OCIdGb968mbfeekuVAbm7OPHaH2cT5ONhkRPm5KDjpbtmCrej/jlvvPEGr7/++u/+zdChQ9m3bx+vv/661YqNptZ2Xvt+O394YaFFiA0XJwf+c/dM1ddaZ5fcUrEnNBqscvvB2tm/fz8TJkzgiiuu6E2xsbjbs1Gr5GB7FxxV3aJDmMcff5zTp9XZCgny9eDVe2dZnGrXajQ8c/PFDIzro5rNNWvW8NBDD537oejiwgsvvMCuXbtITU21ykXWpdezbOcJLnvqMz5fd8AiYhwcdFpevGM6SdHq1x6RHg77wsfDVdVif5LfJysri2uvvZbhw4ezdevW3jz1f/mdKqJScFwYbwMnhN9em5q4+uqraW9vV2VQ8RGBvHHfHItKtXpw/jimDumnmr2MjAyuueYaus7xRtynTx92797Nn//8ZxwcrG/3r62jk282H2bek5/x98/WU1XfbBHj0mo0PH3jVKE0Rik4JD8S6O0uJ6EXyMzM5IYbbiApKYkFCxb0Zs+iLuBR4K7u/1Z+75EfI+3dEyn86aWnp/Pkk0+qNrCBcX34910zerWpz7n4w8VDuHZymmr2KioqmDFjxjnTX2NiYtixYwcDBw60ugWVV1bD64t2MOsvH/Ovr7dQXFVvMWPTajT85bpJTBueYLJzSMFhZ4LDQrd/bYXs7GzuvPNOBgwYwBdffHHOFzQTUYlxC+XfahhzkB8nANuAjzCWPRfipZdeYsqUKUydOlWVgY3oH8lLd87k0fdW0treaZbJuXbyIO6bN0a9N/+2NubNm0dOTs5Z/39PT0+WL19OTEyM1SyguqZWNh86w7KdJzh8psQix6jVanjyhimqpb+eC5kWa2+CQ3o41MZgMLBx40beeecdFi9ejN48afMHgMuAPLUMSsHxPx7FWMBEqH2fXq/nxhtv5ODBg6r15hg9IIq3H5jHg28to765rVcn5cZLhqgqNn7s/rpjx45z/s2HH35IcnKyxS+YspoGNh/KZtOhMxw4VWTRDagcHXQ8feNULhkWb/JzSQ+HnQkOuaWi3otLXR0LFy7k9ddf5/jx4+YcymcYPf+qlr+WguN/VGOsQPqZqKGSkhKuvPJK1q9fj6OjOjEYqXF9+OBP83nwreW94qLXaODu2aO45dJhqtr9xz/+8bvdXydNmsQVV1xhkQukraOTw6dL2HMyn70ZBZwsKMcaCsO6uTjx4h2XMiopqlfOJwWHfREgBYfYfaWtjXXr1vHtt9/y7bff0tJi1hYXdcC9wJcmea7Ij/s3rASmq2HogQce4NVXX1V1cPVNrfz1wx/YdSLPZBPg6uzIMzddzKRBcaraXbRoEVdcccXvugcPHDigSn8aNahtbOFIdilHs0s4fKaEYzmltFvZdkFEoA//uXsGsaH+vXbOa579yqLryEjU5eV7ZjE+NUZOhEKRsXTpUurq6ixhWFuAG1FxC0V6OM7PHRhLtvqIGnrttdcYNmwY1113nWqD83J34bU/zuaDVXv5aPU+1d8mY0L8+Mft0+gXFqCq3f3793PDDTf8rtgYOHCgWcVGUWUdh8+UcOh0MYfOlJBTUoWVtbb5BaMHRPHcLdPwUrFAm/RwSH6NjOG4MLKystiwYQPr169n3bp1NDQ0WMrQ2jF2UX8JMOmXVwqOszx3gAeBT9Qwdvvtt9O3b19GjBih2gC1Wg13zBzBRQNjeebTdWQVir9NajUarp0yiHtmj1I9K6awsJA5c+act+Rub26lNLd1cCy7lMPZJRzNLuFIdgmNLe02sYAddFrunDWSGy8ZglbT+07MDln4y74Eh9xSOed9b+vWraxfv54NGzaQn59vicM8gDFZ4lCv3JvksjgrnwLzEWzuBtDS0sLs2bPZuXMncXHqblEkRATyxV+uYcXuDN5dvpvymkZFdkYlRXHv3FEkRgapPpGNjY3Mnj2b4uLi8/7t0KFDTfaB1jS0cOhMMQdPFXPoTDGZ+RVmb5hmCqKCfXn2lktIigoy2xikh8N+0Go1+HkqrzLa1dWFTmf9RcMaGhrYv38/e/bsYc+ePezdu/eC7nlmpAl4Cngd6LX0Ryk4zs0dwBFAeG+hvLycGTNmsGPHDvz9/VX/ws8encS04QmsTz/Fd1uOcjSn5LxbAU6OOiYN6sv88Smk9Q01zYOns5Mrr7ySgwcPXtDfq50Gm19Wy8aDp9l48DQZ+eVWvT1yIV6NG6YO5rYZw3F2NO/X2pKzdSTq4u/pJtTA8b///S+rV6/moosuYvz48QwePNiii/y1t7eTlZXFiRMnOH78+E+/MzMzzZW6qoQVwB8xYayGFBw9pwS4BViKCsG1mZmZzJkzh7Vr1+Lmpn7fAScHHdNHJDJ9RCIVtU3sOpFHZkEFhRV1NLa0odcbCPB2JyLIm7S+YQzuF4aHq+lKpxsMBu64444etUlWQ4w1t3WwfOcJFm07xhkL6FfSGwyJD+dPV41XPe5GseAwSMFhLwT6ihX9ysnJYcWKFaxYsQIw1uAZM2YMQ4YMoV+/fiQkJNCvXz/VX9R+j7KyMvLy8sjNzSUvL++nn1OnTnHmzBk6Ozut9eMqxhgu8K3ZXozkV+Z3WQ68CdynhrEdO3Ywe/Zsli9fjqurq+luAj7uzB6dZNaJe/LJJ/n44497dEx1dbXwjaWspoENB07bhdiIDvHlj3NHMyEtzqLGZZCCw24Qbfz3622HhoYG1qxZw5o1a37x735+fvTr14/AwED8/Pzw9/f/xW+tVotOp8PL67dNJVtaWmhtbaWpqYn29nYaGhpoamqisrKSyspKKioqqKio+Ol/t7W12drH1IQxIPTf3f9tNqTgOD+PAuMBVWpsb9iwgcsvv5wlS5bg5GSbLZXffvttnn/++R4fV15eTr9+Yr1aYkL8+O/Dl7MuPYv3V+wlp7Ta5uY3JsSPW6cP4+Jh8WYJCj2v4JD3DLshwFvMW3uhcQ7V1dXs2bNHTnjP+P/27jy8qvLQ9/g3MwmZw5QZgswgFSwiiEAFBAdQW1TotZ6nx2pH69EiPt7bHs/x9ioWj7ZOxxGH9io4XjgeARUiyiCKBkEQEhIgEiCQQAYyZ6/7x9pYsaB7r3fP+/d5nvVo615r7bzvSvZvv6MLezzi77EnQwSdAsd3awPmAR8BPhmO/dZbbzF37lyWLVtGUlJSRBXWI488wm9+46xBaOXKlUycaL6qaUwMzDh3MNPGDmLNJxUse+8zPtl9IKzLNS42lgvPHsCPJo9i3NAiYkJ4BR21cESPfllpAQkc4rU12AtZloXSm9LCX567FnjRlxecMmUKb7zxBhkZGRFRQPfffz8LFixw/IFTUlJCRUUFMX74NK08WM/KzbtY+dEuao42hk2Z9slKZc6E4Vw5aaRx87XHX4tcLmJjne/rOH3BkxxratVfjCjwv396sdFGgKmpqZw4cUIF6TvrgX8D3g7FN6fA4eVnKnCrLy84atQoVq5cSV5eXlgXzKJFi7jjjjuMr7NhwwbOP/98v77XPTV1bPh8H5+W1/D53kMhs238SYPye3Hh6AFMPruEYcV9A9qa0dLSwvLly7n22msdX+Oi256g4USb/lpEgad+9yPHs9zq6uro1auXCtE33gf+HXgnlN+kulS8sxAYA0zx1QW3bdvG5MmTWb58OcOGDQu7Aunq6uKWW27hkUce8cn1nnvuOb8HjoF5OQzMy+G66WMAOFjfxLbKg2yvOsznew+xq/pIwHbmjY2JYUBuNiP692XkgH6MH15EXk56UOqytraWyy+/nEsvvdToOupQiR65Oc67VPbt26cCNLfO3aKxJhzerAKHl5+vwDXAx0Chry5aUVHBuHHjeOaZZ0J247LTqa+v5+qrr+bdd9/13Temp57i+uuv93voOOWPZnYaudlpzDjX3knVsuBgfSN7Dx2j6mA9NXWNHKpv4vCxZmqPN1PvoEUkJSmB/F4Z5PVKJ79XBvm90hmYl8Pw4j6k9Aj+4OFt27ZxxRVXUFlZyWWXGa53pzEcUSEuNtZo47YQXXkzHLQCy4D/BDaF0xtX4HDwRRB7BdL3AZ99FW1ubuaaa65hy5Yt/PGPfwz51fe2b9/OnDlzqKys9Ol1u7u7ue666ygrKyM1NTUoP1tMDOTlpJOXk86EEaffYbWppZ2m1naaWzvodrlobes8ZYXNtJ5JpCYnktrD/mdCfOjW57Jly/jpT3/6VV+66RgaxY3o0CezJ3EGY30UOLz2BfA49syTY+H4AyhwOPMZMBd7xbYEX13UsiwWLVpEaWkpS5YsCckuFsuyePLJJ7nttttobm72yz327NnDzTffzDPPPBOyD0BaShJpKeE9w6izs5M777yT+++//5SBvsaBQy0cUaFfttkMFQUOj3QAr7tbM94L9zwfq/p0bDXwC39c+MMPP2TMmDEsWrSI7hDaCGvfvn1MmzaNm266yW9h46QlS5awYMECPWV+UlVVxdSpU1m8ePE/BASTGSp24FD5KnAocBhow1508qdAHvYMyVIioPFQgcPM08Ddfnni2tq44447GD9+PKWlpUH9Idvb23nggQcYNWoUa9YEbmzS4sWLufnmm/WN2YdOtlCNGjWK9evXn/Y1auEQT+QaDm5W4DjFceD/Yrec9wJmA0uAiFoyWYHD3Mkd9/zi448/ZurUqUyfPp2ysrKA/mAul4uXX36Z4cOHc+utt9LU1BTwwn3ooYeYP39+UO4dafbs2cP06dO58cYbv3XtA43hEE/0NdxHJcpnqbiAT4EHgZlAX+DHwCsEeflxBY7Qdwv2YB6/eeeddxg7diyzZ89m1apVft2ZsLm5maeffpqRI0dy9dVX+3xgqLdeeuklxo4d6/Gus3Kqjo4OFi1axKhRozyaUaQWDvGESZdKe3s7hw8fjqbi6ga2AP/hbr3IwV5i4V+AVdhjNSKeBo36hgX8EkgC/smfLQ4rVqxgxYoVDBo0iBtuuIE5c+YwZMgQ8x/Asti0aRNPP/00S5cu9fsYDW+Vl5czYcIE7rzzTm6//faIWxLeX1577TUWLlxIRUWFx+eYBw6VezTINQgc1dXVkR5M92MvK/4p9rYYHwAN0f7MKHD4MA8ANwBxwHWB+ABeuHAhCxcupKSkhFmzZjF16lSGDx/OWWedRUJCwnd+6921axelpaWsW7eOdevWUVtbG9IF3NbWxh/+8Aeef/55HnroIWbOnKmn7gw++OAD7rzzTt5//32vzzXvUlHiiAZ9DQJHBI3f6AQqvhYuTh51ekIUOPytG7geOIrdVBYQlZWVPPLII1+t9hkfH09JSQlFRUWnbNnc2dlJTU0N1dXVHDp0KGy/YVRUVDBr1iwuuOAC7rrrLi666CI9eW4bNmzg3nvvZcWKFY6vYbyXjfJGxEtPSaKnwYJ1YTZ+ow3Y4w4WJ/958t/3Yy8IKQocQWFh77dSC/wfgrBfTVdXF7t372b37t0R/y1+2rRpTJkyhdtuu41LLrnEeEpnOGpra2Pp0qU89thjPtnCW4NG5bsEcUrs69i7dvcDersPbz7HWt0B4jj2uIlmoB44BBzB3sb9iPt/H3T/e60eawWOUHev+0F9XOXsX6WlpZSWllJSUsIvfvELrrvuOvr27RvxP3dFRQWPP/44S5Ysoa7Ody24GjQq3x04zKbEVldXO82y84D2M/z3HkDyNz7f0oAmd7hoUM0Fl2ap+NczwCWoPy8gX3wrKytZsGAB+fn5XHzxxTz77LM+/SAOBcePH+fFF19k5syZDBkyhMWLF/v8Z9SgUfF3C4fDLpXD3xI2cLdcHPvacQSodP9TYSME6Ju3/70NnAu8ij0NKho1Yw+knQdc7e+bdXd3s3r1alavXk1cXBzjxo3jkksu4cILL2Ts2LH07NkzrAqvqqqK5cuXs2LFCtatW0dnZ6df76cWDvnuwGG2BofDLhWtFKbAIR7YC0wEHgb+Ocp+9mrgCuAT7OXgs4Dpgbp5d3c3GzduZOPGjfYDHx/PiBEjGD9+POeddx7nnXceQ4cODamxH19++SWbN29m48aNrFq1im3btgX0/saDRkUtHN8RSB12qWg/ewUO8VAb9rTZTcD9+HCn2RD2CvBz/t6l1ALMAV7DXl0v4Lq6uti6dStbt27l8cfttdoyMjIYM2YMw4YNY9iwYQwdOpShQ4eSn5/v1w/fzs5O9u/fT2VlJVu2bGHz5s18+OGH1NTUBLXSjFsoYtAQOwWOMzpy5Aitra1Ov7yIAod44SnsbpYnA/lNP8DqgF8DL53mv7W6WzyWYa+4F3QNDQ2sXbuWtWvXnvL/JyYmUlBQQEFBAcXFxeTl5ZGdnU1mZiZZWVlkZmaSmZl5xtaR48eP09DQcMpRXV1NZWUlVVVVVFdXh9TmfCeZvqe42Fhcrm79pitwnL6ZwvmUWAUOBQ5x8jsHXAzcCPwJeyR1pFjh/rkOfctr2oEfYW9W9KNQ/UE6OjqorKwM+tLu4Rc4YujU73jkfmjExdIr3fk4KIMpsRrDEeY0SyV4LOwps6OAFwn/RuiD2Iuezf6OsHFSJ3AN8L/QwjkRFTiicS2UaNInK5XYWOddjQaB46hKX4FDzOwD5gPfB94Nw/d/DLgDOAt43stzXcAfgYuwF9yRENDVZZb/4mI16DSS5WYHbVv6NpW+Aof4xhZgGvZgyrIweL8nsFdSLQEWYQ8IdWodcA7wlh6D4DNu4dAsl4gWxFVGW1X6ChziW6vcH75TgZch5LrDDwL3YLdo/E/sJYJ94QhwKXa3zGE9BuEbONTCEemBIyhrcIBaOBQ4xG9KsRfJKsLusgjmgKlu4B33+ykG7sSzcRresrC7ZYYAf3HfV8IscGgMR6QHjqCsMgpq4VDgEL87hN1lMRC40N26UIb/B5m2AmuB24EC7Cm8gWpxaQB+i71Cq7pZwi5wqIVDgeMMf1RaWzl61PHYT7VwhDlNiw0fXcD77uNOIA+YBfwAGAYM5dSNi7x1AtgIvIfduvIR375vQSCUYe9Fcx7wr+6fV0I8cMSrhUOB4wz2799vsrCcAocChwRJDfC0+wC7tarIHTyGYW/fnOn+b4nYWzqDPTPkEPYiOl+6j/3YYzNCdXrqh+7gMQ64FbgKSNAj4JGj7vr3eGqBWjjk2/TNMgscBtSlosAhIcKFvWfLXmBlhP6Mm4FrsVt3bgRucgcr+UcbgUexu8HWucOaR8ynxaqFI1JlpiaTkuQ86xsEjk40pivs6S+DhKMa4C7sFp3LgL9h70gb7ZqBJ7BnOU0A/ordLebVN0OXy2X2R0XTYiNWXq+grcFxQqUf/tTCIeGsE3jTfaQAl7uPGUDvKCmDWuC/sJeUX83p10PxKnAYt3DEKXBEqvwcs8BhMEOlSaWvwCESKlqApe4jFnuGy0zgfOxBp1kR9LPuBJa7j03Y3WnfRi0c4hOmLRwG+xIpcChwiIQkF/Z4j83u/x0DDHYHj5PH2YTHwFOXO2B86D7WAuVeXsOr0f1ah0POJL9XhtH5VVVVChwKHCIRzQJ2uY+T+70kA2OA0cBw/j67Jy+I77Mbe9ZQ2dcCxkc++GPrVeAw7VLRLJVIDhzOWzg6OjqoqalR4FDgEIk6rcB69/F1GdiLrBVgr6paABS6jyzsqcaZ/H2asTf3a3Afx7GnIlcBlV/7536gww8/a0BbOLQOR+Qy6VLZt2+fSXedAocCh0jEaQA+cR/fJsEdTr75F7gHf1+AreFrR0cQf6YAd6mohSMSxcbEGK3BYTB+A6BRNaDAIRKtOrEX1ToaBu/VqxVjFTjkdHpnppIYH+f4fIPxG6AWjsgIrSoCkYgX0MARp1kqESm/t9kMFQUOUeAQiXwBXYcjweBbsISuPMM1OPbu3avAocAhIhHOqxaO9nazPfsUOCKT6ZRYwzEc9aoBBQ4RCX1eDRptazPblDMpQUPDIjNwBLVLRYFDgUNEFDhOlZigFo5IZNKl0tTURF1dncnt61QDChwiosBxCrVwRCaTLhXD7hRQC4cCh4iEBa8GjZoHDrVwRJrEhDhyMlIcn2/YnQJwTLWgwCEioc+rUaCtra1GN0tUC0fEyc1ON9qUzweBQ10qChwiEgYCO4ZDs1QiTpDX4OgAmlULChwiosChwBHpgSNHU2JFgUNEvltAx3CoSyXy5GlKrChwiIgnGcKbF3d0dBgtb65Bo5HHZA0Oy7JMVxmtVQ0ocIhIBAYOMFttVC0ckcdkDY7a2lpaWlpMbn9YNaDAISLhwetpJybdKmrhiMDAEdw1OBQ4FDhEJEx4PcLfZGqsFv6KLKnJiaSnJDk+3wdTYg+pFhQ4RCQ8tABebQFr0sKhpc0ji+mmbQocosAhEl1OBCpwJMWrhSOyAkdQZ6gocChwiEiYaQpU4FALR6QFjqC3cGgMhwKHiChwnC5wqIUjkuSphUMUOEQkFAOHZqlEFpNVRru6uqiurja5vQs4olpQ4BCR8OHVTBXNUpGTcnulOT63urqarq4uk9vXAJ2qBQUOEQkfjYEKHMlJCSrtCBETY7bolw+6U75ULShwiEh48aqFo6mpyfGNUpMTVdoRold6T6MWKx8Ejn2qBQUOEQkvXiWIxsZGxzeKi41Vt0qECIEBo/tVCwocIqLAcUZq5YgMITAltlq1oMAhIuHFqy4V08DRU4EjIhT2yTQ63wf7qKiFQ4FDRMKMVy0cDQ0NRjdLTU5SiUdC4Ogd9BYOBQ4FDhGJ5MBhMmgUILWHWjgiQZFBC0dTUxOHDxsvEqouFQUOEYnkwGHawtFTgSMiFBgEjvLyctPbNwBHVQsKHCISwYFDYzgko2cPo23pKyoqTN9CuWpBgUNEwk9gB42qhSPsmQ4Y9UELhwKHAoeIhKHjgQwcmhYb/ooMA4cPWjj2qBYUOEQk/NR582KN4ZACwxkq6lIRBQ4RBY7v1NTUhGVZjm+mabHhLwS6VCpUCwocIhJ+2oETnr7Y5XLR3Nzs+GZq4YiAwGHQwtHc3OyLKbEKHAocIhKm6r15sck4DgWOCAgcwZ0SexyoVS0ocIhIePKqW8UkcGjQaHhLT0kio2cPx+f7YPzG56oFBQ4RiZLAYTJwVOtwhLcQGL+xTbWgwCEiURI4TFo40jRoNKoDh1o4RIFDJLp5NYbDpIUjMzVZpR3G+vfNCnbg2K5aUOAQkfDl1bSBo0edb2PRIzGeHonxKvFwDRz9FDhEgUNEnDvozYuPHDlidLMstXKErQG52Y7PbWxs5ODBg6bPqTZtU+AQkWgJHCYtHKBulbD9UIiNobB3puPzd+7cafoW1LqhwCEiYe5QIANHVpoCRzjKz8kgMSEumIHjU9WCAoeIhLeAdqmohSM8Dcg1G7+xa9cu07ewRbWgwCEi4e0w4PEGKQoc0cl0wKgPWjg+Ui0ocIhIeOvAi6mxpl0qOekpKvGwDBzZRud/8cUXJqfXA3tVCwocIhL+PO5WOXr0qNGOsb0ze6q0wzFwGKzB0dnZSWVlpcntN+NFK5wocIhI6PrS0xe2t7dTX1/v+Ea9MhQ4wlGxQZdKRUUFnZ2dJrfX+A0FDhGJEHu9efGBAwcc30gtHOEnOz3FaNM2w+4UgI9VCwocIhKFgaOmpsZ54MhIVWmHmSEFvY3O90Hg+FC1oMAhIlEYOExaOFKTE0lJSlCJh5FhxX2MzjecobILL6duiwKHiISuKm9ebNLCARrHEW6GFJq1cHz+udEmr+tUAwocIqLA4Ui/7DSVeJQEjo6ODgUOUeAQka8cAZoDFTjyeqWrxMNEWkoS+b0yHJ//+eef097ersAhChwi8pV9Hr9w3z6jG+XlKHCEi2FFfYiJcX7+J598YnL7vcB+1YICh4hElgpPX1hVVWV0IwWO8PG9s/KMzjcMHGrdUOAQkQjkcUd7Y2Oj0eJf6lIJH2MG5QczcLytGlDgEJEoDhxg1spRYDAmQAInIT6OUSX9HJ/f1dXFZ5995vR0F7BataDAISKRZ1ugAkdWWgqpyYkq8RA3vLgPSQnxjs8vKyujpaXF6emfArWqBQUOEYk8uwGPN7wwCRwxMVCSm6MSD3Gm3Snr1hkNwVipGlDgEJHI1I4XA0f37NljdLOSvGyVeIibMLK/AococIiIX2z39IU7duwwCxxq4QhpGT17cLbB+A3Lsvjggw+cnn4c2KRaUOAQEQUOtm/fbnSjgWrhCGmTzh5AXKzzj4Lt27dTV1fn9PSVQJdqQYFDRCKXx3MYjx07ZrTi6OCC3kYLSomfA8eoAUbnG3anvKIaUOAQkci2EbA8fbHJHhlZackU9s5UiYegxIQ4zh9eZHSNVatWOT21BXhLtaDAISKRrQ74IhCBA2BUSa5KPARNGT2QlB7Opy23tLTw7rvvOj39TXfoEAUOEYlw6z19oeEqkkaDEsV/Lhs/zOj8d955x2T9jVdVAwocIqLAcYqNGzca3ej8EcUq7RDTO6Mn4w27U5YvX+701Dbgv1ULChwiEh02ePrCiooKDh065PhGeTnpDC7srRIPIZeeP4zYWOejeV0uF2+++abT01cATaoFBQ4RiQ7leLGk9KZNZsslTB87SCUeKn/4Y2O48oIRRtfYvHmzSQh9VrWgwCEi0cMigN0qcyaOIDE+TqUeAmacO5h8w431XnjhBaen1gCrVAsKHCISXVZ4+sLVq8029MxOS+aiMWepxEPAddPHGJ3f0dHB0qVLnZ7+PNCtWlDgEJHoCxwe/fEvKysz3ldl7pSzVeJBNmFkMUMMx9O88cYbJquLPqdaUOAQkehzFHjf0xe/+qrZTMazS3IZWtRHpR4kMTFw02Xjja/z7LPPOj11A16s/yIKHCISWV4PVOAAuFqtHEFz2fhhjOjf1+gaNTU1Jt1rj6kWFDhEJHq9gYfLnH/00UeUl5cb3ezi7w8mOy1ZpR5gKT0S+dUVE4yv88QTT9Dd7WgIRg2wTDURvTRkXEQagMuBPI/+aMTFMXPmTMc3i4+LxWXB5i+qVfIBdNNl5zFhZH+ja5w4cYL58+fT2trq5PT7gLWqieilFg4RAS+6VZYsWUJzc7PRzeZOHkV6SpJKPUCGF/fhfxjOTAG7dcPhYNE24HHVRHRTC4eIgD149FeevLC9vZ3i4mLOPfdcxzdLiI+jo8vFlt1fquT9LCUpgUduuZKsVLNurI6ODubPn09jY6OT058DXlJtRDe1cIgIwE5gu6cv/stf/oJlWUY3/PG0c8hJT1HJ+9nvrplMYe9M4+v87W9/o7raUTeYC3hANSEKHCJykscD+nbs2MF7771n/M37Z5eep1L3o6smjWT2hOHG1+ns7OTee+91evorwOeqDVHgEJGTXvbmxQ8//LDxDa+cNIL+/bJU8n4wYUQxC+dN8cm1Hn74YXbv3u3kVBfw76oNAYhREYjI13wGjPLkhXFxcezYsYPBgwcb3fCT3Qe46YFXMeyhka8ZmJfD0wvmkpqcaHytI0eOMHjwYI4fP+7k9GXANaoRAQ0aFZFTZQIXefJCy7JoaWlhzpw5RjfMzUnnYF0ju788qtL3gcEFvXj0t1eSkdrDJ9e77bbbWL9+vZNTXcC1wBHVioBaOETkVMVAlad/GxISEigvL6e4uNjopg0n2vjRXS9wrKlVNWDg7JJcHvz1bJ9NOd66dStjx451utDXi8B81YqcpBYOETnlsx+YBhR59BXW5aK9vZ1LL73U6KY9EuMpyc1h1ce7VAMOnT+8mAd/dblPulEAurq6+OEPf+h0ZkorcKX7eRIBNGhURP7R37x58VNPPWW83DnABaP6M+8H56j0vRQTA/N+8D0e+NXlJCcl+Oy6d999N5s2bXJ6+p+AfaodOeVZVRGIyDdkAQcBj9vl586dy7Jl5ttkdHZ188+LX2HH3sOqBQ+kpSTxb/80nQvPLvHpdTds2MDkyZPp6upycvoBYAhwQjUkX6cuFRH5pjbg++4PDY/s3LmTmTNnUlBQYPYHKTaWC0YO4N1PKmhu7VBNfItzhxTw51/PZtSAXJ9et7GxkRkzZlBfX+/0Er8CtqiG5JvUpSIip/NXb15sWRa/+93vjFcfBeid2ZM//3o2adpr5bTSe/bgDz+ZxmO3XEV+rwyfX/+Xv/wlVVVVTk9fj5ddchI91MIhIqdTBfwGL7pV9u/fT1FREeecYz4OIzsthZH9+/H2lnK6XS7VBhAbE8Ml44fxH7+8nO+dlUeMHzrE77nnHh588EGnp7cBl2LvyyPyDzSGQ0TO5GE83NDtq6CQnc3OnTvp06ePT97ApxU1/Msjy6O+e2XcsEJ+e9UFDCns7bd7LFu2jHnz5uFyHvDuABbp10YUOETEW4OAL/Cy6/XHP/4xf/3rX332Jr7YX8tvHvp/UblGx/nDi/nF7PEM79/Xr/d5//33mT59Ou3t7U4vUQaMAzr1ayMKHCLixCpghrcnvfXWW8ycOdNnb2J/7XEWPv7flB+I/Nb65KQEZo0bwrVTR1OSl+P3++3atYuJEydSV1fn9BKd2IOMt+rXRRQ4RMSpy4AV3p7Ut29fysrK6Nevn8/eSHtnF4uXruP1D7ZHZEEX9s7khxeOZM7EEQEbMLt9+3ZmzJjBwYMHTS5zK9p+XhQ4RMRQLLALOMvbE6dPn87KlSuJjfXtZLhVH+1m0UulNJ5oC/vCzUlPYca5g7n4+4MZOaBfQO+9efNmZs2aZTL9FeAN4CpAW+/Jd9IsFRH5Nhb2MtWzvT2xsrKSHj16MGnSJJ++obPyc5g9YTgNJ9oo//Jo2H3SnQwZv73qAm6/dgoTR/anT1ZqQN/D2rVrueSSS2hoMFp5fD/2rJQW/ZqIJ9TCISKefDHZAXi9D318fDxr1qzxeeg4aU9NHf+5fBPvba3EFaL728fGxjCyfz8mjuzPhJHFDC3s45cprZ56/fXXmT9/Pm1tRi1EncBkYKN+PUSBQ0R86SfAc05OzM7OZv369QwdOtRvb27f4WO8tGYrKz/aRVNLe1ALKjYmhoF5OZwzKJ9zBuUxbmghGT17BL0Cu7u7+f3vf8+9997riwXabgSe1K+FKHCIiK/FAdsBR6lhwIABbNiwwaeDSE+nvbOL97ZWUlpWyfrteznR5v/1O5KTEhhc0ItzBuXzvYF5jB6YG3KrpNbW1jJv3jzWrFnji8v9CbhdvxKiwCEi/jIfg2Wrx44dS2lpKampgRmv0O1ysWNfLZ/sPsDO/bXsrj7Cl0caHHe9JCbEUdQnk8LemRT1zWRwQW+GFPamqE8msbGh+6d0/fr1XHPNNRw4cMAXl3sNmAto+VdR4BARv4kFNgDnOb3AzJkzee2110hOTg7KD9DZ1c3hY80crG/iWFMLTS3tp6xi2t7ZRVJCPGkpSfRIjCczNZnemT3JTkshOy0lqGMvvNXa2srdd9/N4sWL6ez0yXpcm4GpaJCoiIgEwPewBwxaTo8LL7zQamhosMR/SktLraFDh1om9fSNYwfQR4+/iIgE0v2mH2Bjx461amtrlQx8rL6+3rrxxhutmJgYX4aN3UCeHnsREQm0FOzdZI0+yIYPH24dOHBAKcEHWlparPvvv9/KycnxZdCwgHIgX4+8iIgEyxxffKAVFRVZGzduVGJwqKOjw3rssces/Px8XwcNC9gDFOpRFxGRYHvZFx9sCQkJ1uLFiy2Xy6UE4aGuri7r+eeft0pKSvwRNCzgUyBXj7iIiISCNGCnrz7kLr/8cquurk5p4lvU1dVZixYtsvr37++voGEB7wIZerxFRCSUjAJO+OrDrri42Fq7dq2SxTeUlZVZN9xwg5WcnOzPoGEBrwA99FiLiEgo+idffujFxMRY119/fdTPYjl27Jj11FNPWZMmTfJ3yLCAbuBf0dpMIiIS4p7w9YdgVlaWdd9991mtra1RNdtk2bJl1hVXXGElJSUFImhYQB0wS4+wiIiEgx7AFn98IBYWFlpPPPGE1dbWFpEho6GhwXr11Vetn/zkJ1ZaWlqgQsbJ42Ogvx5fEREJJ/2AL/z14divXz/rnnvuiYiBpdu2bbPuu+8+a+rUqVZCQkKgQ8bJLpQH0XgNEREJU32xl8H224dlUlKSde2111pvv/221d3dHRYBY+/evdYLL7xg/exnP7OKioqCETC+fuzF3hNFREQkrBUAFYH48MzNzbV+/vOfW6tXr7ba29tDIly4XC5r27Zt1qOPPmrNnz/fKiwsDHbA+PrxPPZ0ZpGA04hkEfGHQqAUKAnUDVNSUpg4cSJTpkxh0qRJjB49mvT0dL/es6Ojg127dlFWVsann3761T+PHz8eavWxC/gN8LYeTVHgEJFIU+QOHQOC8sctJoYBAwYwevRoBg4cSP/+/RkwYAAFBQVkZWWRlZVFamrqGc8/ceIELS0t1NbWcvDgQQ4dOsThw4eprKykoqKC8vJy9u/fT3d3dyjXQQNwD/AA0KFHUhQ4RCRS9QdWACND8c3Fx8eTlnZqD0N3dzeNjY3hXu6dwNPAXcBhPYYiIhINUoE3CJ1xDJF8dAPLgEF67EREJBrFAfcBLoUCvxxdwFJCtCVJREQk0KYBBxQQfHY0A48DQ/RoiYiInKov8KbCgtFRASwEsvU4iYiInFkM9qZvtQoPHh/t2OMzpqEB/yIiIl7JBP6MPQZBoeL0YzM+AH4L9NHjIiIiYuYc4L8UMLCwp7SuAm4AcvRoiIiI+N55wEqic/DnmwoZIiIigXUusARoJXK7SjYBdwOTgURVuYiISPDkAAvw47b3ATpcwOfAo8CV2GNXRKKKRjqLSLgYAcx1H8ND/L2eAMqALdiDPtcCR1WFosAhIhJehgJTsbsjJgP9gvheOoDt7oDxKbAR2IrdbSIiChwiEmEBZDRwNvby3iOxd6n15d+449gLbu1xH7vcIWMn9swSEVHgEJEolITd8lEA5AJ5QE8gA3uQZk8gnr+3RDS7g0MrdvdHrfs4ChwC6lSkIs79f0BmPvWxapeGAAAAJXRFWHRkYXRlOmNyZWF0ZQAyMDI0LTA2LTE2VDE4OjE3OjEwKzAwOjAwMSKqegAAACV0RVh0ZGF0ZTptb2RpZnkAMjAyNC0wNi0xNlQxODoxNzoxMCswMDowMEB/EsYAAAAASUVORK5CYII=;" parent="1" vertex="1">
          <mxGeometry x="957.75" y="760" width="87.25" height="90" as="geometry" />
        </mxCell>
        <mxCell id="8idVusI056MpJdviH8Ap-22" value="Roda o banco de dados com as informações que irão alimentar o modelo, usando postgres sql" style="text;html=1;align=center;verticalAlign=middle;whiteSpace=wrap;rounded=0;fontSize=29;" parent="1" vertex="1">
          <mxGeometry x="600" y="917" width="350" height="30" as="geometry" />
        </mxCell>
        <mxCell id="8idVusI056MpJdviH8Ap-23" value="" style="shape=image;verticalLabelPosition=bottom;labelBackgroundColor=default;verticalAlign=top;aspect=fixed;imageAspect=0;image=https://seeklogo.com/images/J/jupyter-logo-A91705F539-seeklogo.com.png;" parent="1" vertex="1">
          <mxGeometry x="950" y="1020" width="68.27" height="80" as="geometry" />
        </mxCell>
        <mxCell id="8idVusI056MpJdviH8Ap-24" value="Roda aplicação web com o jupyter lab para treinamento do modelo" style="text;html=1;align=center;verticalAlign=middle;whiteSpace=wrap;rounded=0;fontSize=30;" parent="1" vertex="1">
          <mxGeometry x="595" y="1180" width="350" height="30" as="geometry" />
        </mxCell>
        <mxCell id="8idVusI056MpJdviH8Ap-25" style="edgeStyle=orthogonalEdgeStyle;rounded=0;orthogonalLoop=1;jettySize=auto;html=1;exitX=0.5;exitY=1;exitDx=0;exitDy=0;" parent="1" source="8idVusI056MpJdviH8Ap-24" target="8idVusI056MpJdviH8Ap-24" edge="1">
          <mxGeometry relative="1" as="geometry" />
        </mxCell>
        <mxCell id="8idVusI056MpJdviH8Ap-29" value="Conexão com o banco" style="text;html=1;align=center;verticalAlign=middle;whiteSpace=wrap;rounded=0;fontSize=27;rotation=-90;" parent="1" vertex="1">
          <mxGeometry x="393" y="1050" width="190" height="30" as="geometry" />
        </mxCell>
        <mxCell id="8idVusI056MpJdviH8Ap-30" value="Conexão com o banco" style="text;html=1;align=center;verticalAlign=middle;whiteSpace=wrap;rounded=0;fontSize=27;rotation=-90;" parent="1" vertex="1">
          <mxGeometry x="393" y="730" width="190" height="30" as="geometry" />
        </mxCell>
        <mxCell id="lU2g8GxYdGwtx_MwnQwR-1" value="" style="image;aspect=fixed;html=1;points=[];align=center;fontSize=12;image=img/lib/azure2/databases/Azure_Database_PostgreSQL_Server.svg;" parent="1" vertex="1">
          <mxGeometry x="2130" y="583.33" width="35" height="46.67" as="geometry" />
        </mxCell>
        <mxCell id="lU2g8GxYdGwtx_MwnQwR-3" value="API&lt;div&gt;Insert dos Dados no DB&lt;/div&gt;" style="rounded=1;whiteSpace=wrap;html=1;fillColor=#dae8fc;strokeColor=#6c8ebf;" parent="1" vertex="1">
          <mxGeometry x="2140" y="770" width="120" height="60" as="geometry" />
        </mxCell>
        <mxCell id="lU2g8GxYdGwtx_MwnQwR-4" value="" style="aspect=fixed;sketch=0;html=1;dashed=0;whitespace=wrap;verticalLabelPosition=bottom;verticalAlign=top;fillColor=#2875E2;strokeColor=#ffffff;points=[[0.005,0.63,0],[0.1,0.2,0],[0.9,0.2,0],[0.5,0,0],[0.995,0.63,0],[0.72,0.99,0],[0.5,1,0],[0.28,0.99,0]];shape=mxgraph.kubernetes.icon2;kubernetesLabel=1;prIcon=api" parent="1" vertex="1">
          <mxGeometry x="2117.5" y="740" width="50" height="48" as="geometry" />
        </mxCell>
        <mxCell id="lU2g8GxYdGwtx_MwnQwR-49" style="edgeStyle=orthogonalEdgeStyle;rounded=0;orthogonalLoop=1;jettySize=auto;html=1;exitX=0.5;exitY=1;exitDx=0;exitDy=0;entryX=0.5;entryY=0;entryDx=0;entryDy=0;" parent="1" source="lU2g8GxYdGwtx_MwnQwR-5" target="lU2g8GxYdGwtx_MwnQwR-9" edge="1">
          <mxGeometry relative="1" as="geometry" />
        </mxCell>
        <mxCell id="lU2g8GxYdGwtx_MwnQwR-5" value="Kaggle Website&lt;div&gt;Database Original&lt;/div&gt;" style="rounded=1;whiteSpace=wrap;html=1;fillColor=#f5f5f5;fontColor=#333333;strokeColor=#666666;" parent="1" vertex="1">
          <mxGeometry x="1960" y="650" width="120" height="60" as="geometry" />
        </mxCell>
        <mxCell id="lU2g8GxYdGwtx_MwnQwR-7" value="" style="shape=image;html=1;verticalAlign=top;verticalLabelPosition=bottom;labelBackgroundColor=#ffffff;imageAspect=0;aspect=fixed;image=https://cdn4.iconfinder.com/data/icons/for-your-interface-free-samples/128/Globe-128.png" parent="1" vertex="1">
          <mxGeometry x="1930" y="620" width="58" height="58" as="geometry" />
        </mxCell>
        <mxCell id="lU2g8GxYdGwtx_MwnQwR-8" value="" style="sketch=0;shadow=0;dashed=0;html=1;strokeColor=none;labelPosition=center;verticalLabelPosition=bottom;verticalAlign=top;outlineConnect=0;align=center;shape=mxgraph.office.databases.database_cube;fillColor=#7FBA42;" parent="1" vertex="1">
          <mxGeometry x="1940" y="736" width="47" height="52" as="geometry" />
        </mxCell>
        <mxCell id="lU2g8GxYdGwtx_MwnQwR-16" value="Container: api-data" style="text;html=1;align=center;verticalAlign=middle;whiteSpace=wrap;rounded=0;" parent="1" vertex="1">
          <mxGeometry x="2135" y="830" width="120" height="30" as="geometry" />
        </mxCell>
        <mxCell id="lU2g8GxYdGwtx_MwnQwR-17" value="" style="shape=image;html=1;verticalAlign=top;verticalLabelPosition=bottom;labelBackgroundColor=#ffffff;imageAspect=0;aspect=fixed;image=https://cdn1.iconfinder.com/data/icons/unicons-line-vol-3/24/docker-128.png" parent="1" vertex="1">
          <mxGeometry x="2090" y="698" width="50" height="50" as="geometry" />
        </mxCell>
        <mxCell id="lU2g8GxYdGwtx_MwnQwR-24" style="edgeStyle=orthogonalEdgeStyle;rounded=0;orthogonalLoop=1;jettySize=auto;html=1;exitX=0.5;exitY=0;exitDx=0;exitDy=0;entryX=0.534;entryY=1.029;entryDx=0;entryDy=0;entryPerimeter=0;" parent="1" source="lU2g8GxYdGwtx_MwnQwR-3" target="lU2g8GxYdGwtx_MwnQwR-19" edge="1">
          <mxGeometry relative="1" as="geometry">
            <mxPoint x="2200" y="700" as="targetPoint" />
          </mxGeometry>
        </mxCell>
        <mxCell id="lU2g8GxYdGwtx_MwnQwR-35" style="edgeStyle=orthogonalEdgeStyle;rounded=0;orthogonalLoop=1;jettySize=auto;html=1;exitX=0.5;exitY=1;exitDx=0;exitDy=0;entryX=0.5;entryY=0;entryDx=0;entryDy=0;" parent="1" source="lU2g8GxYdGwtx_MwnQwR-26" target="lU2g8GxYdGwtx_MwnQwR-34" edge="1">
          <mxGeometry relative="1" as="geometry" />
        </mxCell>
        <mxCell id="lU2g8GxYdGwtx_MwnQwR-26" value="Container: jupyter" style="text;html=1;align=center;verticalAlign=middle;whiteSpace=wrap;rounded=0;" parent="1" vertex="1">
          <mxGeometry x="2375" y="662" width="120" height="30" as="geometry" />
        </mxCell>
        <mxCell id="lU2g8GxYdGwtx_MwnQwR-27" value="" style="shape=image;html=1;verticalAlign=top;verticalLabelPosition=bottom;labelBackgroundColor=#ffffff;imageAspect=0;aspect=fixed;image=https://cdn1.iconfinder.com/data/icons/unicons-line-vol-3/24/docker-128.png" parent="1" vertex="1">
          <mxGeometry x="2330" y="530" width="50" height="50" as="geometry" />
        </mxCell>
        <mxCell id="lU2g8GxYdGwtx_MwnQwR-28" value="Treinamento e Validação do Modelo" style="rounded=1;whiteSpace=wrap;html=1;fillColor=#dae8fc;strokeColor=#6c8ebf;" parent="1" vertex="1">
          <mxGeometry x="2380" y="610" width="120" height="60" as="geometry" />
        </mxCell>
        <mxCell id="lU2g8GxYdGwtx_MwnQwR-30" value="" style="shape=image;verticalLabelPosition=bottom;labelBackgroundColor=default;verticalAlign=top;aspect=fixed;imageAspect=0;image=https://jupyter.org/assets/share.png;clipPath=inset(0% 28.67% 0% 26.67%);" parent="1" vertex="1">
          <mxGeometry x="2370" y="588.9100000000001" width="34.85" height="41.09" as="geometry" />
        </mxCell>
        <mxCell id="lU2g8GxYdGwtx_MwnQwR-31" value="" style="shape=image;verticalLabelPosition=bottom;labelBackgroundColor=default;verticalAlign=top;aspect=fixed;imageAspect=0;image=https://upload.wikimedia.org/wikipedia/commons/thumb/c/c3/Python-logo-notext.svg/1200px-Python-logo-notext.svg.png;clipPath=inset(0% 7.51% 13.67% 0%);" parent="1" vertex="1">
          <mxGeometry x="2471.25" y="590" width="42.25" height="43.33" as="geometry" />
        </mxCell>
        <mxCell id="lU2g8GxYdGwtx_MwnQwR-33" value="" style="image;sketch=0;aspect=fixed;html=1;points=[];align=center;fontSize=12;image=img/lib/mscae/Azure_Artifacts.svg;" parent="1" vertex="1">
          <mxGeometry x="2350" y="720" width="40" height="40" as="geometry" />
        </mxCell>
        <mxCell id="lU2g8GxYdGwtx_MwnQwR-37" value="" style="rounded=1;whiteSpace=wrap;html=1;fillColor=#fff2cc;strokeColor=#d6b656;" parent="1" vertex="1">
          <mxGeometry x="2570" y="710" width="200" height="120" as="geometry" />
        </mxCell>
        <mxCell id="lU2g8GxYdGwtx_MwnQwR-39" value="Container: api-ui" style="text;html=1;align=center;verticalAlign=middle;whiteSpace=wrap;rounded=0;" parent="1" vertex="1">
          <mxGeometry x="2610" y="830" width="120" height="30" as="geometry" />
        </mxCell>
        <mxCell id="lU2g8GxYdGwtx_MwnQwR-40" value="" style="shape=image;html=1;verticalAlign=top;verticalLabelPosition=bottom;labelBackgroundColor=#ffffff;imageAspect=0;aspect=fixed;image=https://cdn1.iconfinder.com/data/icons/unicons-line-vol-3/24/docker-128.png" parent="1" vertex="1">
          <mxGeometry x="2540" y="660" width="50" height="50" as="geometry" />
        </mxCell>
        <mxCell id="lU2g8GxYdGwtx_MwnQwR-43" value="" style="shape=image;verticalLabelPosition=bottom;labelBackgroundColor=default;verticalAlign=top;aspect=fixed;imageAspect=0;image=https://images.datacamp.com/image/upload/v1640050215/image27_frqkzv.png;clipPath=inset(10.23% 32.67% 48.86% 34%);" parent="1" vertex="1">
          <mxGeometry x="2560" y="692.8" width="60" height="43.2" as="geometry" />
        </mxCell>
        <mxCell id="lU2g8GxYdGwtx_MwnQwR-44" value="Dados de Entrada para Predição" style="rounded=1;whiteSpace=wrap;html=1;fillColor=#f8cecc;strokeColor=#b85450;" parent="1" vertex="1">
          <mxGeometry x="2580" y="770" width="77.5" height="45" as="geometry" />
        </mxCell>
        <mxCell id="lU2g8GxYdGwtx_MwnQwR-46" value="Aplicação&lt;div&gt;StreamLit&lt;/div&gt;&lt;div&gt;Consumo do Modelo&lt;/div&gt;" style="text;html=1;align=center;verticalAlign=middle;whiteSpace=wrap;rounded=0;" parent="1" vertex="1">
          <mxGeometry x="2610" y="710" width="130" height="50" as="geometry" />
        </mxCell>
        <mxCell id="lU2g8GxYdGwtx_MwnQwR-47" value="Predição de popularidade" style="rounded=1;whiteSpace=wrap;html=1;fillColor=#f8cecc;strokeColor=#b85450;" parent="1" vertex="1">
          <mxGeometry x="2682.5" y="770" width="77.5" height="45" as="geometry" />
        </mxCell>
      </root>
    </mxGraphModel>
  </diagram>
</mxfile>
